<mxfile host="app.diagrams.net" agent="Mozilla/5.0 (Windows NT 10.0; Win64; x64) AppleWebKit/537.36 (KHTML, like Gecko) Chrome/132.0.0.0 Safari/537.36 Edg/132.0.0.0" version="26.0.11" pages="2">
  <diagram name="Diagrama arquitectonico" id="8ZcNG9JQFwgZMNp5XyFR">
    <mxGraphModel grid="1" page="1" gridSize="10" guides="1" tooltips="1" connect="1" arrows="1" fold="1" pageScale="1" pageWidth="827" pageHeight="1169" math="0" shadow="0">
      <root>
        <mxCell id="0" />
        <mxCell id="1" parent="0" />
        <mxCell id="e9nx1dZjpdk4EGY3y0fY-103" style="edgeStyle=orthogonalEdgeStyle;rounded=0;orthogonalLoop=1;jettySize=auto;html=1;exitX=1;exitY=0.25;exitDx=0;exitDy=0;entryX=0.75;entryY=0;entryDx=0;entryDy=0;" edge="1" parent="1" source="e9nx1dZjpdk4EGY3y0fY-2" target="e9nx1dZjpdk4EGY3y0fY-26">
          <mxGeometry relative="1" as="geometry" />
        </mxCell>
        <mxCell id="e9nx1dZjpdk4EGY3y0fY-105" value="Http Request" style="edgeLabel;html=1;align=center;verticalAlign=middle;resizable=0;points=[];" connectable="0" vertex="1" parent="e9nx1dZjpdk4EGY3y0fY-103">
          <mxGeometry x="-0.1858" y="2" relative="1" as="geometry">
            <mxPoint as="offset" />
          </mxGeometry>
        </mxCell>
        <mxCell id="e9nx1dZjpdk4EGY3y0fY-2" value="Poliza Front" style="shape=module;align=left;spacingLeft=20;align=center;verticalAlign=top;whiteSpace=wrap;html=1;" vertex="1" parent="1">
          <mxGeometry x="10" y="30" width="460" height="170" as="geometry" />
        </mxCell>
        <mxCell id="e9nx1dZjpdk4EGY3y0fY-10" value="" style="group" connectable="0" vertex="1" parent="1">
          <mxGeometry x="40" y="70" width="130" height="50" as="geometry" />
        </mxCell>
        <mxCell id="e9nx1dZjpdk4EGY3y0fY-6" value="Ionic" style="shape=module;align=left;spacingLeft=20;align=center;verticalAlign=top;whiteSpace=wrap;html=1;" vertex="1" parent="e9nx1dZjpdk4EGY3y0fY-10">
          <mxGeometry width="130" height="50" as="geometry" />
        </mxCell>
        <mxCell id="e9nx1dZjpdk4EGY3y0fY-8" value="" style="shape=image;verticalLabelPosition=bottom;labelBackgroundColor=default;verticalAlign=top;aspect=fixed;imageAspect=0;image=data:image/png,iVBORw0KGgoAAAANSUhEUgAAAOEAAADhCAMAAAAJbSJIAAAAb1BMVEX///9Hiv9Bh/8zgf9DiP86hP89hf8wgP/6/P94pv99qf/0+P/q8f/h6/9el//a5v+fvv+/0/+JsP9sn//M3P9RkP/F1//n7/9KjP+PtP+60P+pxf+Erf9YlP9wof/T4f+Xuf/w9f+kwf+zy/+uyP/8aRYLAAAPbElEQVR4nNVd53riMBAMKi4UUw0YMJjy/s94BkJCGcm7smzn5rtfl8R4kbR1dvX11TgGo8VmO8l2+yTJ03Wvl6Z5su9nk8t0MTpGzX9+kxgtT/28p6XWgRBC9XrlvytUTykhAq2lVHk8mY66flEXrKZZEspSsodUBqheKamU82I57PqVGVht+j2phV20N0GFlr34/D8sZrSYpSFPuh+UUq5ny0HXItgwmMaBDlyEe5JS7zd/VchlXG7NWuLdobSMp39Px45ngRfx7ihXcjbuWqQXbBLpT7xvIWWy6VqsB1aZ1E6apQLlbi1WXQtXYhx7X75fCNnv2oCM52Fz8t1kDOMuZRzvZRPb801Gue9K6YzihtfvR8Yw7kK+wazB8/cmYdqFz3oJ2pKvp+cdyHdIG7EPEHLWgYAz2ZZ4pYBZ+/ItRGsbtNyi7QsY7dwW8BrXl4H9HeQtHkAtOppO+kmeJ3Gx8W9IDj32At7SFaFKk/k+7u9mu34/nufrIJS6Mo5UORCvWIc6uOVERBlRBrODVwEL1gJeI3eR9yebw+ozGjqOF+dinwaWkEvpDzNxmL8ZKSVkPvUm3zHRLOmSYjqqCvQG4/MsD7GU8v3VV/MQrbpMPa3jIiCen1I6nUwW9Ch2sCjyzwBF9N9+7WJyMlToRSGd4PcHxJPCJdsyPO/DFyGVeHtIbDkiOqmf+ohJO1RpkTlvmWi6179C6vPrD3NrBkiomrHkMafo0CDcL+tlWAbnPPyWZP36k6oXUOpY54PHBC9N6fWp1oc8PmsW6M8lnFd+wyqt8eUuqo2EkMmypmg/iM5rrcTL+2aEMyL2zp+4qdQxKtz7NbzT/EU7LsJqAUurcXH8tEvV45Wc+/eeXpZwTRGwPCdup2RSJaBM/K7fJ7ZET0M4RVqTijOoe/6cJgMisqseOmQDKgQU4cS/RO84k51FUbAffrIKqOS+jRRKThWwNIrcZ2+tAgai8Q16xYikSO+QC96zz7ZnKxm3UyHaMgp2gueCL60C6lYWsETMCbpTzpPHti2qEx8eGgk0Y/gNydhXQ5sGazHHN6CH3dcXo5c5otRihGSLtb0VK3Mi6d6HxZkXvTbrQdbD8gFN9v8L894Iklar7COehNTdZVGjuuVKEG+XUiUcmiPe1tPsR56ERJOfmwUsGhUHIFKcKpCkxXGZ0YsITw3LA0B3S68SknJu5qRF6BpF18HOu08zMIZjsoMV/PraMEw+zS81+oGyhVgQ4Og7ttiY9mgHtbw7ErKqIcWHA5OAuJbXBujblLRJ+4Y9KpLGJTGCKmAvJAQ8Jj2q1h0SIr3m2gzBmNKdkuhSkoAqIBjDieHb4uY/PONAy3mfq580NOxR3Y2d+IUl1PmBoKhCg5oRXdCSXlFdexIUd8YUbL5XY7tAUlU/7FESR3NsWjs+hHdEib0GvKYIeMBLGHTly7xhX7+Ob/COWClIE6LVYXqZFNksKyaX5WHoYl23Ri4GMWo1GPuwdu1sfOmnt/6u4Mb5Cq4kqSCfndlFx+Ee1WqVTIiZMRzYu9Xkfl/qHIcSklGFlmG8YeaVESeKXF7HS/hWT2diM7f30Qit58z+mFVxbRsT6kYE1FJkYP0M7HesSD+YV3SMMk2icOiMWaJbTYv+vES/2EBf8hTu4PvgJXSOKEb0Rgwhdz7LkGfZgwV9nA0JHSkIKx6RX4Q7b4WeTenDBsDLHEDf9oM8R0NUsIn8wleK5Fa1Vhr8AHoM0ilmmvZcmhD12gel45uDDoqbMAIL4ImtQGTjEFoR1i7ZHR/0vk/9gR026aAAxmt3onuwrsc82vwyYD/qiDO0r1yMfSWByo6wRmFyNX9qw/rgncAA0+EU1m7FcC78DF61mxKvP14iCUkx8wuiOasiDaGdGIajjzastyIUTHMTyzhPApJotlUI2E5GNH33Vnvvhg5mgdnuTAVPmQx2ZjaC1lc/+7tTtLnI9eIHqvIMdBG5aaECSvgccuBNyvyY6lwRGdwCwgopcPFkzCOoZ5hKbVdfyfyCWwRC2YlnbbpAL8eg3lxh5/ixwSTswNrNUwINmXvUVGXBuJ6h/wQvqIlgEuF3IyCfNNiyPoHFPSOBVwmCqeyfRYLnlMcnNpXkaoAXuEGX5afWhkjGPGO4bKJtVrL6N9Ab/IRQaAFYmzRqQL4rOPsUCfETOaBRTixNaqbf1EJQMN4BOi3fuWzIG1vbn/cCHrWOAU5sc4Ru2dEofcCJDD06M69gBTeIOfUdX2TgBTkcblp91gkco4h80++UG/J4KJyGBwwlOR/gdKMdkEW4/z1aAoZDw6PwMsFQeDAdeksqIj3BSdCweHVccNx/dBBvqTTkDTBCQyOFyg803SYim3VTNSgVzMhfXHwGTeAV6d81ii+CK1sUejT0b47OqnOCoof7SCHcdjnavnRFw6OZO4DeFoo6T67udQR8NkFP5nO6rtwkJPCcvoEiuBRrioBOBW54k7L8GpRtEhE0FvS+E1yT84qQLOEESFiaC5SjoatSmOHxC3ojE4pzS1GQjg3JJC/0tXkGPVJFX3e5HYGqYDTTNuiTPkA/iOjABWe4CnRjUTEH2QvIlKwIGcQTip3oVpbTJ+AMuuMG2odE8dUH/0vOcqGIxTvo8QXIipZODThJdC4ip5vFGXTbBYyz6n8ln48UZN4HJnD4lpDs1eyBhHNE16PrZ5QA8Q66h4WCCCwhuUGt0ej3AXoUjCRM0OmkbwvWLABX0BMOM2AXcuSQ19r4DUhIVu3o0KSopeiPSajICTeUUFzXW8N2dinZbcNrCM4hXdM0UFT7BGOXAuOFJSRbC3C0/aOupqllDyHLw7uEBfV1kPFKoE9DfmTjWZor6F84UgtzpA7p2wIW7XyDXiUCPraKa8YWbQyFpqcxQGJU7ODppMeHrUhIzpji6Akpi78V45PL0YjaVcZJfz5PQ3dpUANscIbKgp5ra8FcoNYJDFS4KMNnmC8l5w0gUccvqANnDHXCA855kx/aRs6bnIhC1lmucN2CThdizY5xAYOchXxIPYC1J0Zb7KRpr6ZmlWiNV4HxvTXKU7iCwVUAY3VukkBCGPmpxHkO7qDbZmQsbpVQWMen060a3qYMlYBU6e3PkUGkJ2G/hs1qU7ppht/1TRDIpynIz202V8Oh0aIXuW9GICGHP0uYZu4OTtsOJCfefoKULGcKaIO6hvNNI63+HSVBbiKjnbMRCvQdnIEcF3AMv08bKiDRizNfthGENcGgC5XHEC3UXWNC0g+n26Kxk8g5hbDj4tEDix7+eYeNBQ2RhANOPwJMqDwK5ChFxWpcM81eqgcVcFr0UaT6w+1CPBRe/yh12hgLvNYnRPn6WSbcM8NqymmA/MVrQoQRwG/fD5SfNfFjSL0oiQwlWGMkIHXpl6cCe9d4DcfW8e0uCHmzqZDb8VQ8xv2HvGkDlIFqDDAHxMFN+uQvwKnnvPY8zyaD2yYLKRPB0y/A+IA7ACv1eGs1t5sbLeFLXIKbTJnt+EdvCXDBvbkJvv+LroQtBezZNL5EFGvuiD/oGb/y4ZDbyp9scqwx1uRJwJQrINQzbwsEC4Gs/r8bBh7OosPUfkiYeM/EQF3PaFh5oPboD4fBH9An673PUYKcA67BuD2olheuXC5Xgu/+wRWDW9lpGt25xm3kQjhM2cSRzWcmGRYgtMMifq1y150q5y4jzeASggwPvBfLcaTgxGkZBaM95gm4LwnFt/AX+er0/qlz9mlUsu82kw4zz9BgFlzOpdMEXrFIeTcHy8RxyhfuQoYrgw+s49C9EtOUvFdFjfsFceyNO94wDY89LOoXy4Q0OzEI++6fga85MKwLvsCNOcXl7ZHZumKAopDppMZMyAjnFkJD0RFTR5wsxi/G14vCoT5XQof5pN6QPUylNza5GzhcrNQpwuo8y7XU1yHC98mxt9vW1bxY1B0Tbnhj88nCi+hlIPtgtLhMZvF8nszjXXaCt63zgef+WIoBhlFIlIH8ncAwU8U2a8LA2669T5uBYY9aDZyhM9t9mHCTMM39sQfuhjYfXbT01hzs8R6tIAMNDLlrZn62DRgGxKmqexwMQyDUnzuKpqk41QGKoSpfy7VpAEfTHQLV72mibte4mr0JmK4QpZDETF0if0rbwOxnj8o5NLnKdYYYe0ZmzJOQ/txIPOANwWsQxjmb1MYFY2do/bs8vGBjqlWSZ7AZhwQqXS/W8YOpOT9Cfoa5FUa3eREwhrnazLjs2FLQ7XwVp0YBeWVj81jnjkU0b1FmVfVo5lZ0er3V1riCPH5RiYX5UW3eOv6GzKxk+LHByfKwTm6ULRGbCyLSIV8Wmynq0uVij9oYWIbas0h+P7BcAxDQbjnzipGlhO54R+rAkssVom2VerbUQRRr4vATRrbCQ8vXO+9sArrfkWpWqCW0UznTDaPU1rdSx10+20QUoq1Y42StYtWL6qz34igZt6FwVom1ah7WzFdbzOJ1GQP3e+fob2AtQ7oYwldMrCIqOW822jikdtqDj7vM7CKWMmbNXWe9qrr+y89lbfaNWpp/QZ72wsMgq7qfzpf/WHUNl9K9BpzxaBtUtTbWVTK/2KD7TV+gU88yDiai6v5L5TP5R+j70b2Lv/M4LGQ1+Z/TfVaNMaHbQIvCzw3z4z7hfkglPCvxI4E5qkTIvRj2E8NtFX3jhiD37mxEewofT2kxq7F5oulekjqnpTORyYZJpb65ySjkOju4rORws8e8lE+EtR0ZjIUgcpyFFPGZd0zGp4RyefD98aKx3PvR7gM/QQkte/H2QDksw8Vprgm68wE9b9LfLxjtTUoEUuez7WJk2LPR8LAp4p7WrLawpkPvhWKy8UWgpVwncXY6b6bL5eKwWG7O22IWJ+vrdesCDLOwoe5drAREsQsBWN3vjH/gRgDjP6XGLaUsLKkKxzuCXlvlvVkNOr47lKx9ITId45Sq2f3Jp/N2E5gXom32BRG0Th8cfFzA26R8Mms/yf71NdqT3Lj6UGG/K0bWAVw07B2i6WSXHeM9iY5fQ74w7rquPtrp5iZFBbrfPTWi9Mcn5KiABaVl0V5ppAKbRLp5YWbxhEz+DsvsinEWeLSQQoviL2zPNyxj6UVIoYPd36Mk3zGY9uuuZClef9lcmcADokWWUrMtn9KFefZXV+8Fw02/V25YhupR1z6hdDb9M6qTgNU0S8Jrr1PVnIWrcKHYnxb/k3Q/GC1P/fyWrPgO6m/SqlvIf+vukmKdzC6Lv9YHwMVgtNhsJ9luP0/ydN1L81tzV7GdLsbHFnTKP/6D1+VZ7rnsAAAAAElFTkSuQmCC;" vertex="1" parent="e9nx1dZjpdk4EGY3y0fY-10">
          <mxGeometry x="30" y="9.38" width="31.25" height="31.25" as="geometry" />
        </mxCell>
        <mxCell id="e9nx1dZjpdk4EGY3y0fY-11" value="" style="group" connectable="0" vertex="1" parent="1">
          <mxGeometry x="180" y="70" width="130" height="50" as="geometry" />
        </mxCell>
        <mxCell id="e9nx1dZjpdk4EGY3y0fY-12" value="Angular" style="shape=module;align=left;spacingLeft=20;align=center;verticalAlign=top;whiteSpace=wrap;html=1;" vertex="1" parent="e9nx1dZjpdk4EGY3y0fY-11">
          <mxGeometry width="130" height="50" as="geometry" />
        </mxCell>
        <mxCell id="e9nx1dZjpdk4EGY3y0fY-14" value="" style="shape=image;verticalLabelPosition=bottom;labelBackgroundColor=default;verticalAlign=top;aspect=fixed;imageAspect=0;image=data:image/png,iVBORw0KGgoAAAANSUhEUgAAAOEAAADhCAMAAAAJbSJIAAAA0lBMVEX////dADHDAC/SCzbdAC7cACnCACbBACDcACLCACy+AADdACzCACrmY3TTY3P//f7bABjtlKDflJ/bAB3AABrfFDzGFDq/AAvBACS/ABLbABPbAA3AABjAAB3bABraAAjoeYf30tfrv8X529/xrrbmrrbgKkf98fPci5b76eztmqTgmqTIKkblXG7ncH/2zNLhOFHPU2bYeYbqhpLjpq7LPFPzu8Lago7tmKLvpq/13uLPACDWdIHjT2Tma3viRFvMRFrTaHfMAADGID/QWWrfIELRWZ+PAAAK1ElEQVR4nO2de18aORiFud8tWFQYQAFRKXhBa4utq7Xd2u//lXYgjM7kfZPJ5R0u3Tz/7a91ylnGc5KTSSaVcjgcDofD4XA4HA6Hw+FwOBwOh8Ph+H8yPq1v+iMkyvy6/0/lw+mmP0ZSzG4aJ/l0NlPoeU/DTX8Yekb3+UY+7ZPN+LS9wsNo0x+Jksn+YaeUS6ffFGYy5WLr6ONk0x+MhvH3224g713hUmTl65fxpj+eLfWz536pmg7xrtCndly5O99lcz3d6zTz6SgRhT6Fg9aumutw0Gzw8hCFC5G9g887Z66j+1wHkYcrXJpr+dPjpj+0OpPpn7C3qChcmuvvy50wV986OW9RU7jwnR0w17o/LGtK5MkVMnN93eKR6+kPaJ2aCpe+4/3aSnMdDkqYdeorXIosPmyZuT7upzt5kbfoK/R9p+1ltsdcJ9MLsXUaKswszfXqcgt8Z3z2IrVOc4WZpe/8PN+syPl1N8Y6IRoKFyIPWq8b8x02o9WkOT3Qk7g016fZ+uUNgxmtHtXb1NearkRfpNde74z5MTSj1aMxT5329BWuZsxrMlduRqtFLudfoFw2kcjMNflBHZzRalGa+te4PDZTmFnDjHm+p2+dERqLT1f3jBVmEp0xzwYn+tbJfYX3yys9FG0kLsy1R19Hju6rJtbJ0Wfzv0nFTmFmMWOufSI018m3Q2NvCZO/Xl3wQ8FaIumMedCnkOfTDW6tUcte4VJk5TOJwvsSib5F2geYpD5G8ROJwu9NGoV+2gecWtnpO8dfSBSenpAIzKVD18wYpj5HjyY3Rh0Shc3voWt+MU/9MB7NOG7cJVHYCI9F7FL/jRbRII7kLl2lfYBt6jN6NAJTfyjCoh/NLoLU9+PiN5HCZ/vRTDq/x12UIvULd0QKBwQKu/wYiyL1209ECvftIz+U9gEEqV/8SKTwzD7yQ2kfQJD6B+dECmcNW4G5Q+SyR9ap36MqqB6tIz+S9gH2qe9RrcbZR/4J1jzUjSqpMC2yQsPWabi0D/hkm/pFKoGpC6tyxk97fHA1tkz92hWZwmu7QMz/EFz3l13qFz6QKbScA4O0D3i0S/32A5nCqZXC6ovwwj+tUr94SaZwbhX5DfE01S71D+h606FN5KNpH2CV+h5daTqxiXw07QO+aK+1hWjRPX5Tt4n8pvTSNqlPF/ipVNV8DixI+wCL1C/X6ASmbs0jX5D2ARapX/tKqPCHceSDtOfvLPPUL/wiVGge+SDtn7n/fjT+EokKb8Z3U4Ug7Yf/8hZvnPpEhTdjbloodvhQ3vuHH0wapz5R4c0YGUY+SPtxP1vhrcc09T3KpzNM58DNM+5C+6Us+PU5N0x9qsKbYaiwxF+nlMuWwbz12OxLbFEKTB0aRX5pn7uM//uczfT43u2jUeqXj0gVPhtFfpe/j/yRQxYm9dhomlj7SarwxiTy8zfcVUbd5bOJLd4inkxSv0BVeDOMam+Q9ouhURYZjBilPlnhzTCpvfP88GXcT7PnS0Fg/DT4Eo+pCm/GzCDyO3wjvSxDFgpB/TAzSH2ywpthsNJd/cNfJJdbKSyX+T/6rT90I1rhDjCIfJD28+XAaPkUtMcPuM71Z8K0gZ9KaX+HOZD2L9U3hdDpi9qp79EK1K+9Qdo/stuAPcle4W8x7dQnLLwZ2rU3SPvVSjJT2OYf19Ke6xdeiRXqrnSDtK+v7vPVbgSPn+s/tfUUgv9HtujW3n3+NgyeHVspBNNX3dQnLLwZmrU3SPu3sXuwlxuMm+/0Up+w8GZo1t4g7WeBGQd7ZjzwN/RSn7DwZujV3jDt357JCRTCZ2H0Up+w8Gbo1d4g7Sf94I/e9j1V+I+ol/qUhTdDx2lyef6n3+vIN4VFsPrX1kn9NrVArdq79I3/6feB+/veNfDYnU7qkxbejD2NQARpH5p8vSsEz/vozPUJV7gDNGrv/ID/4dCY710hHHd9Vk99eI9bo1F7g7Qfhow4tMOyxRu+RuqTFt4M9ciHaR++w0MK4Z2mnvqkhTdDvfYGaT/uh/40vEsWtBlD5d9E0sKbMVENxOoF/6ORGiusEK4eXammPnngp9TnwCd82qciW27CCmH9rZz6tIU3I61We8O0P2vkQmTLITzQlxXUUr+cSUDhi1rkLzdRRn/wMMzFURiQ24rbL4kLb4Zi7d2xK4jqal5DXHgz1GpvmPaaqKU+6Qp3gFrt3bf1OLWNGAkEvuIGr7dNlOa8qqR+AoGvWHt37GfeSqlPXHgzVGpvmPYGqKQ+deHNULhLT+C2Cn3mCqlPtaUrSvwGr1yV5B+KT32yLV1R4jd4wbQ3Ij71ybZ0RYmvvTs07VB86pMX3oxvcZFfGhD9Sw9xqU9eeDNiI9867QNiU59sS1eUuA1eBGkfEJf6xCvcAXG1d5euZ49LfbItXVFiam9kE6U5MdsvKwmdUSP3UriJcnS9B/nxAfIKxmAxRy3RF94Mae0dOTKBMWjmIdkCpAfNX3roAvkKd4B0pRumfR11JvREOrAiLE/9BApvhrT2boAPiacLqhC6v/TQBcItXVFktTeyrQK/qVGFyDqL7NCFROa/C2S1N0z7EW69+LmJLeA1stRPZP67QLLSDY5MEA5jBSclQ6+RHLpAvsIdIIl8mPa4zwjPvoReIzl0IYnCmyGMfCTtRaNYgUJkpClO/SQKb4aw9kaOTBCFp0AhEnHC1E+k8GaIam8k7QU+Iz6hFXqNMPUTKbwZog1eyCZK4XRZpBDxGtGhC6RbuqKIIh+mfV1oSsJTdqHXiFI/kcKbITjXDEl78WxZqBDxGkHqJxb4wtob2UQpHqQLFSJeI3gkM7HAF610I2kv9BnZWdCI1+Cpn0jhzcBrb+TIBEktJ1aIeA2e+skU3gzsO0TSXjSekStEvAZPfeonvMNgG7yQtJe1chKFiNdg2y+Jt3RFQWpvJO2lZYDs/RbIs2pI6idUeDOQlW4k7SU+Iz91HvEaJPXJzjDDQFa6kQOSpPW/TCHiNchRS8RbuqLAXzAk7WU+E/PmAMRr4KELCRXeDFh7N6Bzy9t/qULkw4+B1yRUeDPAuWa5i+k+x/RCus4oVVi7uvzIcXnFe02CgY9Ffq4EkC+kxrxJpwgAZppk4OORr4fOGzxwkgx8f4bYtzzYzFphrZLc7HDJ8LZjd16rncKy9zX591zM01bnYlkpPMis540s0xOL080sFBZ7ySxuI9Tv+8ZH8hgrLFQe1vm6ssm1qeUYKqxVXtf9Yj1TyzFSuBaDgZhZjonCdRkMxMRy9BWu0WAg9YG25egqXLPBQCbXXT3L0VNYa63dYCDD24aO5egoLHtX2/EaRC3L0VC4OYOBTBvKlqOssOht0GAg6pajqLBQ+bxtL1xVtRwlhVthMJDhhYrlKCjcGoOBzHPxlhOv8LhM8Tx8UsRbTpzCLTMYSKzlyBVuocFAJs9Sy5EprLXuttFgIFLLESvcYoOBSCxHqPC4lmRbT8+3jsByBAq33mAgY4HloAp9g9mC91Nr84haDqJwZwwGMkMsByjcKYOBnFV5y+EV7prBQPY5y4kqbHtJLuiuCc5ywgoLladdNBhIxHJC59O07tb0ou01ELKcQGG5t9MGAzmrliIKjwu7bjCQleVk/xqDgYxv+quTkv8Wg4EsLCf7VxkMZPbn5CrJx2G2gb9dn8PhcDgcDofD4XA4HA6Hw+FwOBwOh5D/AIGRDjYt4mNCAAAAAElFTkSuQmCC;" vertex="1" parent="e9nx1dZjpdk4EGY3y0fY-11">
          <mxGeometry x="24.38" y="12.5" width="25" height="25" as="geometry" />
        </mxCell>
        <mxCell id="e9nx1dZjpdk4EGY3y0fY-15" value="" style="group" connectable="0" vertex="1" parent="1">
          <mxGeometry x="320" y="70" width="130" height="50" as="geometry" />
        </mxCell>
        <mxCell id="e9nx1dZjpdk4EGY3y0fY-16" value="SCSS" style="shape=module;align=left;spacingLeft=20;align=center;verticalAlign=top;whiteSpace=wrap;html=1;" vertex="1" parent="e9nx1dZjpdk4EGY3y0fY-15">
          <mxGeometry width="130" height="50" as="geometry" />
        </mxCell>
        <mxCell id="e9nx1dZjpdk4EGY3y0fY-18" value="" style="shape=image;verticalLabelPosition=bottom;labelBackgroundColor=default;verticalAlign=top;aspect=fixed;imageAspect=0;image=data:image/png,iVBORw0KGgoAAAANSUhEUgAAAOEAAADhCAMAAAAJbSJIAAAAaVBMVEXMZpn////LYpfKXZTJW5PJWZLLYJbNZ5r25e3+/P378/f9+fvYjbLObJ3qxNbSeaXv0uDTfqj36O/cmrrz3OfeoL7QdKL68PXZkbTltczWh67gpsLnvdHirMbx2OTbl7jsytrjscnmuc4Mqif4AAARYUlEQVR4nM1d6cKqIBD1A8Q9s8XKNuv9H/KqdUv2QaE6P+/tU47AMMwa/PlGksbLxf24zquyLoooiIqiLqt8fbwvlnGaeH9/4PHZadzerlUUEowpQigYAyFKMSZhVF3PbbzzOApfDOPFuipIzyzQo6OKSVRtF7GnkfhgGJ/yiGIjN5YnplFz8sHSNcO0XQchtiE3oonDaN2mjkfklOFukSMyjd2bJcpPTrelO4ZZO5vei2SzyJyNyxXDzRpPXJtykvi6cTQyJwzTUxm6o/ckGdYHJ1vSAcP4GGHH9B7A0daBcJ3NMM4p9cKvB6XN7MU6k+Gmcr48WaCwunyR4abxzO/BsZnFcQbDOHcoPbUccT5jP05mmK6dHH5AjmQ7+YCcyvDuUb7IQOl94kVrGsNLST7Krwcpp23HKQyT7Yc2IAuE11OmcQLDJfrsAn2D0uUHGKbX8Ev8eoRXa03OluGl+NYEPkAL291oyfDsRwO1ATl7ZLj7gggVgcuVL4bL4BsiVARCNgLHguHhg0qMHojcPDBM8u9vwTdwDj4aoQx3tVcZip4WYvwANdpZaQ01VwEZxoWvFdobhEnRW/lvp0W77NAu7uftvioI0alOqADejWEMl1bmXTg5EqLmvNiksotDkm5O2zokqrUDlTcghif3akw3dVF1XhqXWrY81qprTLhwxfDumiDCtDlvwDe++FzLxXh4csPw5laIIoz3C0urdnLJpfYScnDB8OxSj+no5e2k6/rqKptHgApnZHh2uEQprU7TrbxxI5GtoZGiieHN2QwiUhxnGnhbyZllXKgGhndXe5CGzXK+tyVtxPEQg7jRM3R1TODoaHUfUENyfTMcGlqGSycEESlP7pxlJ3HbhNqjX8cwduIN7Jan04CLhfjZkW5/axjuHOiiNNw7980fhFlEheZ8VTNM6tkEKV1bO6yTHvqfrAUtDtXqP1EzzOdelyiCi5dkF7d9VFFTlXX9CCg6XVaK3ZvV4rtye4aHmecECrfA+YvbY1MHz7Cix7pBQ5QNrfO7dI0vxbHhmy1DyUOs+JEriN/m0AS0o6Z4SqfkFTfJgxrJya8SqAqGu1lGJ4QbgHxZnfJunozvoeFVeFgskadI8UkVDMs5BAnAbRufK+0Vnhk8PvI7shL/FJU2DOfcJyg1Xky7C59yZUqBC05mnSSbCMuVcCnDy3SCiB4Nsj47lUrLhPqxmF0WO9kTsHTpyBimxWSCxLQBN2s6TYZxeotkmQZBIbuayRhep56ENNAv0GRRTfY8cttsKxsjvcIYTta3w732epvdijmeVdKOHybbiN0IWvG1IsNk4ihoIXn8G7sjWHbKwU7iRr7WqagGiQyl828G0fouV9v5kQ14LE9j+ePo2szwMkkQIKqbwN3WhWMcj1+xU/1IkKc8w2TSWY8rjY6WHt1EptDxebeL5D9CJX9Y8QwnKdw6Z1d2sD/9FIMfr8BUwTDAdz3DdMJoUKSxIpwKZ/ZktAfMYTfVnDzgGIqXSyNwqV6hl9pl4PD4tFspn8sLG5ZhbK+uka2S36px6vCgx/FI1UuDsNoPyzC3/uJYaZDNzo694nhsGNWozoi97zMMFceoBuogpdbdBnyCOQh0pmrM+E4ZhpKrsxaIqvTsXeM+LoURIWude7hRMbxYbhu1Ee/uIWyD1dqkd4v/CMeTGED/SgRVHfNx5SOwiDnodtqhokrOcGM3hbRUKKInq+s7GOH4ey713zAc7Z4RQztBSgX16Pl1Je4hF2Al5FY/1rFy8Gao0NYVoJXcXOsnaqMDYVRq4/De95A3Q6tbE1IsUW+xi8zWMhuSRtrBi6FSlZW+L5ISzDyt0A6YOXj3xoXyHuCLoZW3V259jf2ImOGFzBGXmsf6lrwvhqK3Qw0qNdu1HiPfQsZeegO86XV6/mdoc1RgqUXNcdgNA/YCmkEcm69T/z/DK3yB4eOfBFuP4cOsmIFtqNd9+ckwg4+Pe93/L+RxBlHEbHvQFHYTkTEMF+ABcq97Yu8zvJZznAG3w3/D1ZMh/FYhDXzwGj8c3ph3pcDl9l8JejDUK7JjUNmV3usMYs4qAVYun0daYLlIC4mydvSZo4D37Mta8MvIYsQQ/F1ka9RZZJgMfMj6Du4Xey7TgWEKnnhJyMMMZ6MZuOHeZhMhgtIXQ/DMU1GO7rzOIO8uE6OFNHh4qwaGOqMH80LJWW9r27EB4d+3sVovj0N/YAj9E8mNYm7YjW6AQhi32tAtR/SfoSR2QwoqhgKsPBKM+ISKzNZrNBgzeoZyf6oI3iPgdY3iRnhbZXt5GWzIPUPgWYFE76ObAFTZuwQX0hS9YhD9PUPg6g7FNJxZgUUakFI0NU/R7aMHQ6gJSow5Mtj0poIiSej2JM2wt8kHYJVN4oPxsgsRlgSlJtMsQP1dPQCfhkQIFl0ZJx9bV65BYS7JSUuthczzaduBIdCYL4bhGi9q9GYZIYdIJcu5m5wb2N/WA2iMl0SSGj9Nb8WFU0QUyYPCJbHrUBRpx1DjTR0DC7t/Zxz7IPJvsPEhUpylQdPZdsaRROKOYQtkKCwfcxjxwyHWmoNpEA73ipSaTT1HbcJtx/AM28RI+MAAq2V4ecwC1vwUUYzU+WzneVWMOkUzAFjIB4iRjRADZP346epYEJnLBlESVMeLMqNmOWsCgyF+I4CKUtF8AfnDl1knW66L8F0Kc4jFJ/X+dtEEU63mG7g6YRokQJ1NZAgS4SM9Idm1h2tTFygqymZ9aDeZNpp4t3bhBomSIAVKKtFMCvs05hRIKeKrmzJiYRpAg4TEsAvg5JOtdWJX1jork0biAJo6IrpjSuBLcGWX3HXZFu5COfAygJpKkRBDDRTC/WEOX6mbY2GXqGAAXgR3qE4riBqIF+//eyJIjuWur1/r2MtK78ER+kQhscjqdoiLs26tJqv2WFEPJcToMYBaEsVlmtndaCitt62E5W7T564hp2tzNOp1AI+iIfx5Ad6Ir9dhjItmfb6fFovF6XQ4XpuiL9lirok9GSgPKvCPKW+fnWbE6NWZdxUa72WLqgAq8wOJNdGXIcohUBlYxGAIvkPgxeurqAObLC7hjmgZzfgNFFYMhSCF1TcrDMJQBFbODsGiaOXt+gosnTlM4OaA2Tnt/mHJkdfdsvl1CfwistqHgSS1X53a8RuwkzQ9BD+wfQrDR1HYnIcPcAE8HcWfnsXaRqd5Qqh488sUO50Grpe+wKQ69oj9q5eT0VjcLd4gPEUXpWz8oLtbgO+HYwhREh4jvOehux8eJx3ZYtaozwjaGaBnuJ2GhZh2ePhAnwR70DvY1sYDN7wZ9PIjZYYZ4AXYXiqA1rw3alf+3mbES7DNWwSK+KSE5Pc2I4nBfgsZxPCMxa9RDDOw70kKkvOG3tWXq9LziBKw/1AOWgvhdV6Dvm3R+w/trZ7sI8QAtMMPmTYGHzDQj68EbviVevGX4WWLwY8/2yQolp3elb+yGYdYDGA8jQ4h38kn2f+ITB3iaWbUvXpBFDguyw/PwBAT5cSsiwR3/VRt0CkecW2mvGggSMUpccsf2IvP2ERHXxvxca8byv533/6AghofOENvjbCIETaC13CeFFHf9xcP7Q/Ot8P9fj7uSxq6bHmpxDNGGBo2YgZ/bmz6nqL19b5cCQEn6eXeOAy5UOAZ5z2hKo0ShG2rdWkWmjK02XLtqfvlE69YfWi+BQS4tgqeyU6Fx5PzlW8BzZkBAYmhtnos/M3jK2cGnPcEfK4YL61Fcvalx77ynsC5a0CEpWUJ9o2fNj1o+2IIzzyFPDe07/+a5D524yj/EJxDagbCknyC7HI6NmVESUhoVObbeyscH0cPm3GUQ+ruvMClmCh8qQkZRzz18TQham5soxn3RSfGecCuFDcanCSxpPJKJIiSejuebuezyORyw/PxNUDCNfEJlZ2km8zxlDeOxQ2Tj+8gR0tTpVxjRUDhe9tmDi6q40c/08AD4yBgoBHncdu9279rXf0ofJXHnlYcVgWuLkY28+Hhmo15y45B+DLCJXpP+rt45uQi1NLHJgxDm/o0IoTmoAdExxXFDAZLFD3Xt7QO+UTw9Wlsy9ExwFw0/iPTBRWvfzAZLNH/4mMTqzTLINQYAkfeC6AFewTu9s+PhV//ZDyM0DMQyWGcnFAnanL9DsIZhE/B/3nAr5hiswihzyXtLNhRUuvLql7baGis+2lc1RO/To8NIMutnfWdBUjqtU3aA3wjyXbsBn5Ho5oThoOgGPbydG8mC1nNvSkGKb6M95YxvGDYgfjE4yKQObIZjXKYJte+7AfF5ifwTu73KoUwfEbnutmI4zo6I4a2xgyuPc+Gt4K+6+CD4hfDYefM8/W9niWvX2r5/bioIfFEwC8hC9oAj9qPszSP/1DVoLU79bn4PYm9Dr0fDJGQj6AAJwaVcKxiTa0FzSXrSeK9R+UqQaknD/HnYpWqa0FbBMNybRVlju3RSQm6YD8YupA0mnreYHGK2ZgvadGDUbEXUOzcYGdNbZgooKvJDj1wKVtjTKGUvdVx0Icj/RdxURpNW1cfqNiwAfvydiGjFCLD/fCJwXzrQNDwCWgcwwyUgc5eJuTyibwXKejaN+xsQPlcIxBnLOJ7lEjafAqPYCsZ3qV/MT6SICaSRwmNCe01eAitZSf0mWEzLRU198bzDHGjD4qkg10o9pez7xXEZcvKbSvjKYRsw8FsZFH1Uf0gweJu3++JLfmlUMjGiqFZVUJDm4zUQcKmpLyqfc8uQP8z9rw0noakXP05ivdHos3duu8avY1/K+8txLZ2NVaIH5Sf1oUTUVZe1bp3HrvQ5RGzTCc/kw998PJtnPQ0gfbO08aBIfa0l2orbMKJyYiH6vbQuInKAPc/1DbiYRU22fywqV/mw9BZsQF4D0tdEwdWJ5LZN9l2oDCNzQls+pBqMu3ZkGDJZHPZNB4ruHKw6yWr7gfM7jEhWQNxXSS9Vhlm3xzY9QNWFmNjtW5+DoV4oc8l7GPLns7K5cU+KGP2IUL8TvDWlEUc101FxLa3OmefGXmmKdnzMWyfCzGd0lu9k4KyFcaqNN1+HWYJUUK2YvXPj8WRIrEwJ4Bhd/DLquRxZe6zc11ERXWU7IJ53cutCCrbo+kZ/sWyEYqNrBJ5BMYHM2eRLh5Sx1Daag4Doyt3nyu2IG25AWMoMxOqWzoyiKPPEdS3ytYzlJhtUAEpodd+Lt3CFM9qYCgx18t7ITFIvPb0YEFMa8rEUJb8YprEeG7VUQuYC08aGYqljqX3zDeyrfcQ/DcA9QrNDEWDqFpD6vjdgw/myhiXKIzh34lfqEp5urs57yCrg1DaYSpD8dAge4m9IFnm6BOJMG+CZpkHZSh2pkRhfh9VyU2yzakJP7j/Alli5xyGkrrvCBNa5+vt+bhdNzUlH529/v0FULkCMvxLpQkDQzra51LRRqC1opPtZIZ/yU9lofONrlww7G/9v5KijXTn1QyGP1O8BCpj7Bn+SPGSd9S0e4Y23Sq8waKw9BSGf5cvV/YQQsqdM/zLrt/MtA+v0ENiOsPeRvitaaTURsRMZ/iXrb9ybiA+J8Afw243lp+XOKS0TmucwbC7NH54qVIkS4vzyfAv/eRVHhFFWpxPht19I//QdkQ4t+sf4Yrh398m/0CdPRQ2tkegO4Ydx8ozRxRWs/jNZtit1b1HmUOpfV64c4Z9M6fIz4bE0XbG/nPIsJOrp9L5YkVhfbDW0GRwwrDDZuuy4AzC+Dp7eT7himHfwsiRMbF7StNOPN4lcMeww26Ro5l6QPf3+cnqhmuCU4Yd0uU6CidOJcJhtG6dbL4RXDPsEZ/2EcVWNkaEMI3yuwPRKcAHwx7xYlsVGNAjZ+iiF1XbhQ92PXwx7JHG7e1aRSF5VjAbFf8YbMl9DbCoup7b2OnG4+CT4QNJGi8X9/M6b8q6KKIgKoq6bPL1+b5Yxqk7manCPywi0rZ1jTUpAAAAAElFTkSuQmCC;" vertex="1" parent="e9nx1dZjpdk4EGY3y0fY-15">
          <mxGeometry x="24.37" y="10" width="30" height="30" as="geometry" />
        </mxCell>
        <mxCell id="e9nx1dZjpdk4EGY3y0fY-19" value="" style="group" connectable="0" vertex="1" parent="1">
          <mxGeometry x="110" y="130" width="130" height="50" as="geometry" />
        </mxCell>
        <mxCell id="e9nx1dZjpdk4EGY3y0fY-20" value="&amp;nbsp; &amp;nbsp; &amp;nbsp; TypeScript" style="shape=module;align=left;spacingLeft=20;align=center;verticalAlign=top;whiteSpace=wrap;html=1;" vertex="1" parent="e9nx1dZjpdk4EGY3y0fY-19">
          <mxGeometry width="130" height="50" as="geometry" />
        </mxCell>
        <mxCell id="e9nx1dZjpdk4EGY3y0fY-22" value="" style="shape=image;verticalLabelPosition=bottom;labelBackgroundColor=default;verticalAlign=top;aspect=fixed;imageAspect=0;image=data:image/webp,UklGRhgHAABXRUJQVlA4TAsHAAAvj8FjAD+gqJEkxb/QZT76ng0lbSRB/r0t3r1DPzsRp7BtG+T/h4uD+Y//fzbcxUwAwKSOeLdA2dr2KpX0B/sCAlhzTvZYBa1pbUSci+C8NiQX0JL//lcdEnD70eeK6P8E8C////L/X6pavcLXcE+Tj38/voQLvcDoNdzFC9j98t+/T0QvIvBn68Cf7f416Gq2hbCKqtnezEtgNdvas9qq+TKWFwcM+i///aNNKaWwU21bfZvneX6qvr21rVJoKdWe8zQQ9NMy3ufVbVAGKH3OkyTwfbL2fT9J9vlNYaS7qkoFTSn3VTUYgLpM0PSyHAw6dZ4ENEc/yXtounMqaLb72wBMJmjO/tWgcs4Dmnecj5DoLqTZyx6SYyAWgT6H9ISywUPXHj1Fj0cdiOe4wdGl9Jx46DUthEwshNqjZaBXtAx0IRZC7dEy0CkthINYCDqkhXAQC+Ee0tS+7/vCB+gopvHjJMnzPEkSHx29Jucyzquq/clzVRV5AMzFc+Un+6pV/PNatVWa+KDoAzmW+5tip6otAgHJPXQj97fWsGPdnYtUAFKT03g/8KT6nAYCjrWTqFFmGtbqHKChVy7kaeDp1TkVWNSeA1mOPMs69aFYk8NyMPPQXSaAuK8c7HqebVcIHI7CTr7zjHUoYPid7N/MnLjLUNBru7jneV9S2UBwDywkySvPvQ5uEFzIOhpmp88DBAe7kp9QIaBDq+jxDB/5jO6eVWlAq4WN/INBO1htR9Q2Vm+M2posZQPbyiYaUOusdoxa7dk0i6GH7Sgs5GMpRCNsG7Lc4fbJyqCm1zblYrjCdg9tvvKffiub9z/9Lt6/vXxdDFezFErY7qulshthC20i2PTaRj5Q4082tBwa2DZWJWy/C5vIoHa061GrPRvZoNZZ0RtqemUVjaCxnXxHbW1FpQFtI6yiB2i1HTUGs7uDeMRMh3bUgJY52BrI+OhANphdhB1tB8juoQMqDWJ64yJqEOOjC9oNiNWeC3lFTK9cUHwDjDdOaDcAVntOZGnw0isnFDcGLs7cUDTgVQs3lPRw6dARlQNa/NkVlQat+8pVvB/B4o0rkqcBrM5zRVQarDhzF51GrDrPGclGQaU37sgvDVLche4oOg1I8WYCokYh1a2m8EsDFB/EBBSdBqB4NQVRiVTtTRKXI05ciClINgNOej0JUWlg4no1TXwaYeKNmIRko2DS2TTkNzBxl4pJKD4ZlPgSTEPRzaCkz940FPcosS6CaWh/MyCxPohpaDegxF0hppH7HiW+Z2ISkuWAEnfhNCQbg5I+h9NQ3KDEfA6mobg3KOmzNw3tRpRYH4JpZGlQYp35k1B0MyixOohJKB5h4nshJqHSwMR6LSaRN5y4yyah+IET17mYgkqDE+tMTEEPoLgrJtkZoPieigmoQYpVNsV2RIrrQriTJ4MU31PhjKIeKq0yd1QapJjrXDiLeqxYh8IVXQ1W3GXOoh4srlPhiEoDFneeq+2Alj6HjugdLeZD4Gg3wsUbR/KBV1cIJ1QauPgeuolGvLj2nMgGMF0IF/QGGN9TJ9EAGHcrF/KKGB+EA3qDTIcutiNktedAPhBjnTmgr5DxxXNQGsh05iAeIePas6MHZpw56EGrhV0Jmg7ttgYzPtpFqF08uxE0vbaSPWi8sbuiVns29IYa/2b1Bbb1YjiIpaA9m61ZCtEAW2jVw5bZyHfU+GhDX2G7/PNB/NPhvhy8pXAR/3igvzjk+1KIethqqwG2g83WoKYzmy8M22oxeH81nIXN22vTwxNlZCmb13YpzfP8ZtW/ts9R8zSdZxOZF0e78VmOAg25M0/yiWy3r06QPI1PcV9ZvfHLI/n+FJ/JugGA4tsT6NDugQDtWjO7mqyjEQLajrML7d4MBnJ/m9lR2F1BINoNak5qRfZ/MAoUN3M6kH30wIF21TCbc+jgiwGCqBzULHQXksMrQ+EnjZlDlwoHUf+BBb7tLIji022YSp9TQQ635uO6F7ltOQ+ScaPMJLoOyWnJH7fuWtthJiTj/WmYoCsS4UT2H9hsHRCRzKtWKReqOxceud0ZTIjk/tQaO90WAbluYCE/TvK8alulDDMr1bZVkSeBcLUbGZZvZbzPq+8XeZ4ImvBqsPmu9H3fFzRx1DNA83wzCyFqeCGUZiFEPS+E0iyEqOdlIE9mAUgiemMUP9OTR/1CiE4M40U819XgcC8EEYknkfuBgbynPj2r3I0MpcqeZjcYLLjLg6eQ+xvjufHF/GT8YEBVm4nZlYNBhLku0mBWSd4zrF02p+jGwOqurYKZ7G+tQYaZ9SFNAn8i6Sf7m2F8dVelYpr4NBjGWLVVVaSBmzivqttgGGh1LpIkSfyfjZMk2Z8Gw2hrpVTXVkWeJMk+z/OqbQellGHQVdf+UBn+5f9f7gUA;" vertex="1" parent="e9nx1dZjpdk4EGY3y0fY-19">
          <mxGeometry x="22.810000000000002" y="10" width="30" height="30" as="geometry" />
        </mxCell>
        <mxCell id="e9nx1dZjpdk4EGY3y0fY-25" value="" style="group" connectable="0" vertex="1" parent="1">
          <mxGeometry x="270" y="130" width="130" height="50" as="geometry" />
        </mxCell>
        <mxCell id="e9nx1dZjpdk4EGY3y0fY-24" value="&amp;nbsp; Angular&lt;br&gt;&amp;nbsp; Material" style="shape=module;align=left;spacingLeft=20;align=center;verticalAlign=top;whiteSpace=wrap;html=1;" vertex="1" parent="e9nx1dZjpdk4EGY3y0fY-25">
          <mxGeometry width="130" height="50" as="geometry" />
        </mxCell>
        <mxCell id="e9nx1dZjpdk4EGY3y0fY-23" value="" style="shape=image;verticalLabelPosition=bottom;labelBackgroundColor=default;verticalAlign=top;aspect=fixed;imageAspect=0;image=data:image/png,iVBORw0KGgoAAAANSUhEUgAAANkAAADpCAMAAACeGmLpAAAAyVBMVEX////7jAD/pyb/8+D/4LL8kg3/oQD7igD7hwD7iAD7hQD7gwD/piP/8t7/4LH/oAD/pBX/47j/+/b/9+f/oxH/9uv/3rf/+vP+5tD/rjv/9un/9eL/26j/8eP/sET/48T9y6D8n0H9wo7/tlX+3L//05/9xpX/yon/4b//7dL7lSL/umD/xXz/683/zZH8nDf/v278pVD9uHr906/8qlv+6dj8sWz9u4D/wnT/2aL/rz//5sL/yoL9u3L9sV//z43+4Mn8q1P8pEZUbAsXAAAN10lEQVR4nN2d6WKiPBSGxQUEYouKtRbtbq1WrV2m7cx05uv0/i/qS3ADEiAnC9q+vx3rM4T3bCGUSoXp7G1y+aO4P1eUxlPPRLW6O7kZ7PqnqFRlXjY9VC7XLMOqu/fn3V3/IDXqDE8PCVY5JMOyHPf5qbXrnyWr1tGV6S+xNmRYtmO/fOz6t8nobBHBipLhC2e71uvxrn+gmMZTZHrlmCJkS7jJ5Zfzk8HKM7LICBzxk86ufyy/sGcwsFhkoZ84D1/DT+KekU8W+onzfL3r352ns4WfhpVORuBc43GP/WT8TnkGL1noJ7X99JPKvMe+uTjJ9tRPuv0UzwCRLf3kc3/8pHV0d5hxc4HIQjj3ZS9uubM3nMTzYPGSGcRPaq87rnfGIy/bM8TIlvnJ7uqdwbAHwQKRGaGfXDztoN7h9AwJMmOZnxQbwlu3d6l5hkoyg+Qn9eLqHYhnSJMZYX5ShJ80YJ6hgmyZn+j1k5Nhfp6hg8wwtPZPutVTzoCsg8wIQ7iOeud2IeQZKslCOPtFqVkeT33xm0slGbnlHEtVvdMghb8CLDVkhqr+SUfSM3SQGfL1TvfoStYzNJEZUn5ym1n475wshLPh/ZPjqanq5tJHFvqJA/GTwRyaxO+KjIj0T7iSL7WeUQBZ6CeTPD/Bhb+CgFw02RLuIaOYy24W7jUZgXPqbD85lkni94HMCIdXST/R5hnFki3rnW0x1+lvhpJfnsyINIdmWj1jB2TGsjl0XRr5BWEVSIblPJaOvidZ/bx0Zn5LMue6NP6mZB+l7vckczulVgFxbAdkDi7dekV5fpFkVg0HtKtvSXaByRbFLcfiyOx/mGz+LckuMVm/uFBdHBkO1KUiQ3VxZA6p1BrfkcwllUznO5I5YQ/5W95nYeVZLiygFUZmGSGZrlCNfD9z56ZOss+QbKonoJm/Go3FYey7CyOzH0MyLaHaM4fkuyuLaOeoMLL6ZUimoapGh4t1z/ZkumUrjMx5WjZQldu+j84iLb/OaL0miyNbtlRVh2pkjhJd2u7c8wslc5cj0dahWq6rCt2Bbg09HxVItvqzKh3E845YvXWsYdkvrN9orP7mqbKAhg7fMgas/ZpbDFpYdxLdqSLze+N0LqKnmlMEm/28+nuKQvUqhGXrelLAdVsFanwHqAhoyLzj28Zwfa+dLaw7iVSEar98loUT08ena2slWwXqUmkmHdDQYTKEZev4QSubu56gDWTJzNMGCAzrx7NGNme9d6krtxo9vwrlCv8/X7Sx2ZtZvIzrI3MhuqGy8+jUdYCFDeKlJBrgfo/fORhsr/W6eqO07jd/QDhUI3MuwUXUvawrD96bcFYqjcRCNU5+TyTBsFo3hmI2+3Xz5WKh2vPTkl+oztWyOeebb74VIEPmVOFuZaUJpfOx+d5jeEAz85JfMJu6hNLd7uM5gZJxJb9QKUso3chigpFxJ79QKUoo7chXgtrEkOQXKhUJpTWJfCGgTUz3b9RKPqHc1J1E/BNdxOrfqJVsQmm/RL6MP1SjBTitF2FzJNg2dScRYKKL7aOAJ2cHj+LXbVN3Et1CzBEnVTP9bN1H0WTZ/Yh8DbBNjMxTffa4Zbu0hRITNxqSwBNdZP661c/WuhFhs6P1YgtexiCzpyohzhI8WY6FM7HasyC2JyBbpO4kEpvoIhP1i2ADJcuxQF0qvQm2iZFf1pAbU4Iky/Zl7J+KT3SR7w8LOPbi44EXLRaoJTdf+f5c+/kCg2deMif+CInkRNczR3rPYrnkT0nceIokPdH1DmW7WBm6rjm8XJgs3nXqSk50cW3TaChoZLHUeQbV2m7in0tdM5xJjtuVCmbT4CU3sNw40iBeSmbzlVeutoMKUaPRVsx2PAEsRKJEOJOZ6CJ/GrQra6ll676Amz6xupNIeKJrnv7ecilmO7fhRVr9MvElQzEyzxuuFmKMLVDB9uNepIiJ1Z1EQhNdZC4a7STXEi6Qjd2tR7Huo5N81lMkVPu93/QFU8T2ZAiO1txkygCf6HrePJ0rZKsIsw0uhNvFTvKPQh9pQubdmL0QFbC9ireuqHAGDWh+r3qSecE2cPB88lp0IYZk99T3QTZfIfM94OIKBWPrPEjNLcIHYuLiD9XIv5rlLsToZYNcN0BSzyZLhjNAm9hD/WznYLDxXrdW8HQhh5aoO4l4J7reW0oIy2HjKQROGpWgfSs1jqECNXeo9kYdAbAKTyHQxfxYQfvsWdwbXfqoEN6Jrver39bB1mo31h/EbMLjGJc+VIk7VCO/1w9E2VKT5U4j+sGgPX6pC7El607yf8YfqjHbUC3baiHG2URGFpbF+HZISoz88ryijq2d5FqxvVpQts0O4qhg+6QJWwPq/mu4eJHTabDAQrbGK7D1HdmYtBX0GV3ko5E42yahbGV9DrNdgtgiG5O2Eth85fnvY0k25kKMsQU3gP09jHAmuPnK86YybN20hRhVOxhys1F1JxFoohthM99mgmwVHq6QrT2c8OX/jEBdEj9Ow/MXM76SRlzt9itXeHNZMaUj3ib2zLuMvoEKsMYL1zWzDBZZS2Ycg0vsW21oQXto8SUkzHAmeZyGV/6vOdbChrNI7vac9cAkk3hGF3mLavPgALMph8MLETDvZAVqmeM0vNOfzSqWeja8ECFdEUbdSSQ60UXl95BLA1v7DNaeYwZq0Yku8u8ONmBLtpkitnbwCOx/M8OZYKj2esMo15KtOqvIswVteJ/YYR/m+wNOhry3ZhIshJNna88E2nN1ducWvvnKv+qzuFZsDQm2diDSJ948uZoU0EFICEvhWi7K36JseCFCZu5bskkKGagBnnQOhWzt8YPYcwnUvHMtSKj2fv3M4RJlC4JL0aYcs+4k4p/oIu+dg0uELWgfQWfuW0UeiImLN1RnOQcLDsAWjGGbPxJkHylkvG3ibOdgXjfOZDmYST1B4qbt3eaa6JLkFyw+tmDcPGjOL8SfamLWnUQ8m68QaCFG2fKKnKDxG2cv1Wpz+CnWHl6fmMQQz+YrdPofM+vgZEuHC2bVg9Unmz//CbGlhjO+UI38HvA242ELGs2DyCeb/b+cVXRU1MakrX5xBTTk9d7VXregslyIcTbbBt5wqYGaf6KLvPJ7VZSNTpaDcfWA/mTz4I8Ba+un1J1EkFBdngqyVXEBF2VLLEQJtpS6kwiy+Qp56C0vcUxl2143xkKMslWnNX621EAN3nylgI29EONsE94Ax5h3rgU+TsNDC7HwtirgUhdilK054mSrp+9gEDhOA3l3wmwHWQsxBjfn6TgyNiZt1BXpXsmwcX+yOf/MfxdoeqAW3U2Mi1CeYk1GzeF9LllGoOYN1azrdqWTrXnwj2M1MjYmbSWzT1ofW3PKlWrVbzLIBI/TWLGdzgWTrmyuIefAgjnvXEvu5CvkCRcC6VwHf7nDWdYzw7InX0kUAilgI4P/UZ+sTWsCx2lQ1024EGBw9SEFNmNj0lbg4zSYbMKFQEL8C5EoK1BjKTmkUqYQiFyweQ00sEiZd66F1Bx4KFMIrLj6n8BOT0bdSaTukEqcLEuwNf+AH4mhHoiJS+ULEjxPtBBozjk3tkSVUXcSyYRqWmLJcrPPk0vRZNkvU1T9ggTMBk26mn8E2lZGZt1JJLj5KosNllDihSjYI3ayd87reJcRoBDgS+qZsmrZW8v1vCCBN1nmTOrZZPQDMTHpepcRZstNlrmTejbZZzaZvncZ4YQykw2Q1DOVOu9cS+O7jJA3SU+6IEk9U5l1J5HocRpcqjk1Nlvzp8xCDJUTqDW/y6hmWXXjD5V0yS7EUCkbk7bS+i4jclY7zdYc1RSck+fmnZ2m9V1Gy1PoLdv+u026FCzEJVkOmN53GW3O17etDdtf6JSMLcvOI5PYJw0gw2z1fzgxUbMQQ7KcQF1SVFXnk4Vsc2h1ma6cupNI57uMEm97sBWespyygzgqna8d1Pgei9xwpu1dRtrJsutOIp2hWiNZbqAulY4Ov+J74O3UjUkR3Za1pSG6yCz3M/+SEQ09TStSD5nlTPJvspVaIz1vhddCVrfOebmIThamhttNA5ntZDdQGRqfqmdTTma5LyLn2R0ptxLFZNzGQWuo+HZTSmY5NW7joNWaKmVTSQY0DlqDO4WRWx2Z7b7KHxZ2rM5KVJFZ7rOagzCVWYkaMsu9EDUOWoqsRAWZnHHQ6k5VLEkFZNLGQWtwJW8l0mRKjIPW7JfsdZMkU2YctI6QnJVIkVnuvc5XFsyTL2Yuiky1cdCSshJxsrqdN2pRoMGVMJsome0+FnC0ONaZqJWIkWHjyN42oFJVT8hKRMg0GwctISuBk2HjyG+RKlbnDR65wWS2U4Bx0GqArQRIVphx0DrrwdhAZJb7UJxx0OqDrARAZrmTYo2D1hxQ4PCTOUbhxkGrs+C2El4y292JcdDithI+Mtt50f7CD27dln0eNh6yQjMOHnFNOfLJCs84OMQz5cgj20XGwaPBXd7tlkNWz90VtjPlTTkyyXDGsT/GQSu7NZlBtuOMg0dZVpJKho3jY9c/PF/d6WEaWwqZtRcZB49SrYRNZu+vcdCasa2ERbbnxkGLaSU02RcwDlpDup+QJMOlyseuf6aIsJWgTDLH+iLGQauSsJL4/kb4fod90izWT4juSRXb77BPilrJhgwbh7qx5e607SesyCAbpfZb3bfVklyS1b+ucdBqLAemhOyLGwetsDVZs76BcdDqI68mvlFqvzUstFT5H0rl0PHAWSv5AAAAAElFTkSuQmCC;" vertex="1" parent="e9nx1dZjpdk4EGY3y0fY-25">
          <mxGeometry x="21.03" y="10" width="27.94" height="30" as="geometry" />
        </mxCell>
        <mxCell id="e9nx1dZjpdk4EGY3y0fY-63" value="" style="group" connectable="0" vertex="1" parent="1">
          <mxGeometry x="330" y="230" width="490" height="535" as="geometry" />
        </mxCell>
        <mxCell id="e9nx1dZjpdk4EGY3y0fY-26" value="ApiPoliza" style="shape=module;align=left;spacingLeft=20;align=center;verticalAlign=top;whiteSpace=wrap;html=1;" vertex="1" parent="e9nx1dZjpdk4EGY3y0fY-63">
          <mxGeometry width="490" height="535" as="geometry" />
        </mxCell>
        <mxCell id="e9nx1dZjpdk4EGY3y0fY-49" style="edgeStyle=orthogonalEdgeStyle;rounded=0;orthogonalLoop=1;jettySize=auto;html=1;exitX=0.75;exitY=1;exitDx=0;exitDy=0;entryX=0.75;entryY=0;entryDx=0;entryDy=0;" edge="1" parent="e9nx1dZjpdk4EGY3y0fY-63" source="e9nx1dZjpdk4EGY3y0fY-27" target="e9nx1dZjpdk4EGY3y0fY-45">
          <mxGeometry relative="1" as="geometry" />
        </mxCell>
        <mxCell id="e9nx1dZjpdk4EGY3y0fY-52" value="Request" style="edgeLabel;html=1;align=center;verticalAlign=middle;resizable=0;points=[];" connectable="0" vertex="1" parent="e9nx1dZjpdk4EGY3y0fY-49">
          <mxGeometry x="-0.2381" y="1" relative="1" as="geometry">
            <mxPoint as="offset" />
          </mxGeometry>
        </mxCell>
        <mxCell id="e9nx1dZjpdk4EGY3y0fY-41" value="" style="group" connectable="0" vertex="1" parent="e9nx1dZjpdk4EGY3y0fY-63">
          <mxGeometry x="40" y="35" width="130" height="50" as="geometry" />
        </mxCell>
        <mxCell id="e9nx1dZjpdk4EGY3y0fY-28" value="&amp;nbsp; &amp;nbsp; SpringBoot" style="shape=module;align=left;spacingLeft=20;align=center;verticalAlign=top;whiteSpace=wrap;html=1;" vertex="1" parent="e9nx1dZjpdk4EGY3y0fY-41">
          <mxGeometry width="130" height="50" as="geometry" />
        </mxCell>
        <mxCell id="e9nx1dZjpdk4EGY3y0fY-29" value="" style="shape=image;verticalLabelPosition=bottom;labelBackgroundColor=default;verticalAlign=top;aspect=fixed;imageAspect=0;image=data:image/png,iVBORw0KGgoAAAANSUhEUgAAAlgAAAEsCAYAAAAfPc2WAAAACXBIWXMAAAsTAAALEwEAmpwYAAA57mlUWHRYTUw6Y29tLmFkb2JlLnhtcAAAAAAAPD94cGFja2V0IGJlZ2luPSLvu78iIGlkPSJXNU0wTXBDZWhpSHpyZVN6TlRjemtjOWQiPz4KPHg6eG1wbWV0YSB4bWxuczp4PSJhZG9iZTpuczptZXRhLyIgeDp4bXB0az0iQWRvYmUgWE1QIENvcmUgNS42LWMxMzggNzkuMTU5ODI0LCAyMDE2LzA5LzE0LTAxOjA5OjAxICAgICAgICAiPgogICA8cmRmOlJERiB4bWxuczpyZGY9Imh0dHA6Ly93d3cudzMub3JnLzE5OTkvMDIvMjItcmRmLXN5bnRheC1ucyMiPgogICAgICA8cmRmOkRlc2NyaXB0aW9uIHJkZjphYm91dD0iIgogICAgICAgICAgICB4bWxuczp4bXA9Imh0dHA6Ly9ucy5hZG9iZS5jb20veGFwLzEuMC8iCiAgICAgICAgICAgIHhtbG5zOmRjPSJodHRwOi8vcHVybC5vcmcvZGMvZWxlbWVudHMvMS4xLyIKICAgICAgICAgICAgeG1sbnM6cGhvdG9zaG9wPSJodHRwOi8vbnMuYWRvYmUuY29tL3Bob3Rvc2hvcC8xLjAvIgogICAgICAgICAgICB4bWxuczp4bXBNTT0iaHR0cDovL25zLmFkb2JlLmNvbS94YXAvMS4wL21tLyIKICAgICAgICAgICAgeG1sbnM6c3RFdnQ9Imh0dHA6Ly9ucy5hZG9iZS5jb20veGFwLzEuMC9zVHlwZS9SZXNvdXJjZUV2ZW50IyIKICAgICAgICAgICAgeG1sbnM6dGlmZj0iaHR0cDovL25zLmFkb2JlLmNvbS90aWZmLzEuMC8iCiAgICAgICAgICAgIHhtbG5zOmV4aWY9Imh0dHA6Ly9ucy5hZG9iZS5jb20vZXhpZi8xLjAvIj4KICAgICAgICAgPHhtcDpDcmVhdG9yVG9vbD5BZG9iZSBQaG90b3Nob3AgQ0MgMjAxNyAoV2luZG93cyk8L3htcDpDcmVhdG9yVG9vbD4KICAgICAgICAgPHhtcDpDcmVhdGVEYXRlPjIwMTctMDktMTJUMTc6MTM6MTErMDI6MDA8L3htcDpDcmVhdGVEYXRlPgogICAgICAgICA8eG1wOk1vZGlmeURhdGU+MjAxNy0wOS0xMlQxNzoxNDo0NSswMjowMDwveG1wOk1vZGlmeURhdGU+CiAgICAgICAgIDx4bXA6TWV0YWRhdGFEYXRlPjIwMTctMDktMTJUMTc6MTQ6NDUrMDI6MDA8L3htcDpNZXRhZGF0YURhdGU+CiAgICAgICAgIDxkYzpmb3JtYXQ+aW1hZ2UvcG5nPC9kYzpmb3JtYXQ+CiAgICAgICAgIDxwaG90b3Nob3A6Q29sb3JNb2RlPjM8L3Bob3Rvc2hvcDpDb2xvck1vZGU+CiAgICAgICAgIDx4bXBNTTpJbnN0YW5jZUlEPnhtcC5paWQ6ODY5ZjFkYjgtMzgyZC1lMzQ4LWEyNDgtYTcxMWE1ZWI3NzZkPC94bXBNTTpJbnN0YW5jZUlEPgogICAgICAgICA8eG1wTU06RG9jdW1lbnRJRD5hZG9iZTpkb2NpZDpwaG90b3Nob3A6MTY1NTBkYTYtOTdjZC0xMWU3LWFmYTMtYWY5NThkNWZlOTFmPC94bXBNTTpEb2N1bWVudElEPgogICAgICAgICA8eG1wTU06T3JpZ2luYWxEb2N1bWVudElEPnhtcC5kaWQ6NzJmZTAzYzYtNzQwYi1mOTQ0LTg2ZjAtMzM4NWE5OWNkMjcxPC94bXBNTTpPcmlnaW5hbERvY3VtZW50SUQ+CiAgICAgICAgIDx4bXBNTTpIaXN0b3J5PgogICAgICAgICAgICA8cmRmOlNlcT4KICAgICAgICAgICAgICAgPHJkZjpsaSByZGY6cGFyc2VUeXBlPSJSZXNvdXJjZSI+CiAgICAgICAgICAgICAgICAgIDxzdEV2dDphY3Rpb24+Y3JlYXRlZDwvc3RFdnQ6YWN0aW9uPgogICAgICAgICAgICAgICAgICA8c3RFdnQ6aW5zdGFuY2VJRD54bXAuaWlkOjcyZmUwM2M2LTc0MGItZjk0NC04NmYwLTMzODVhOTljZDI3MTwvc3RFdnQ6aW5zdGFuY2VJRD4KICAgICAgICAgICAgICAgICAgPHN0RXZ0OndoZW4+MjAxNy0wOS0xMlQxNzoxMzoxMSswMjowMDwvc3RFdnQ6d2hlbj4KICAgICAgICAgICAgICAgICAgPHN0RXZ0OnNvZnR3YXJlQWdlbnQ+QWRvYmUgUGhvdG9zaG9wIENDIDIwMTcgKFdpbmRvd3MpPC9zdEV2dDpzb2Z0d2FyZUFnZW50PgogICAgICAgICAgICAgICA8L3JkZjpsaT4KICAgICAgICAgICAgICAgPHJkZjpsaSByZGY6cGFyc2VUeXBlPSJSZXNvdXJjZSI+CiAgICAgICAgICAgICAgICAgIDxzdEV2dDphY3Rpb24+c2F2ZWQ8L3N0RXZ0OmFjdGlvbj4KICAgICAgICAgICAgICAgICAgPHN0RXZ0Omluc3RhbmNlSUQ+eG1wLmlpZDo4NjlmMWRiOC0zODJkLWUzNDgtYTI0OC1hNzExYTVlYjc3NmQ8L3N0RXZ0Omluc3RhbmNlSUQ+CiAgICAgICAgICAgICAgICAgIDxzdEV2dDp3aGVuPjIwMTctMDktMTJUMTc6MTQ6NDUrMDI6MDA8L3N0RXZ0OndoZW4+CiAgICAgICAgICAgICAgICAgIDxzdEV2dDpzb2Z0d2FyZUFnZW50PkFkb2JlIFBob3Rvc2hvcCBDQyAyMDE3IChXaW5kb3dzKTwvc3RFdnQ6c29mdHdhcmVBZ2VudD4KICAgICAgICAgICAgICAgICAgPHN0RXZ0OmNoYW5nZWQ+Lzwvc3RFdnQ6Y2hhbmdlZD4KICAgICAgICAgICAgICAgPC9yZGY6bGk+CiAgICAgICAgICAgIDwvcmRmOlNlcT4KICAgICAgICAgPC94bXBNTTpIaXN0b3J5PgogICAgICAgICA8dGlmZjpPcmllbnRhdGlvbj4xPC90aWZmOk9yaWVudGF0aW9uPgogICAgICAgICA8dGlmZjpYUmVzb2x1dGlvbj43MjAwMDAvMTAwMDA8L3RpZmY6WFJlc29sdXRpb24+CiAgICAgICAgIDx0aWZmOllSZXNvbHV0aW9uPjcyMDAwMC8xMDAwMDwvdGlmZjpZUmVzb2x1dGlvbj4KICAgICAgICAgPHRpZmY6UmVzb2x1dGlvblVuaXQ+MjwvdGlmZjpSZXNvbHV0aW9uVW5pdD4KICAgICAgICAgPGV4aWY6Q29sb3JTcGFjZT42NTUzNTwvZXhpZjpDb2xvclNwYWNlPgogICAgICAgICA8ZXhpZjpQaXhlbFhEaW1lbnNpb24+NjAwPC9leGlmOlBpeGVsWERpbWVuc2lvbj4KICAgICAgICAgPGV4aWY6UGl4ZWxZRGltZW5zaW9uPjMwMDwvZXhpZjpQaXhlbFlEaW1lbnNpb24+CiAgICAgIDwvcmRmOkRlc2NyaXB0aW9uPgogICA8L3JkZjpSREY+CjwveDp4bXBtZXRhPgogICAgICAgICAgICAgICAgICAgICAgICAgICAgICAgICAgICAgICAgICAgICAgICAgICAgICAgICAgICAgICAgICAgICAgICAgICAgICAgICAgICAgICAgICAgICAgICAgICAgCiAgICAgICAgICAgICAgICAgICAgICAgICAgICAgICAgICAgICAgICAgICAgICAgICAgICAgICAgICAgICAgICAgICAgICAgICAgICAgICAgICAgICAgICAgICAgICAgICAgICAKICAgICAgICAgICAgICAgICAgICAgICAgICAgICAgICAgICAgICAgICAgICAgICAgICAgICAgICAgICAgICAgICAgICAgICAgICAgICAgICAgICAgICAgICAgICAgICAgICAgIAogICAgICAgICAgICAgICAgICAgICAgICAgICAgICAgICAgICAgICAgICAgICAgICAgICAgICAgICAgICAgICAgICAgICAgICAgICAgICAgICAgICAgICAgICAgICAgICAgICAgCiAgICAgICAgICAgICAgICAgICAgICAgICAgICAgICAgICAgICAgICAgICAgICAgICAgICAgICAgICAgICAgICAgICAgICAgICAgICAgICAgICAgICAgICAgICAgICAgICAgICAKICAgICAgICAgICAgICAgICAgICAgICAgICAgICAgICAgICAgICAgICAgICAgICAgICAgICAgICAgICAgICAgICAgICAgICAgICAgICAgICAgICAgICAgICAgICAgICAgICAgIAogICAgICAgICAgICAgICAgICAgICAgICAgICAgICAgICAgICAgICAgICAgICAgICAgICAgICAgICAgICAgICAgICAgICAgICAgICAgICAgICAgICAgICAgICAgICAgICAgICAgCiAgICAgICAgICAgICAgICAgICAgICAgICAgICAgICAgICAgICAgICAgICAgICAgICAgICAgICAgICAgICAgICAgICAgICAgICAgICAgICAgICAgICAgICAgICAgICAgICAgICAKICAgICAgICAgICAgICAgICAgICAgICAgICAgICAgICAgICAgICAgICAgICAgICAgICAgICAgICAgICAgICAgICAgICAgICAgICAgICAgICAgICAgICAgICAgICAgICAgICAgIAogICAgICAgICAgICAgICAgICAgICAgICAgICAgICAgICAgICAgICAgICAgICAgICAgICAgICAgICAgICAgICAgICAgICAgICAgICAgICAgICAgICAgICAgICAgICAgICAgICAgCiAgICAgICAgICAgICAgICAgICAgICAgICAgICAgICAgICAgICAgICAgICAgICAgICAgICAgICAgICAgICAgICAgICAgICAgICAgICAgICAgICAgICAgICAgICAgICAgICAgICAKICAgICAgICAgICAgICAgICAgICAgICAgICAgICAgICAgICAgICAgICAgICAgICAgICAgICAgICAgICAgICAgICAgICAgICAgICAgICAgICAgICAgICAgICAgICAgICAgICAgIAogICAgICAgICAgICAgICAgICAgICAgICAgICAgICAgICAgICAgICAgICAgICAgICAgICAgICAgICAgICAgICAgICAgICAgICAgICAgICAgICAgICAgICAgICAgICAgICAgICAgCiAgICAgICAgICAgICAgICAgICAgICAgICAgICAgICAgICAgICAgICAgICAgICAgICAgICAgICAgICAgICAgICAgICAgICAgICAgICAgICAgICAgICAgICAgICAgICAgICAgICAKICAgICAgICAgICAgICAgICAgICAgICAgICAgICAgICAgICAgICAgICAgICAgICAgICAgICAgICAgICAgICAgICAgICAgICAgICAgICAgICAgICAgICAgICAgICAgICAgICAgIAogICAgICAgICAgICAgICAgICAgICAgICAgICAgICAgICAgICAgICAgICAgICAgICAgICAgICAgICAgICAgICAgICAgICAgICAgICAgICAgICAgICAgICAgICAgICAgICAgICAgCiAgICAgICAgICAgICAgICAgICAgICAgICAgICAgICAgICAgICAgICAgICAgICAgICAgICAgICAgICAgICAgICAgICAgICAgICAgICAgICAgICAgICAgICAgICAgICAgICAgICAKICAgICAgICAgICAgICAgICAgICAgICAgICAgICAgICAgICAgICAgICAgICAgICAgICAgICAgICAgICAgICAgICAgICAgICAgICAgICAgICAgICAgICAgICAgICAgICAgICAgIAogICAgICAgICAgICAgICAgICAgICAgICAgICAgICAgICAgICAgICAgICAgICAgICAgICAgICAgICAgICAgICAgICAgICAgICAgICAgICAgICAgICAgICAgICAgICAgICAgICAgCiAgICAgICAgICAgICAgICAgICAgICAgICAgICAgICAgICAgICAgICAgICAgICAgICAgICAgICAgICAgICAgICAgICAgICAgICAgICAgICAgICAgICAgICAgICAgICAgICAgICAKICAgICAgICAgICAgICAgICAgICAgICAgICAgICAgICAgICAgICAgICAgICAgICAgICAgICAgICAgICAgICAgICAgICAgICAgICAgICAgICAgICAgICAgICAgICAgICAgICAgIAogICAgICAgICAgICAgICAgICAgICAgICAgICAgICAgICAgICAgICAgICAgICAgICAgICAgICAgICAgICAgICAgICAgICAgICAgICAgICAgICAgICAgICAgICAgICAgICAgICAgCiAgICAgICAgICAgICAgICAgICAgICAgICAgICAgICAgICAgICAgICAgICAgICAgICAgICAgICAgICAgICAgICAgICAgICAgICAgICAgICAgICAgICAgICAgICAgICAgICAgICAKICAgICAgICAgICAgICAgICAgICAgICAgICAgICAgICAgICAgICAgICAgICAgICAgICAgICAgICAgICAgICAgICAgICAgICAgICAgICAgICAgICAgICAgICAgICAgICAgICAgIAogICAgICAgICAgICAgICAgICAgICAgICAgICAgICAgICAgICAgICAgICAgICAgICAgICAgICAgICAgICAgICAgICAgICAgICAgICAgICAgICAgICAgICAgICAgICAgICAgICAgCiAgICAgICAgICAgICAgICAgICAgICAgICAgICAgICAgICAgICAgICAgICAgICAgICAgICAgICAgICAgICAgICAgICAgICAgICAgICAgICAgICAgICAgICAgICAgICAgICAgICAKICAgICAgICAgICAgICAgICAgICAgICAgICAgICAgICAgICAgICAgICAgICAgICAgICAgICAgICAgICAgICAgICAgICAgICAgICAgICAgICAgICAgICAgICAgICAgICAgICAgIAogICAgICAgICAgICAgICAgICAgICAgICAgICAgICAgICAgICAgICAgICAgICAgICAgICAgICAgICAgICAgICAgICAgICAgICAgICAgICAgICAgICAgICAgICAgICAgICAgICAgCiAgICAgICAgICAgICAgICAgICAgICAgICAgICAgICAgICAgICAgICAgICAgICAgICAgICAgICAgICAgICAgICAgICAgICAgICAgICAgICAgICAgICAgICAgICAgICAgICAgICAKICAgICAgICAgICAgICAgICAgICAgICAgICAgICAgICAgICAgICAgICAgICAgICAgICAgICAgICAgICAgICAgICAgICAgICAgICAgICAgICAgICAgICAgICAgICAgICAgICAgIAogICAgICAgICAgICAgICAgICAgICAgICAgICAgICAgICAgICAgICAgICAgICAgICAgICAgICAgICAgICAgICAgICAgICAgICAgICAgICAgICAgICAgICAgICAgICAgICAgICAgCiAgICAgICAgICAgICAgICAgICAgICAgICAgICAgICAgICAgICAgICAgICAgICAgICAgICAgICAgICAgICAgICAgICAgICAgICAgICAgICAgICAgICAgICAgICAgICAgICAgICAKICAgICAgICAgICAgICAgICAgICAgICAgICAgICAgICAgICAgICAgICAgICAgICAgICAgICAgICAgICAgICAgICAgICAgICAgICAgICAgICAgICAgICAgICAgICAgICAgICAgIAogICAgICAgICAgICAgICAgICAgICAgICAgICAgICAgICAgICAgICAgICAgICAgICAgICAgICAgICAgICAgICAgICAgICAgICAgICAgICAgICAgICAgICAgICAgICAgICAgICAgCiAgICAgICAgICAgICAgICAgICAgICAgICAgICAgICAgICAgICAgICAgICAgICAgICAgICAgICAgICAgICAgICAgICAgICAgICAgICAgICAgICAgICAgICAgICAgICAgICAgICAKICAgICAgICAgICAgICAgICAgICAgICAgICAgICAgICAgICAgICAgICAgICAgICAgICAgICAgICAgICAgICAgICAgICAgICAgICAgICAgICAgICAgICAgICAgICAgICAgICAgIAogICAgICAgICAgICAgICAgICAgICAgICAgICAgICAgICAgICAgICAgICAgICAgICAgICAgICAgICAgICAgICAgICAgICAgICAgICAgICAgICAgICAgICAgICAgICAgICAgICAgCiAgICAgICAgICAgICAgICAgICAgICAgICAgICAgICAgICAgICAgICAgICAgICAgICAgICAgICAgICAgICAgICAgICAgICAgICAgICAgICAgICAgICAgICAgICAgICAgICAgICAKICAgICAgICAgICAgICAgICAgICAgICAgICAgICAgICAgICAgICAgICAgICAgICAgICAgICAgICAgICAgICAgICAgICAgICAgICAgICAgICAgICAgICAgICAgICAgICAgICAgIAogICAgICAgICAgICAgICAgICAgICAgICAgICAgICAgICAgICAgICAgICAgICAgICAgICAgICAgICAgICAgICAgICAgICAgICAgICAgICAgICAgICAgICAgICAgICAgICAgICAgCiAgICAgICAgICAgICAgICAgICAgICAgICAgICAgICAgICAgICAgICAgICAgICAgICAgICAgICAgICAgICAgICAgICAgICAgICAgICAgICAgICAgICAgICAgICAgICAgICAgICAKICAgICAgICAgICAgICAgICAgICAgICAgICAgICAgICAgICAgICAgICAgICAgICAgICAgICAgICAgICAgICAgICAgICAgICAgICAgICAgICAgICAgICAgICAgICAgICAgICAgIAogICAgICAgICAgICAgICAgICAgICAgICAgICAgICAgICAgICAgICAgICAgICAgICAgICAgICAgICAgICAgICAgICAgICAgICAgICAgICAgICAgICAgICAgICAgICAgICAgICAgCiAgICAgICAgICAgICAgICAgICAgICAgICAgICAgICAgICAgICAgICAgICAgICAgICAgICAgICAgICAgICAgICAgICAgICAgICAgICAgICAgICAgICAgICAgICAgICAgICAgICAKICAgICAgICAgICAgICAgICAgICAgICAgICAgICAgICAgICAgICAgICAgICAgICAgICAgICAgICAgICAgICAgICAgICAgICAgICAgICAgICAgICAgICAgICAgICAgICAgICAgIAogICAgICAgICAgICAgICAgICAgICAgICAgICAgICAgICAgICAgICAgICAgICAgICAgICAgICAgICAgICAgICAgICAgICAgICAgICAgICAgICAgICAgICAgICAgICAgICAgICAgCiAgICAgICAgICAgICAgICAgICAgICAgICAgICAgICAgICAgICAgICAgICAgICAgICAgICAgICAgICAgICAgICAgICAgICAgICAgICAgICAgICAgICAgICAgICAgICAgICAgICAKICAgICAgICAgICAgICAgICAgICAgICAgICAgICAgICAgICAgICAgICAgICAgICAgICAgICAgICAgICAgICAgICAgICAgICAgICAgICAgICAgICAgICAgICAgICAgICAgICAgIAogICAgICAgICAgICAgICAgICAgICAgICAgICAgICAgICAgICAgICAgICAgICAgICAgICAgICAgICAgICAgICAgICAgICAgICAgICAgICAgICAgICAgICAgICAgICAgICAgICAgCiAgICAgICAgICAgICAgICAgICAgICAgICAgICAgICAgICAgICAgICAgICAgICAgICAgICAgICAgICAgICAgICAgICAgICAgICAgICAgICAgICAgICAgICAgICAgICAgICAgICAKICAgICAgICAgICAgICAgICAgICAgICAgICAgICAgICAgICAgICAgICAgICAgICAgICAgICAgICAgICAgICAgICAgICAgICAgICAgICAgICAgICAgICAgICAgICAgICAgICAgIAogICAgICAgICAgICAgICAgICAgICAgICAgICAgICAgICAgICAgICAgICAgICAgICAgICAgICAgICAgICAgICAgICAgICAgICAgICAgICAgICAgICAgICAgICAgICAgICAgICAgCiAgICAgICAgICAgICAgICAgICAgICAgICAgICAgICAgICAgICAgICAgICAgICAgICAgICAgICAgICAgICAgICAgICAgICAgICAgICAgICAgICAgICAgICAgICAgICAgICAgICAKICAgICAgICAgICAgICAgICAgICAgICAgICAgICAgICAgICAgICAgICAgICAgICAgICAgICAgICAgICAgICAgICAgICAgICAgICAgICAgICAgICAgICAgICAgICAgICAgICAgIAogICAgICAgICAgICAgICAgICAgICAgICAgICAgICAgICAgICAgICAgICAgICAgICAgICAgICAgICAgICAgICAgICAgICAgICAgICAgICAgICAgICAgICAgICAgICAgICAgICAgCiAgICAgICAgICAgICAgICAgICAgICAgICAgICAgICAgICAgICAgICAgICAgICAgICAgICAgICAgICAgICAgICAgICAgICAgICAgICAgICAgICAgICAgICAgICAgICAgICAgICAKICAgICAgICAgICAgICAgICAgICAgICAgICAgICAgICAgICAgICAgICAgICAgICAgICAgICAgICAgICAgICAgICAgICAgICAgICAgICAgICAgICAgICAgICAgICAgICAgICAgIAogICAgICAgICAgICAgICAgICAgICAgICAgICAgICAgICAgICAgICAgICAgICAgICAgICAgICAgICAgICAgICAgICAgICAgICAgICAgICAgICAgICAgICAgICAgICAgICAgICAgCiAgICAgICAgICAgICAgICAgICAgICAgICAgICAgICAgICAgICAgICAgICAgICAgICAgICAgICAgICAgICAgICAgICAgICAgICAgICAgICAgICAgICAgICAgICAgICAgICAgICAKICAgICAgICAgICAgICAgICAgICAgICAgICAgICAgICAgICAgICAgICAgICAgICAgICAgICAgICAgICAgICAgICAgICAgICAgICAgICAgICAgICAgICAgICAgICAgICAgICAgIAogICAgICAgICAgICAgICAgICAgICAgICAgICAgICAgICAgICAgICAgICAgICAgICAgICAgICAgICAgICAgICAgICAgICAgICAgICAgICAgICAgICAgICAgICAgICAgICAgICAgCiAgICAgICAgICAgICAgICAgICAgICAgICAgICAgICAgICAgICAgICAgICAgICAgICAgICAgICAgICAgICAgICAgICAgICAgICAgICAgICAgICAgICAgICAgICAgICAgICAgICAKICAgICAgICAgICAgICAgICAgICAgICAgICAgICAgICAgICAgICAgICAgICAgICAgICAgICAgICAgICAgICAgICAgICAgICAgICAgICAgICAgICAgICAgICAgICAgICAgICAgIAogICAgICAgICAgICAgICAgICAgICAgICAgICAgICAgICAgICAgICAgICAgICAgICAgICAgICAgICAgICAgICAgICAgICAgICAgICAgICAgICAgICAgICAgICAgICAgICAgICAgCiAgICAgICAgICAgICAgICAgICAgICAgICAgICAgICAgICAgICAgICAgICAgICAgICAgICAgICAgICAgICAgICAgICAgICAgICAgICAgICAgICAgICAgICAgICAgICAgICAgICAKICAgICAgICAgICAgICAgICAgICAgICAgICAgICAgICAgICAgICAgICAgICAgICAgICAgICAgICAgICAgICAgICAgICAgICAgICAgICAgICAgICAgICAgICAgICAgICAgICAgIAogICAgICAgICAgICAgICAgICAgICAgICAgICAgICAgICAgICAgICAgICAgICAgICAgICAgICAgICAgICAgICAgICAgICAgICAgICAgICAgICAgICAgICAgICAgICAgICAgICAgCiAgICAgICAgICAgICAgICAgICAgICAgICAgICAgICAgICAgICAgICAgICAgICAgICAgICAgICAgICAgICAgICAgICAgICAgICAgICAgICAgICAgICAgICAgICAgICAgICAgICAKICAgICAgICAgICAgICAgICAgICAgICAgICAgICAgICAgICAgICAgICAgICAgICAgICAgICAgICAgICAgICAgICAgICAgICAgICAgICAgICAgICAgICAgICAgICAgICAgICAgIAogICAgICAgICAgICAgICAgICAgICAgICAgICAgICAgICAgICAgICAgICAgICAgICAgICAgICAgICAgICAgICAgICAgICAgICAgICAgICAgICAgICAgICAgICAgICAgICAgICAgCiAgICAgICAgICAgICAgICAgICAgICAgICAgICAgICAgICAgICAgICAgICAgICAgICAgICAgICAgICAgICAgICAgICAgICAgICAgICAgICAgICAgICAgICAgICAgICAgICAgICAKICAgICAgICAgICAgICAgICAgICAgICAgICAgICAgICAgICAgICAgICAgICAgICAgICAgICAgICAgICAgICAgICAgICAgICAgICAgICAgICAgICAgICAgICAgICAgICAgICAgIAogICAgICAgICAgICAgICAgICAgICAgICAgICAgICAgICAgICAgICAgICAgICAgICAgICAgICAgICAgICAgICAgICAgICAgICAgICAgICAgICAgICAgICAgICAgICAgICAgICAgCiAgICAgICAgICAgICAgICAgICAgICAgICAgICAgICAgICAgICAgICAgICAgICAgICAgICAgICAgICAgICAgICAgICAgICAgICAgICAgICAgICAgICAgICAgICAgICAgICAgICAKICAgICAgICAgICAgICAgICAgICAgICAgICAgICAgICAgICAgICAgICAgICAgICAgICAgICAgICAgICAgICAgICAgICAgICAgICAgICAgICAgICAgICAgICAgICAgICAgICAgIAogICAgICAgICAgICAgICAgICAgICAgICAgICAgICAgICAgICAgICAgICAgICAgICAgICAgICAgICAgICAgICAgICAgICAgICAgICAgICAgICAgICAgICAgICAgICAgICAgICAgCiAgICAgICAgICAgICAgICAgICAgICAgICAgICAgICAgICAgICAgICAgICAgICAgICAgICAgICAgICAgICAgICAgICAgICAgICAgICAgICAgICAgICAgICAgICAgICAgICAgICAKICAgICAgICAgICAgICAgICAgICAgICAgICAgICAgICAgICAgICAgICAgICAgICAgICAgICAgICAgICAgICAgICAgICAgICAgICAgICAgICAgICAgICAgICAgICAgICAgICAgIAogICAgICAgICAgICAgICAgICAgICAgICAgICAgICAgICAgICAgICAgICAgICAgICAgICAgICAgICAgICAgICAgICAgICAgICAgICAgICAgICAgICAgICAgICAgICAgICAgICAgCiAgICAgICAgICAgICAgICAgICAgICAgICAgICAgICAgICAgICAgICAgICAgICAgICAgICAgICAgICAgICAgICAgICAgICAgICAgICAgICAgICAgICAgICAgICAgICAgICAgICAKICAgICAgICAgICAgICAgICAgICAgICAgICAgICAgICAgICAgICAgICAgICAgICAgICAgICAgICAgICAgICAgICAgICAgICAgICAgICAgICAgICAgICAgICAgICAgICAgICAgIAogICAgICAgICAgICAgICAgICAgICAgICAgICAgICAgICAgICAgICAgICAgICAgICAgICAgICAgICAgICAgICAgICAgICAgICAgICAgICAgICAgICAgICAgICAgICAgICAgICAgCiAgICAgICAgICAgICAgICAgICAgICAgICAgICAgICAgICAgICAgICAgICAgICAgICAgICAgICAgICAgICAgICAgICAgICAgICAgICAgICAgICAgICAgICAgICAgICAgICAgICAKICAgICAgICAgICAgICAgICAgICAgICAgICAgICAgICAgICAgICAgICAgICAgICAgICAgICAgICAgICAgICAgICAgICAgICAgICAgICAgICAgICAgICAgICAgICAgICAgICAgIAogICAgICAgICAgICAgICAgICAgICAgICAgICAgICAgICAgICAgICAgICAgICAgICAgICAgICAgICAgICAgICAgICAgICAgICAgICAgICAgICAgICAgICAgICAgICAgICAgICAgCiAgICAgICAgICAgICAgICAgICAgICAgICAgICAgICAgICAgICAgICAgICAgICAgICAgICAgICAgICAgICAgICAgICAgICAgICAgICAgICAgICAgICAgICAgICAgICAgICAgICAKICAgICAgICAgICAgICAgICAgICAgICAgICAgICAgICAgICAgICAgICAgICAgICAgICAgICAgICAgICAgICAgICAgICAgICAgICAgICAgICAgICAgICAgICAgICAgICAgICAgIAogICAgICAgICAgICAgICAgICAgICAgICAgICAgICAgICAgICAgICAgICAgICAgICAgICAgICAgICAgICAgICAgICAgICAgICAgICAgICAgICAgICAgICAgICAgICAgICAgICAgCiAgICAgICAgICAgICAgICAgICAgICAgICAgICAgICAgICAgICAgICAgICAgICAgICAgICAgICAgICAgICAgICAgICAgICAgICAgICAgICAgICAgICAgICAgICAgICAgICAgICAKICAgICAgICAgICAgICAgICAgICAgICAgICAgICAgICAgICAgICAgICAgICAgICAgICAgICAgICAgICAgICAgICAgICAgICAgICAgICAgICAgICAgICAgICAgICAgICAgICAgIAogICAgICAgICAgICAgICAgICAgICAgICAgICAgICAgICAgICAgICAgICAgICAgICAgICAgICAgICAgICAgICAgICAgICAgICAgICAgICAgICAgICAgICAgICAgICAgICAgICAgCiAgICAgICAgICAgICAgICAgICAgICAgICAgICAgICAgICAgICAgICAgICAgICAgICAgICAgICAgICAgICAgICAgICAgICAgICAgICAgICAgICAgICAgICAgICAgICAgICAgICAKICAgICAgICAgICAgICAgICAgICAgICAgICAgICAgICAgICAgICAgICAgICAgICAgICAgICAgICAgICAgICAgICAgICAgICAgICAgICAgICAgICAgICAgICAgICAgICAgICAgIAogICAgICAgICAgICAgICAgICAgICAgICAgICAgICAgICAgICAgICAgICAgICAgICAgICAgICAgICAgICAgICAgICAgICAgICAgICAgICAgICAgICAgICAgICAgICAgICAgICAgCiAgICAgICAgICAgICAgICAgICAgICAgICAgICAgICAgICAgICAgICAgICAgICAgICAgICAgICAgICAgICAgICAgICAgICAgICAgICAgICAgICAgICAgICAgICAgICAgICAgICAKICAgICAgICAgICAgICAgICAgICAgICAgICAgICAgICAgICAgICAgICAgICAgICAgICAgICAgICAgICAgICAgICAgICAgICAgICAgICAgICAgICAgICAgICAgICAgICAgICAgIAogICAgICAgICAgICAgICAgICAgICAgICAgICAgICAgICAgICAgICAgICAgICAgICAgICAgICAgICAgICAgICAgICAgICAgICAgICAgICAgICAgICAgICAgICAgICAgICAgICAgCiAgICAgICAgICAgICAgICAgICAgICAgICAgICAgICAgICAgICAgICAgICAgICAgICAgICAgICAgICAgICAgICAgICAgICAgICAgICAgICAgICAgICAgICAgICAgICAgICAgICAKICAgICAgICAgICAgICAgICAgICAgICAgICAgICAgICAgICAgICAgICAgICAgICAgICAgICAgICAgICAgICAgICAgICAgICAgICAgICAgICAgICAgICAgICAgICAgICAgICAgIAogICAgICAgICAgICAgICAgICAgICAgICAgICAgICAgICAgICAgICAgICAgICAgICAgICAgICAgICAgICAgICAgICAgICAgICAgICAgICAgICAgICAgICAgICAgICAgICAgICAgCiAgICAgICAgICAgICAgICAgICAgICAgICAgICAgICAgICAgICAgICAgICAgICAgICAgICAgICAgICAgICAgICAgICAgICAgICAgICAgICAgICAgICAgICAgICAgICAgICAgICAKICAgICAgICAgICAgICAgICAgICAgICAgICAgICAgICAgICAgICAgICAgICAgICAgICAgICAgICAgICAgICAgICAgICAgICAgICAgICAgICAgICAgICAgICAgICAgICAgICAgIAogICAgICAgICAgICAgICAgICAgICAgICAgICAgICAgICAgICAgICAgICAgICAgICAgICAgICAgICAgICAgICAgICAgICAgICAgICAgICAgICAgICAgICAgICAgICAgICAgICAgCiAgICAgICAgICAgICAgICAgICAgICAgICAgICAgICAgICAgICAgICAgICAgICAgICAgICAgICAgICAgICAgICAgICAgICAgICAgICAgICAgICAgICAgICAgICAgICAgICAgICAKICAgICAgICAgICAgICAgICAgICAgICAgICAgICAgICAgICAgICAgICAgICAgICAgICAgICAgICAgICAgICAgICAgICAgICAgICAgICAgICAgICAgICAgICAgICAgICAgICAgIAogICAgICAgICAgICAgICAgICAgICAgICAgICAgICAgICAgICAgICAgICAgICAgICAgICAgICAgICAgICAgICAgICAgICAgICAgICAgICAgICAgICAgICAgICAgICAgICAgICAgCiAgICAgICAgICAgICAgICAgICAgICAgICAgICAgICAgICAgICAgICAgICAgICAgICAgICAgICAgICAgICAgICAgICAgICAgICAgICAgICAgICAgICAgICAgICAgICAgICAgICAKICAgICAgICAgICAgICAgICAgICAgICAgICAgICAgICAgICAgICAgICAgICAgICAgICAgICAgICAgICAgICAgICAgICAgICAgICAgICAgICAgICAgICAgICAgICAgICAgICAgIAogICAgICAgICAgICAgICAgICAgICAgICAgICAgICAgICAgICAgICAgICAgICAgICAgICAgICAgICAgICAgICAgICAgICAgICAgICAgICAgICAgICAgICAgICAgICAgICAgICAgCiAgICAgICAgICAgICAgICAgICAgICAgICAgICAgICAgICAgICAgICAgICAgICAgICAgICAgICAgICAgICAgICAgICAgICAgICAgICAgICAgICAgICAgICAgICAgICAgICAgICAKICAgICAgICAgICAgICAgICAgICAgICAgICAgICAgICAgICAgICAgICAgICAgICAgICAgICAgICAgICAgICAgICAgICAgICAgICAgICAgICAgICAgICAgICAgICAgICAgICAgIAogICAgICAgICAgICAgICAgICAgICAgICAgICAgICAgICAgICAgICAgICAgICAgICAgICAgICAgICAgICAgICAgICAgICAgICAgICAgICAgICAgICAgICAgICAgICAgICAgICAgCiAgICAgICAgICAgICAgICAgICAgICAgICAgICAgICAgICAgICAgICAgICAgICAgICAgICAgICAgICAgICAgICAgICAgICAgICAgICAgICAgICAgICAgICAgICAgICAgICAgICAKICAgICAgICAgICAgICAgICAgICAgICAgICAgICAgICAgICAgICAgICAgICAgICAgICAgICAgICAgICAgICAgICAgICAgICAgICAgICAgICAgICAgICAgICAgICAgICAgICAgIAogICAgICAgICAgICAgICAgICAgICAgICAgICAgICAgICAgICAgICAgICAgICAgICAgICAgICAgICAgICAgICAgICAgICAgICAgICAgICAgICAgICAgICAgICAgICAgICAgICAgCiAgICAgICAgICAgICAgICAgICAgICAgICAgICAgICAgICAgICAgICAgICAgICAgICAgICAgICAgICAgICAgICAgICAgICAgICAgICAgICAgICAgICAgICAgICAgICAgICAgICAKICAgICAgICAgICAgICAgICAgICAgICAgICAgICAgICAgICAgICAgICAgICAgICAgICAgICAgICAgICAgICAgICAgICAgICAgICAgICAgICAgICAgICAgICAgICAgICAgICAgIAogICAgICAgICAgICAgICAgICAgICAgICAgICAgICAgICAgICAgICAgICAgICAgICAgICAgICAgICAgICAgICAgICAgICAgICAgICAgICAgICAgICAgICAgICAgICAgICAgICAgCiAgICAgICAgICAgICAgICAgICAgICAgICAgICAgICAgICAgICAgICAgICAgICAgICAgICAgICAgICAgICAgICAgICAgICAgICAgICAgICAgICAgICAgICAgICAgICAgICAgICAKICAgICAgICAgICAgICAgICAgICAgICAgICAgIAo8P3hwYWNrZXQgZW5kPSJ3Ij8+9+g21AAAACBjSFJNAAB6JQAAgIMAAPn/AACA6AAAUggAARVYAAA6lwAAF2/XWh+QAAAanklEQVR42uzd/3ETybo/4Jdv7f9nMjjaCFZEIBGAak0EawfgwkSAiQBRCsAmgjXlAJAiQCeC1clgTgTcP6bZr9cY8I/p+dXPU3WLW/cWYvWqpf5Md887z758+RIAALTn/ykBAICABQAgYAEACFgAAAhYAAACFgCAgAUAgIAFACBgAQAIWAAACFgAAAIWAICABQAgYAEAIGABAAhYAAACFgAAAhYAgIAFACBgAQAgYAEAdOsXJaAPz549U4QnOr1eLCNiHhFVRPyW/mT86oj4T/pzv1nttkryNF++fFEEup/nDDwErNEEqllEHEXE7xGxVJGibCPiY0RcbVa7g3IIWAhYIGA9LVRVKVS9ima1CvYR8T6FrVo5BCwELBCwHhaszlKwqlSEO9QpaK0FLQELAQsErJ+Hq3PBiocGrc1qd64UAhYCFgKWInwbrJYRcRERM9XgEQ4RceJQvICFgIWARfy9Hfgmmi1BeKp1RLy1bShgIWAhYJUcrubRrFrNVYMW7aNZzdorhYBFPzQahf7C1VFEfBKuyGAeEZ/SGAMELCgmXB1HxJ/hIDv5VBHxZxprgIAFRYSrC5WgIxdCFghYIFyBkAWj55A7/Qy8Ag+5pzYMn3z69Oh5iQffzXMIWAhY0w1XVUT8Fc5c0a86In4trYWDeY4+2CKEbjjQzhBUYYsaBCyYgnSr/FIlGIgj7RtAwIIpeKcEGJMgYAEtSQ9unqkEAzNLYxPIxCF3+hl4BRxyP71ezCLiczh7xTDV0dxVeJj6GzXP0QcrWJDPG+GKAavSGAUysIJFPwNv4itYel4xIi82q912ym/QPEcfrGBBHlYGMFZBwALakh5JslQJRmLpMTrQPluE9DPwJrpFmDq2fw53DjIuh2gOvNdTfHPmOfpgBQvadSZcMUKzNHaBlljBop+BN8EVLG0ZGLk6Jtq2wTxHH6xgQXu0ZWDMqnDgHVpjBYt+Bt7EVrC0ZWBCJte2wTxHH6xgQTtc+WMsAwIWtEVbBiZG2wZogS1C+hl4E9ki1JaBiTrEhNo2mOfogxUseJoz4YoJmoW2DfAkVrDoZ+BNYAVLWwYmro6JtG0wz9EHK1jweNoyMGVVOPAOj2YFi34G3shXsLRloCCjb9tgnqMPVrDgcVzZY6wDAha0RVsGCqNtAzyCLUL6GXgj3SLUloFCHWLEbRvMc/TBChY8zJlwRYFmoW0DPIgVLPoZeCNcwdKWgcLVMdK2DeY5+mAFC+5PWwZKVoUD73BvVrDoZ+CNbAVLWwb42+jaNpjn6IMVLLgfV+7guwD3ZgWLfgbeiFaw0i3qFz61zl1FxMeI2N4893N6vZhHxDwi/gjtMvpyslntLsfyH2ueQ8BCwBpeuKpCW4aubdMEfrjH57OMZkVF0OrWIUbUtsE8Rx9sEcKPnQlXnXq9We1e3PdOtc1qt92sdi8i4q3SdWoW2jbAjxcSJHt6GXgjWMHSlqFzT9p2spXbuTpG0rbBPEcfrGDB92nL0J3XTz3Tk/7+Wik7U4UD7/BdVrDoZ+ANfAVLW4ZOfd3ma+uz+yts63Zp8G0bzHP0wQoW3M2VeXfeDvz18F2BB7OCRT8Db8ArWM7ydGq/We2eZ/gMrWJ1a9BtG8xz9MEKFvxzYq5ckXfqQ6bXvVLaTr1J3x1AwII7nYWVjy7tM73uTmk7NQttG0DAgruktgyvVGISAatW2s69St8hQMCCf9CWoWNj6QTOvVRhex0ELLgptWU4Vgl4kuP0XQIBSwkgwpU3+C6BgAUtSm0ZXHVDO5bpOwUCFhQcripX3HGIiG36n4NR8WD7aNpCvI2Iy1TH0mnbQPF+UQIKdxZltmU4pEBwdfugeboT7CiaOypnhsid6oh4HxGXdz3sOIWLoxTeS6zhLH23zg0VSqWTO/0MvAF0ck9B4nOUd+fg681qt75njc4j4wrfZrV7lumzXUa+Z0luo+lcfhhCDQceQp/ft045mefogy1CSlZaW4ZDmvDW9/0Lm9XuPCKeh75SX11uVrsXDwkNqYYvCqxhFbbfEbCgLAW2ZdimcLV/6F9Mf+elURPbzWp38pi/uFntthHxa+RrrDpU2jYgYEFhSrqy/rrqUj/2BVJAeFvweKkj4uQpL5Dq/yKag/C+ayBgwbQU1pbh5LGrLndYR7lbhe/bOEu0We3q9HmsC6qdtg0IWFBAuKoKuqI+2ax2l229WFqBuSx06LT6vjer3et44orYyGjbgIAFE3cW079tvo6IF22Gqxs+Fjhm9jnuhEufTykha5a+eyBgwdSktgyvCglX2xwvnut1B+6Q64ULC1mv0ncQBCyYmKm3ZfgarvY+6lb9J+eLFxSyqnDgHQELpqWQtgzCVR7/yv0PFBSytG1AwIKJmfqV84lwlc28i3+koJBlFQsBC6aggLYMJ5kOtN9Vy2WBQ2je1T+UPsep9xvTtgEBCyYQrqqJXzGvuwpXye8FDqPq9Hpx1GHIOo/pt8PQtgEBC0buLKbbluEq9VPqMqweFzqOOr37NDUj3U+4nrPQtgEBC8Zp4m0Z9tH9eZ3SHo5907LLVaxk6g+I1rYBAQtGaqqBoI7m3FVnk286M3NW+Hi6OL1ezLv6x248u3CqqnDgHQELxmXibRk6vWMwhasLoyqqiPjUccjaR8TrCddU2wYELBiZqV4Zrzer3VWH4epcuPomZH0+vV6cdRiy1hFx5bsKAhb0asJtGQ7R0S38p9eL6vR68cnk913vTq8XXQbPk5jueSxtGxCwYAThqppwKHjZxbmrtAX2KabdO6wNx6fXi89dtBtIn/uUm5Bq24CABQN3FtNsy/C2i3NXN8LV3FC6l3l0dC4rbQ1fTbSOs3ATBQIWDNOE2zIcUvPJrsJVZTQNM2TFtLcKtW1AwIKBmmpbhuxbQ8LVk1VdhKy0Vfh6wjV05g8BC4Zkwm0Zrjar3Va4ErJuhKzLiNhOtIbaNiBgwcBM8cq3jsyrFcJVlpD1ZwcHtl/7LoOABVlNuC3D+81qdxCuRmcWzUpWtrqmGx4uJ1o/bRsQsGAA4aqK6a5erTPX7UK4ymYe+Ru0vo3pHnjXtgEBC3p2FtNty5Bz8rwIrRhyOzq9XrzL9eJpdfP9RGs3C20bELCgHxNvy7DOWLfziDgygrq5ADi9XuSs9Tq0bQABC1o21bYM2R6Hk+7Qcoi4Wxe5gkJa5ZzqKlZlrCJgQccm3Jahjkzdum+cu6L7oJCz7usJ107bBgQs6NhUr2zfZzx7dRHTPK82BsvT68VZjhdO4+XSdx0ELHiSCbdliMi0GpFWAY6Mnn6DQsYzRW8nXDdtGxCwoINwVU34ivYyx+qVrcHBqCIiy12F6Y7C7cTDaWUIIWBBPmcx3W2u92o2eUcZzxR9mHDdZqFtAwIW5DHhtgwREfvUnVvNpi/LamJ6RmE94bpp24CABZlMtS1DRL7VhynXbKxmGc8UXU64blU48I6ABe2acFuGbBNjuto/NnoGe7EwpqA+FNo2IGDBSCakIbjK1JrB1f5wZVnFStvMB78FIGDBT028LUNExMcMNZuF1atSg8LVxOumbQMCFrQQFKoCrlhzTIgmoOGbZXpO4YcCaqdtAwIWPNFZTLvFwD7T9qA7B8eh9c+pkG3CWWjbgIAFj1NIi4EPGep2HO4cHItlptYD2xLCqbYNCFjwOCW0GMgxEf5u6IzKcYbX/FhA3apw4B0BCx6mgLYMERF1281F07mUIyNoVP4YSXAfZDjVtgEBCx7mXQHvMcckKFyNz+z0ejFv8wXTub59IfV7ZwghYME9pDNE8wLe6i7Da9oeHCerWI8317YBAQt+Hq6qgq5I9xlqd2QUjVKOz21XUP3eaduAgAU/dhaF3AG3We22Lb/k0vAZrVmGO+L2BdWvCm0bELDgbmmCKeWuoByT38IoGrVWA/JmtTtERF1Q/d5o24CABXcr6bBqjoC1NIRGbTGSceY3BAQsxiLdan1U0Fv+b4bXnBtJo5YjIJcWsI60bUDAgrKvPFud+EwqkzDLcFD7f35LQMCiUAW1Zbipbvn15kbSJLT9OW5LrKG2DQhY0CjucRcZ7iD8t2EkYHUQ5P2mgIDFGKQrzZlKDG5iph+tBuW2H8U0IjOrWAhYlO5Vge95m+E1K0NJUKb43xYELIhIz18zoZiYyWtf6nei7Wc8goDFWBwpAfzDMsNr1n5jQMCiLKU+mLjVZ8S5Sge/MQhY8DUUVGFbqy2VEsCd5h4CjYBFcT98SgB3Xny0/d3Y+60BAYtyLJUA7lS1/Hr/K7yefmsQsCiKxpiA3xoELGjZTAkAvzUIWAAtcwckIGBBu5ZKQOQ7gDzm8VW3/Hr/8lsDAhZQlkWm1/1trAXJ8PzAuWEGAhbwcPWI/9uP2u5TdHq9mIUO3oCABcVpddUmw4pHl6qIOGv5Nd8YYoCABZTuVVuH3U+vF8uIOB5xLbaZQiwgYAGPsB/xf3sVERdP3SpMf/9PQ+EbcyUAAYtybAt+78sMr1lPIAR8emzISitgn2L8qzX7wG8NAhYwGLsJvId5RPyVtvkeEq6OUriaT6AG/23zxfQZAwGL8hxKfvMZJr6p1LOKZiXrUwpOPwxWp9eLT9FsC1YTef/7DPUs3V4J6MMvSsAUrtRHGiRMIt+3jIjl6fWiTu/t6wrdv6JZqZpPNDy0/TnOg/8pAX2wgkVftoW//2WbLzbyVg0/C6LLaFovvImmpcNyouHqsFnt6pZf04OO/dYgYFGYfeHvP8fEZyIRBG6bK6stQgQsCpKu1Ev+4csx8e2MrFHbjWScjSpcZVgVBAGLwfsoYLVqa0iNWqufX3pkUOU3BgQsynNV8pt/aDuCn9msdtsYfz+sUh02q91hBCHebwwIWAxdOpi9L7gEOSbArZElCCSLwmu6n/DNHwhY8FPvC37vOSZAWyLj9CHDay79toCARaE2q91llNt0NMcEeBW2Ccfm0PZKS3rk0Lzwml4aWghYlO5toe+7aruje7pj6sqQGpUcn9ey8Jq+NawQsCheutLcF/r2c0yEH4yqUcmxlVXy+au91SsELPj/Xhf6vn/PEFi3UfizHkdkm+HuwYiII78lIGDB11BwVeBbX6bzMm2zRTIOra9epW3nWaH1vEq/JSBgwa0rz7rA932UY6IJh92H7rBZ7XJcVCwLrWcdVq8QsOBbaaukxFurc2wT1uE29aHLtcr4R6H1fJ9puxUELCZhHeWdHzrKtE24DqtYQ5WljUDaHpyXWM803kHAgruklZcSzw8dZaqlVaxhsnrVcj091BkBC34eDC6jvEe+vMr0uuuwijU0OdsIHBVYz622DAhY0P8V/lDN2246msJqHQ7+Dk2Wz+P0enEUZd496I5ZBCx4QDDYRkRpV6WvMtXyMjwEeihythF4VWA9L7VlQMCCx12Z1gW931yH3SOsYg1BHREnOV749Hoxi/LaM9Rh9QoBCx6uwLYNVUScZarl3mTU/wVDxoPYbwqsp7YMCFjwBOsoq21Dtm2ezWp3HuU+87FvV5vVbp3jhdOq53Fh9TyEtgwIWPCkUFBHWSsv1en1IudkeRLuKuxaHZm2BpOzAmuqLQMCFrQQsi6jrEPabzLWch/OY3XtZa4wkFavSjvcri0DAha0ecVa0Hud5VzFSpOTCaobrzPf5XYWzdk9vwUwMM++fPmiCnQ/8J49e8zV+kWUc9akjohfc26DnF4vPkeZj1XpyuVmtTvJ+PnNIuJzYQHrUTU1z9EHK1iM7cq1LuS9VpH/bM2LcOg9l33k34p9U1i4qsPqFQIWtK/Atg2v0ipFrnrWEfEyHHrPEa5eZF59nEd5dw5qy4CABRmto5y2DVVEvOsgtL4QssYTrpJ3hdX1ENoyIGBB1kBQR1nbBEen14tl5pruhazxhKt0A8SysNpqy8DoOOROPwPvEYfcb00ynwqaZA4R8byDiXseEZ+ivLvSxhSuqoj4q7DPaLtZ7V485QXMc/TBChajvaIt6L3OooNHodxYydobXsMLV8lFaMsAAhZkDAPbKKuX01nurUIh61GuugpXp9eLo4g4Kqy+l5n7iEE2tgjpZ+A9cYswTTizKKsP0CE62Cq8Ud+S+o49xnqz2r3u6LOoorytwTqN98NTX8g8Rx+sYDFaBbZtmEWHd4+lho4nRtqdE//LrsJV8meUtzWoLQMCFvS5ihDltG2IiDjO/DDo2yHrMiKehy3Dr/bRrKpcdfUPnl4vzqO8uwYPoS0DI2eLkH4GXgtbhDcmoONoDv+Woo7m3E9noSdtUb2J/N3lh+ztZrU77/IfTOfuPhVY65M2H+hsnkPAQsB6/ERUUtuGr1f4z7vuDZQm/HdR1jMMt9E8tHnfca1nUd6zBiNaaMsgYDEEvygBU1ldKCxgzaI5l/Oiy3803dH1PG1bvZr45F+nYHXZ9T+cVgxLPHf19bsMo+cMFpNQYNuGiIhlutOvj3qfR8SvMc1zMnWa5H/tI1wlF1HWKuFX2jIwGbYI6WfgtbxFmK76Z1HmlsrrzWrXW9BJdX8T42/pUEdzV+q6z8eyFNweo46W2jLcZp5DwELAevrkdB4ddD0foJMeV1u+1r6K5hD82LYODylYXfb9vLuCx29ExpsIzHMIWAhY7Uzyn6M5oyRk9RcUjiPi9xh25/GriPjQZcuFe9TsotCfhENkvGnDPIeAhYBloppMyLoReI8GFLauIuJjRFz1vVplzHY3bs1zCFgIWO1NWKW1bRhsyLoVtpYRsUh/zjv4Z7fRNAfdDWWlSrj69jNquy2DgIWAhYCVb9JaRpkNGgcdsr7zOc0j4t/pz+qRwWsfzSHpXTTbTYcx3I0mXEVE0zQ362dlnkPAQsBqd/Iq/WHFowhZP/j8vgau7zmM+Vl1xmdENDcWZH/epXkOAQsBq90JbBZltm24ad3xQ4kRru6rjkxtGQQsBCwErPwT2XmUe9v736sE0fTKqo283oNVFc3W9Vw1unu2o3mOPujkztStozmTU7LjiPiUVvToL1zNo1lRFa6a7+RaGRCwYKTSqo1nmzWT+ud0qJzuw9VxNCtXQm7jrRVVps4WIf0MvI62CG9McCW3bbhrcjtXhk7GXRUR78J5q5uyt2W4zTxHH6xgUUyoUIK/vTm9Xny2ZZg9XM2jWbUSrnwXEbBgmlKfnUuV+Ns8mi3DM6XIEq7Ow3mru1yOoT8ZtMEWIf0MvI63CNOkNwttG+6yjaZn1kEpnjzG5tE0DhWsvlVHR20ZbjPP0QcrWBQj/bC/V4lvLKNZzTpXikcHq+r0evEurFr9yHshHgELpmsd2jbcpYrmbNZfp9eLI+V4ULg6joi/IuJMNb7rENoyUBhbhPQz8HrYIrw1IV74FH5oG83dhlul+O44WkZzh+BcNX6q18c2mecQsBCwupsctW0QtJ4SrN4YP/cfQ123ZRCwGIJflIBCvTVB3ssyIpan14vig1baOn1l3DzquwblLSRI9vQy8HpewUoTpgfuPtw+msPKl4WEqiqNkVehC/tjXG5Wu5O+/yPMcwhYCFjdTp6z0Lbhsepo+op92Kx2+wkGq3kKVUfGx5PGyPMh3DlonkPAQsDqfiI9j+Y8DY+3j4gPEXE15tvwU6j6I4WqmY/1yQbzSCbzHAIWAlb3k2oVzSqWCbW9sPUxha39CELVMiJ+F6pad4hm9aoWsBCwoMCAlSbZ49C2IYc6mrsQd9HcSbYfwGe9jKatwiKaw+qVjymLkyGd0zPPIWAhYPU38Wrb0I1tNKtc/01/7nOscqTzdbMUpn5L/7vPt6PPuO+2DAIWQ6BNAzS0bejG8nadT68XkcJWHc3W0n9v/L+//t9vq+KfDT7/nULU7f87/XyXwEKCZE8vA29gK1hpote2AZ5mEG0ZbjPP0QfPIoR/XnnXygCPUofVKxCw4LbUYuC9SsCjvB9zmw4QsCCvdTTngID7O6TvDiBgwbfSHW22OeBh3g6l5xUMhUPu9DPwBnjI/SZtG+DeBteW4TbzHH2wggXfuSJXAvBdAQELWrRZ7bbRPMwY+L7L9F0BBCx40JV5rQxwpzqsXoGABQ+lbQP8kLYMIGDBo61D2wa47RDaMoCABY+lbQPcSVsG+AltGuhn4A28TcNt2jbA3wbfluE28xx9sIIF97xiVwLwXQABC1qkbQNEhLYMIGBBpiv3WhkoVB1Wr0DAgrZp20DhtGUAAQuyWYe2DZTnENoygIAFuWjbQKG0ZYAH0qaBfgbeyNo03KZtAwUZXVuG28xz9MEKFjzyil4JMNYBAQtapG0DhdCWAQQs6OXKvlYGJqoOq1cgYEHXtG1g4rRlAAELerMObRuYnkNoywACFvRF2wYmSlsGeCJtGuhn4I28TcNt2jYwIaNvy3CbeY4+WMGClq74lQBjGRCwoEXaNjAR2jKAgAWDvPKvlYGRqsPqFQhYMDTaNjBy2jKAgAWDtQ5tGxifQ2jLAAIWDJW2DYyUtgzQMm0a6GfgTaxNw23aNjAik2vLcJt5jj5YwYJMKwJKgLEKAhbQIm0bGAltGUDAgtHRtoEhq8PqFQhYMDbaNjBw2jKAgAWjtQ5tGxieQ2jLAAIWjFW69f21SjAwr7VlgLy0aaCfgTfxNg23advAgFxtVruXJb1h8xx9sIIF3XgZDrzTvzoiTpQBBCyYhLQd81Il6NkLW4MgYMHUQtY2rB7Qn5PNardXBhCwYIoh61LIoqdwdakMIGCBkAXCFQhYwINDloPv5FRHxEvhCgQsKC1kXUXEi4jYqwYt20dzoP1KKUDAghJD1j6FrLVq0JJ1CleCO/RIo1H6GXiFNRq9j9PrxTIiLiJipho8wiGa81Zbpfgn8xwCFgIWcXq9OI+IVxFRqQb3UEfz4OZzpRCwELAQsBThxyGriogzQYufBauIWGseKmAhYIGA9fCgdZSC1lxFiOYA+/tonikoWAlYCFggYD0xbM1S2Po9PDi6NNuI+JhC1UE5BCwELBCw8gWuZTSrWlVE/Ba2Eqeijoj/pD/3Dq0LWAhYAACEPlgAAAIWAICABQAgYAEAIGABAAhYAAACFgAAAhYAgIAFACBgAQAgYAEACFgAAAIWAICABQCAgAUAIGABAAhYAAAIWAAAAhYAwCT93wAPvF1IbiALmwAAAABJRU5ErkJggg==;" vertex="1" parent="e9nx1dZjpdk4EGY3y0fY-41">
          <mxGeometry x="20" y="15" width="40" height="20" as="geometry" />
        </mxCell>
        <mxCell id="e9nx1dZjpdk4EGY3y0fY-42" value="" style="group" connectable="0" vertex="1" parent="e9nx1dZjpdk4EGY3y0fY-63">
          <mxGeometry x="250" y="35" width="130" height="50" as="geometry" />
        </mxCell>
        <mxCell id="e9nx1dZjpdk4EGY3y0fY-34" value="" style="shape=module;align=left;spacingLeft=20;align=center;verticalAlign=top;whiteSpace=wrap;html=1;" vertex="1" parent="e9nx1dZjpdk4EGY3y0fY-42">
          <mxGeometry width="130" height="50" as="geometry" />
        </mxCell>
        <mxCell id="e9nx1dZjpdk4EGY3y0fY-35" value="" style="shape=image;verticalLabelPosition=bottom;labelBackgroundColor=default;verticalAlign=top;aspect=fixed;imageAspect=0;image=data:image/png,iVBORw0KGgoAAAANSUhEUgAAAcIAAAC9CAYAAAAgG33lAAAAAXNSR0IArs4c6QAAAARnQU1BAACxjwv8YQUAAAAJcEhZcwAADsIAAA7CARUoSoAAAF+oSURBVHhe7Z0HYBzF1cffFRVXufdeKMadYowBUwwEMB1CQgghEEgjIaTwkQYJSQgJCfAlgUDykVASei+mN4MbNtjGuOHeuy3bsi3p2vf+b2ZO69M1SSfpJL2fvdrb2d3Z2dmd+e+b6osxpCiKoigtEB/jt78VRVEUpUWiQqgoiqK0aFQIFUVRlBaNCqGiKIrSolEhVBRFUVo0KoSKoihKi0aFUFEURWnRqBAqiqIoLRoVQkVRFKVFo0KoKIqitGhUCBVFUZQWjQqhoiiK0qJRIVQURVFaNCqEiqIoSotGhVBRFEVp0agQKoqiKC0aFUJFURSlRaNCqCiKorRoVAgVRVGUFo0KYYMQs4uiKIqSb6gQ1jexKP/xmSWmYqgoipJvqBDWKyx8Pj9F17xFsbKN/BuCqGKoKIqST6gQ1ifWAozt3UDhOXfJb9VBRVGU/EKFsAHw95tI0RUvUXTd+8YqlOJSRVEUJR9QIaxXUBTKf4s7UyxSSeF598m2c1cURVEaHxXC+sTpnT9Ivvb9xSKMblugVqGiKEoeoULYEEAI2/QkKt9B0TVvWketLFQURckHVAjrFWsS+vzkCxZRzBeg6IaZRKH97BbgHSqGiqIojY0KYb1ihQ6rWIRju4BipcspVr7TuqsQKoqiNDYqhA1BNESxAzvZCCxkEdxFsT1r7A5FURSlsVEhbAiilRTbt4lju5AotI+iKoSKoih5gwphfeJKRlEnGC6XukJpLRqpNDu0jlBRFKXRUSGsV4zQxXYspVjlXo7tALuo+CmKouQTKoT1ihG96NZPiCpK2SIMmnak0mJUfti1oiiK0lioENYrpuN8dMvHHNOF/DtMFCw2fQoFtQ4VRVEaGxXC+gJ1gZh5onQ5RTd9JAJIkRD5ijqQv+Nge5BahIqiKI2NCmE9E13xCtGB7UQBWIQhotbdiArbm50yLZOiKIrSmKgQ1gfoKM/WIPoMRpY8aYpFYf1FKsnf/UjytepsLEa1CBVFURodFcL6wA6oHVn8KMV2LSUKtmI3jCxTSP4eY2UfO9i1oiiK0pioEOYaiCC6SexZS5F59xMFiow76gdbdyV/v5PNtka9oihKXqC5cT0RnnMnxfauZyEslu1YeD/5+59iWoxK0akWiyqKouQDKoS5BN0jfH6KLH+RIov+S1SERjFsIcYi5Au2psChXzTHwU1RFEXJC1QIc4V0lwhSbNcyCk/7Fcds0O7gKA6xNdj3BPL3OtY4Yag1RVEUJS/QHDkX2D6DsYo9FHr7ejO7BIpE4S51hkEKjPwGrwvEOuSDzXmKoihKo6NCWFdEBFnYYjEKvfdjim6cSVRUwtthEUCq3Ev+IedRoP8ke6wbXk1RFEXJB1QI64K1BGHhhT74OUWXPm3qBaOoK2TBC5eTr013KjjmJ+Z4RVEUJe9QIawtzhJkQh/+ksLz/m5EEO6OaIiC424kX8ch7B6xoqkoiqLkE5oz1wZnCcZYBD/4BUXm3ks+EUHbSR5FohWl5B90FgWGfx0nGAtRURRFyTtUCGuKE8FoJYXevYFF8G9Ehe1E6+KCF9pPvg5DqeD4W+WUuEAqiqIoeYcKYU2Quj8/xfZvo8opV1Hks4eJijpYoYMIQiBDMsB2wcl/Il/7/uycyyJRFVRFUZRco0KYFSxAUYwVGqTY7pUsgldQdOXLRMUQQdQJQqBsl4jQPgqO/wX5+060wlnXIlH2O/EaiqIoSs5QIcwERAgWnz9A0XXvU+XzF1Fs8xwWwU5G6AQWKD8vlXsoMOZ7FBx1bfycWoFzYUmKALK/YlH6pJ8iO+IIRVEUJUf4Yoz9rSQixZpGzMKfPUjh6b+W+j8qaOMRQQaNYw5sp8DwK6ng1L9YR0RrTSw4iB/O4cVrRVbupciat2XcUn/vY8nf/Sh2rKnfiqIoSjJ8QIUwBU4EwwdMy1AWQplOKT46jAXHVO6mwJDzqeD0v5vZJlyDmmyQ6MfxVeIXO7CDolvnUXTZsxTdMpf8PY6iwMhryN91BPbyoiKoKIqSC1QIk8LRIUIWYCtsLYXeup6i696zA2izAElxJeDffhY7Fi0Mpi0iKCKZpQgmCiCLK0aliax+k6KrXqPotgVs/Y2R+sbAwC+YYxRFUZScokKYiIgYrC2f1AeG3vsJxXYtN41i0FhGrDHAx0DsYAlCBE+5m61FjC1aVZSaEiekVizRAjW65i2KLHlCrMBY2UZpbRo8+scUHHmVFVdcl5dsrUxFURQlK1QIvXgsufCn/6Tw9N8SRcqr1wdaoYyV75RGMQUn3SHbGUUwUQAxce/Spymy7DmK7VzK16qQukb/0Auo4Nifka/DIDkuK3FVFEVRaoUKocOJTeVeM1zawv+QDxZetfpAFjFYhtEKCoz5PhWM/zli0YhcKmstwZqL7VxCkUWPsgA+y9bfZqIAX4OF1lfCVuBRP6LA4V+W40yYcA6EV1EURakPVAiB9A8MUGz3Kgq9/QMpEpWiUKkr9EQNhBIWIjsVHP9rCqCLBEgrglX7YrtXU3jBvyiy5EmK7dtsh2Tj/ZFK8g+eTAUTbjEd8N11U/mpKIqi5IwWLoQQHFhdQYpunEGhN6+j2J7VZgolb1EokOmU9pCvTS8KnnQHBQaeYURM6gqTWGyyj4GYHdhO4c8eoshn/6bY3g2mqBWtTytKydeW/Rv3U7YCv2SOF1FWK1BRFKWhaMFC6G7ZR5Flz1Po3R+x0JURFSbUBzqhq2AR7D5G+gj6uxxhBTRFvZ1nH/wOz/4TxbYvNOKHBf5X7ib/gDOo4ITfmZkpQDrLUlEURakXWqYQegQnPPceCs/4Hf9isQsUGhGL40SQReuQi6lg4h/I1wqjycBqSyKCEo3wOyAz1MPfyPIXsYMFsLW5ZviArANHfp8KjmbxhWCqFagoitJotDwh9IhgaPqvKfLxX4gKIFIsSK44E+AYCFTkAAXGXm8bxbBbKqvN4x5Z8RKFP/wVxUpXEBWXsIsTVFO0WnDyH8k/8Ew5NqV/iqIoSoPQsoTQiU40TKGpP6XIgn8RFba1+zxRIILHIsjHB8ffTMHR32RH3o9jMohgeMZvKfzJX822KwZ19YvdxlLhpL+Sr9Ohxn85R61ARVGUxqQFCSFu0YgOOslH5v+DrbWORtzi9YUMxClayT8CVHDSH01XBhc9qRrF8DkxdLt490cUXfoki2t74w/2oQj1wC62AE+ngtPvI58bqBviqCiKojQ6LUcIrWCFpv2KIrDYIFZwSxRB29ClYOIdFDjsErONCTrSieD+rRR649sUWfMW+Vp1NkWq8BciiPrFweexJfgXO3mv8V9RFEXJD1qGEFrxCS/4N4Xf/aEdMxTu3tuG0PF2pIIKTr6TAsO+wpsQOrinEcF9m6lyytcotukjY2G6FqcQwXK2BIewCJ5xPxuYGH7NnKMoiqLkD9DB5p0zWxGMbphO4em3mj58ELZE7YfgYULdY240IgirLqUI8rmINsxK8fb3WQRnsQh65iaExVdZRv7+k6jwVLY+VQQVRVHymuabO4tgBSh2YDuF3r+Rha6M79bODuHFFmEGhl1GQXRpACJaSUQQVqMtJsVQbJglwohgSNzkPBZUX6dDqOC0vxvrU0VQURQlr2nGObSx+iKz76TY9s+q6ui8wHoL7Sdft9EUnPAr4ybClUwEGSuikcWPUeSzh1gEUSdoLUGxNHl/oJAKTriNfK27mn0qgoqiKHlN88ylrRWG+f3Cix4hKmARlEYsXiBcLFSBIjPCC0RNilJTRImzMMs2UvijP9rjjNgK2K4so8ARV5C/70QTBm0dqiiKkvc0TyG0Fh1mlY+F9llB8ogWcMI1/Ery9z7OimCaFp3WSEQ/QYwcIx3xrYUofkUqyNeuDwVHXmPcFEVRlCZB8xNCESefzPcXXfse+TC8GYY+8yLCVU6+koEUHP0t52jXSXB+7vqcIkufMkOmOREE8C+0n/wDJpGvw0Arqs0vahVFUZojzTC3NpZfdP0HFCvfYazBxFaiEL1wOQUOvURmgMgsXOZ8DKId279d6gEP8hOiGCggf58TrEMaUVUURVHyimZrtsT2rmd9q6gucCg2RSvPVp1lNnjraNcpQJEpi51YmNWElc+FEAZbkb/zMOumKIqiNBWaoRAaUcOILz65vURrkN0i5eTvPpaF61DjlM4atKIX3bGIopivMFCELXGrgo+BlaiNY3IKYh7jPSRbognbiqIotaUZCqEFjWRg/SXmkewWw6zwvSdgg/cntiZNxIge6hzpQJqiVvbzoHpDpc7gk8bHzyvZ4k/YVhRFqS3NUAitSMmg2ixMiZkku/n8heRr3986ZMn+bcn9w/VgUYbLpTGNUnfcZ8a20jKa8/k6+njZerPgt3dht9lL19LSdVspEtWPEEVRakfzG2vUdoMIz/6zzDnoa9WFjTpvp3feHyyiwnOeJH+PI624pSsaNftlEt9ptxAVtDVuXmSWiZ0UGHud9El0YVBqRzQaI7/fR09PnU8PvjGHiguDRhwT3lR8k4QjUerbrQP95mtfoA5tW0kxqVqIiqJkC+cX6RSgaePrMMh0nfB2pEf+iIzSX0S+onbGLVswPJt4kAR8SwSLKbr2XRbE7XwYRLB5fV80BohBaJoUf8Z/H7wIGtWKotSBZiiE5pb8vY831iBGj4nnmIz8ZIuu2kgzqTC5rB9FrUKSXBcWYpCtkZ1LKbL06So3pU64p4a15wl6QP0g/02+U1GaDdGyzRTZOI3Cix6l0Lz7KfTRnyg0+04zq86y5ymybipFSlfao5se0fJdslDogHVpWJrhNExiR8iv0OvXUOTzZ+38gxA+uPN+vuXCc/5L/j4nGvd0xZi2aDS6fhpVvnIZPzGzLf54gRtGl2nbiwovepl8bXrKdTSXrjmuaPSpqfPp4TdRNFogRZ6JwFIMhSPUt2sH+s2VWjSqNCPC5RRZ+y4v71F03btE+zbbHRkoGSQNAbEEB59lHfOTyK7lFJl1O0U3ziCq3GtdkbPyB27nYVR4yl3k73yYda0/mmnRKGeCInpEAfQTDHhnnIAwsehV7jGtQLPBZqqYUUI632MG+2QZrViFxRQrXUHhT/5mHdUqVBQleyIrp1DllCup/IHDKPTGNym65LHsRRDsXknRRY9Q+M1vUcVjJ1EYkwPkIaF591Hl46dQdPUbB4kg8CGf3rFQrNyGohkKIWP13d//VPL3OMp2pbBWHzSMhSy2a4XZFod0QFijMpuErxN/nUQw5VKKc2AtFrajyGcPm4eIa1pRVuqD6laiojRFwkueooonz2Dx+xZF175jPqzrSIxFMfzhL6n8kWMosob9zAMimz+mihcupsjM25LaE14asmCneQqhiBcLUKCIAiOv5U3cps00UcQWKKToehaq+MgzmTJUsz8w0BY1pHxAfBzEj63G8Ae/oNj+LWY7By+1kgz7IBowwShKLolCGJ49n8Lv/YhiOxdb1xzDFmXo1SspNPce69A4hGb9gULPX0CxTR9Zl/Q0ZK1dMxVCxlqFgSHnkn/AaVIcKt0cRAiLKLprOb+En8gx4pYW45e/30TydRxiKnRTlSpD9AraUGzbfArPvN06KvVKw6UXRckZsAIrIQxbbT5Uz0RYiCpn/M5uNRywRiuePI0iNRViFcJcAKvQWGLB8b8gX+vu/ERs/Z4vyMK4myIrXpT9GXNSnCPFo90ocMjF/BmXpngUoN9icUeKLH6UIkue4EM5mrWIVFEUC4ZrhBXY0ETn30+hzx6xW/VLtHIvhab+TKxRtKivKVo0miusAPk7H06BI683dYUiYCyQwdYUXfGymVswm+JL+1QCw68gX/t+/DmXxip08P7wzNsotntVdtdQakcDJhhFyQWRdR/aX1mCMY67jCBf35PJzx/jmDDAh2EiSwbZA7In8uHPKbJlrt2qH8KfP0eVT5xKkUX/sS41R4tGc4kVq+Coa8g/aLIpIoUo8YuFGSoiC7N9UJzbsqj62vQw9Y7JZrbwAtFD38I9aykUL47QHDu32ISiRaNKvpDtx+7+rfZHanxdR1Lw2J9RwQUvUvE1y6j44leo6OyHqPCUO6nw1P+lonMeo+Ivv0eFl02l4PG/IWrVzZ6Zmcin/7S/cku0bD1VvvldCr/DhkdNWrsmRYUwh0DA+OVk8Ss4+Q7ydRjCYljG2+zOVmFk4SMU27WctzkqMr7EVlRHXEn+XuOJKqyopgJFpEXtKbr8RYqw9WmKWLWINHfYDwv9vlDyhUylRI40+YB/0NlUeBGL3kUvy8Thge6j7Z7k+NsPoODwr1HxV2dSYMTV1jU9KA3LtVUY/uxBqnjsFPb7JeuSgSI3SEnj0wKEkMHLGYU115MKJv6BlayYP4lCskbLzvDHd9sDM2DrCmHpBY+/lR9kCfvL/qR9+XkfnxNZ+BBfE3WUEE41YRSloYjl8F9aalKUh+EfE/D3O4UKzn2KCk//O/m7jrCuNcAfpIIJt1DguFusQ3oiS5+0v+pGdM9aqnz5cgp/eDP5IuXWNTUo1i3+1hqTf6al4b5wW4YQAmkxGuWX7SQqQDFCeL+12EoosuRJttj4K0aswgwWmz0G/RMLxt1IFGLrMu0Dg3AWSwtVzGkoNGDZd4ugnqMTdRWY/zC+RKt+N2Q9RnMFMZgqjuHO/5sI2QdU+jc72vWn4Gl/p8KzHqRAr3HWsfYUjLyaAkd8zW6lBqNl5YLKt75nuqNlostwKvzim1Ksm5XIZSyhyx0tRwiBiFiUAsO/JmXvMVdfyCIZnv5bipVtNNuZHoBYgDEKjLzGvHCVu43QJgOpGAN2V5RSdMvHztGulXwBj8llvG7twJBtmP8wvvirfrvh3Nz5iefWlERB8IbHu68u10hF4jW9i9etNuCsVPeAGEwVx3Dn/0Kyc7MFh7tz3WLc+TeLrvMvcbtmZH8OBC8w6lsUOPIGKv7y+xQcfLbdkxsKxv+cYsE2disFe1ZTtNQNLFI7MAYqbU1fxBoLFImVW3zxFPJ3spOh5xktSwiBpKoYBY/+EQVHfdPMFlHQhqI7l1J45u/NMRmxKZMFsWDiH8nfZyJReWlqMeRrYjJgmdhXyT32cdQGZ3ngtXAZr1vDvbwyTKs275R5EWcsWk3vzV9Bb839nN6dv5zmLt9A67aV0v6Kyvj57lzxuxaZaaIgeMPj3eeukUsSr+ldvG41QYQF8cu/k90Dxordu7+CVm7aIfNLTlu4mt6Zt0zieNrCVbR47RbasWc/hSLRaufC32xiGMfgnACnV+/CvrA7//b7ZW2Oq9quMenaCyShYPzPqODoG/ii9ZANB4spOCKzVRjbscT+qiUwAtIQOPIH1OqaZVLvWXNqnn5qSzMcdDsLcMucMFA0CrMeff18xZ2IQnup4LR7KXDIRXxMJPOLbY+J7V5Nlc9fSDG0kgoUsnuCRekPUmz/VrZCf04Fx/40O79bMBCn+hp0G/udT8gcHfsrQrR55x7ava+cPlu9mRas2sQiGJKwlJVX0gHeH+XnGokgYzeZclFBkFoXFVKrogIJb98uHei4IwbQgB6dqE8XU//hwp0uTA5ca/bna6kgwO8GDsep3rWsfDIJcbcO7ahftw7GMQdgXseFazbLGvFSLb5d8Nn5iAE95N5T4eIYp3jve/POvRy/B2jJ+m00e8la2nugQsQsHI5y/HIch8IcvxzHfH+4fDDgl7ko2xQXUiFfL8iCceTQPjSWlz5dS6h962LxF354n6UD/uB+ENY35iykO1+cRR3btZYw7eVw3PKliSywMbrt6al0/bkTaNLooTR1wTL6y8sf0QmH96HvnXc8+xsgDk389hH/SUGAEW9715GvXV/r2LhEts6n0LPn2K3kBI//HQWHf9Vu1ZwoC2nlU6fbrSogfAE2NgIYgCQF5Y+eKFZpKoLH3EjBsdfZrfqD3wdfyxRCALHCV19oP1W+fi1FVr5CPrYMMXVT4YUvmBns3THpsKIWWfwYhd75gXyJSaLwAiFky7PguFvEElUhTE99CWHivkrOeGGBrGWrbvGaLSIEieD4gC2m4y3exl/2ixdkwM6idOHDujVn3McPH0gnjhhEowf3jrunCpeXm/7vFZq7YgMVc+YNfxNBOA6wQI8d0odu/8bZWfubCnf+xh176Pv3PCeCH2ABcvfjcPeM699/wyXUo2O7ateWMxLc1nPcfrR0LVvOu2kmW9QQP+yH9zgMwoK1tygU4C/8Q/waYaz6gImw2yG9u9DJo4fQpLGHiFBKcMW/KvBuhPncVvz+zF+5nt5fuIamzP6cSsv20VlHHUrfPmsc3fnCdPrHa7Pp22eMod9eOZluffxtuveVWXTFxCPo91dN5mfPQij3ZPxMLYQmr4humUv+7mOsY+NT/t/jiPaut1vVCRz9Yyo48vt2q+ZEd6+lyseOt1scBR0PEQEMDjrTuqQmkxAGjv4Jh+17dqv+4HeuNvZ/MwG3jpe3oDUVnnYPBVBGH6mkWNkGCk//jT0mxUvvBYLGCSVw6BfJ33Oc6bSfGK2wIALFni/FLPxVsieL6DQZr48qKsO0dN1WuvvZqXTDfS/SX57/gB575xNawm4QXCzIOLHgN6yJIFtoyKQ5rzZ+mRUF2K0gGJBj3DmwEGOcUb82eyn99r9v0d3PTeWM94BcO5mwOZzwnDRqMFuEbAmxlenC412K2EJq26qINrH1iiJb+JsoWrVha2mZWGCwbiHCSa/N7l07tKVCvudEEAJED8IDv16ZtZj+h0X95odfp/+bMostsqVSvIn4gV+t+TqIL9yPWHs2jh3xOA74ZH8RH+ueSVsWvtVbdtH9r8ygn//7VZqxeI0kVZztjQk8G5yDeB81qA99/5wJdFjfrtStfWu66eIT+V7ay3FDe3ai5Vv20OrN2+TdQPwWBYNVr1VVsDKDqpY8QuZkTQcGBqkD/pJ+RN3GyIQEgfG/oKJL38pKBAXP805O3d/rbGm5QgicGBaVsBjeR/6BZ/B2mCLLX7DTl/CDgvWWEfaDvxz9VkwPEkI87EiIfK27sFAebR2VhsRYLiSW30//NYV+8o+X6O25y2jt1l1SH9S+TbFkmmJ18IKME4vblgX+GO/iiJvd786R89i9bSsWRF6/zoL4y4deozWccSOjx/5kONdD+nSVjBhFhOxx1fXtAgsJYUa92cLVxoJN7mN2uHNRRwdrEPFU7d55AeVsQSN8Hdq0km2XkWEvfu0rr6R/TJlJ19/7PN370jRaxBb2Tg5n29ZFYrUB53c8rryLHHEw7Bzf7z0Xz6ttcRGL10669eE3pOQAmBBVgeJtBDMUMek4FDZFrzv54wSguPWaU4dTqwI/ff/+l6kyFKKjBnWXe62RADqyyi8aDhTVpgVztdaR4gtfoKIvvkEFo661LtmR0rq21Cb6a0vLFkLgxLCwLRVMuof8Qy4QMQvPvkPKv43Fx/vTYh6ZvwcLXauuInxVj5H9j7BF0PsE8pUM5G1O2YkWo1JLbNaZLAf1wNohLFm7hT5Ztl6KLp2VAyAuyGC94OkhA4WFk2zJhBTv8hr1WMis73jyXdq6q0zEMPFagH2Vde8uJTSkVxexXFNdx7jGRAiRqYuf4lYL7Ilo9FMZjqS9N4jzYX27STEm7i9+pL0f1Md9tGStCCqED9YYBAvHQry84FxvfFZfzHGpcIII67QdC+1j786Ni6EXWJPA+YeiUviP4m6wdc8+WrF9Px3erzt9smorHTOkF4c7KNFSdX92nQ57ARn2LJ9o1d3+SA6qgxqLTNGaLJ3UF5ojAyuGvqL2bBneK90rYtsWUniWbUWaKVXaJIOiT2l0I53s7TkQUXTAH36F3W64h9v8sXGc4fG4R9GlfRvq1L61ZOhIZN6EhsxR6ql4wW9ksmjEURkOS12id0HdE3DHpgK+Q6hQDIhizHtfnm4EJMk5cMI+FD9CbJLbRwaEDUWFC1ZvEstQqOV75bOCsM/W3aUCvqPo1Fl2XnAe4rKELetTRg+hClhTDMLp4hg+S/GyJ34Rj8niF24QVRwnx4sPyXHXaMdWNMTww89Wxd2BK251vvTu2EbqWBHXoF/nttSRw33FKWOoW/tiOnnMITS4R8d4cbaQLgBx7HUK28k6X4jt22R/JcffurP9lY/U7p2uDSqEDmcZBoup4OQ7KTjuRoosflxmkJCXPG2Rh31g6C/otfb8ZpYLtEL140sR/tejNYhQyMJ/3NIiyHCfLjMcM6Q3DeMv/wNsbaF4UTJau4Q5U0Yz/jJeUJyGOquStq2oR8f20hgHLTT78gKLrWM7NMohOR4ZNzLrdKBxBwRkztK19NIsM6iCy6i9uHx31KBefHyRiGgqn1E/uYsza9Rp1RYEAf6jiwhaxoqVlCQuEa5wJEKd2rWm/t3MsFgurA53O7C2IUwQnnj8sr+4X1wDcebiF/HYs1N7idN4HPO6J8c5hA2CiuNxrnuGyXBBxkfE4+/Nk+skHu+e0fXnTaC/fPt86sgfRWb7ePrO2cdSj04d6ImbLqPRHPdXnHYM3XTpqewvLG2P5ZsVSSKwsQjvJ1/FLruRnFjrHvZXwxP/0MgDWm6r0VR4xCr04c3SGrTosg/J16b7QfsOwrqjQ37lM5PNVxiGUKrcS76OQ6nwopeMpVgPQojHJxkPv1TJXiyzny/Lu/LpxUsHvtaRceWy1SjECBn97x59S/qntSoslMwdlgd8RiY8YmBPKc5DJjykdxca2KOT+JnInv3l9MnyDbRq0w6at2IjLduwXc5jbZW4TgbCBNGEmP7u62eJ9ZQYVpyKLdz/9+55jjZs3x2vu0wEGT0sm4kjB9OPLzkpo1gkw52D+stbHn6N9uyrkMYpiZfDMehegm4Tf0jRUtW5odHRbY++LXEEEMcwviCiowf3kjU+Cob26UpDenWOd4FIBI2BZi1ZK3EwY+Fq2s3+pXoPHLg+umFc9YVxdOHxI+L3BzFzeO1LPHn0JpTfnDZdX0J3hPc8h/f8fCe6awVVPnGy3UpO4VdmkL+dadnc0JQ/zmFL06E/cNQNVMBLfcPvTY5z5UYAryrShllikonIwr/TJZqUIErkvBgVHH8rBY74KoXn/s3sywCmW4rt38ZPkBM3WmMVtqOCk+6wIsgWZQ6jW+6P10j8fmvdoI4H9TNY0MkbX9RmvxFJiZ/axEm+k0XexLcvQIjwfqABx6Cenembk8fTn649h359xRn03XMncCZ6DF0ycZRYj8lEECDzPokF6OtnHEO//fqZdM1Zx0ocQ2zddRJB3KOF5KpNO6WPorjJ3ypwKtzg14iBPUzxoOypjhzHF1uxcTuVHaiQ37Vly669Un8ZDKLbhHVMQnuOM5DsGHm/eI1i3ZK2xRIeWHqXnDia/viNySz+Z4pgI34vPWk0jeX4TSWCAJbi+ccNl2dyO5+PjxR8SOA6qcAe7MdAByheNSJ4MHj/Iyx6SD04HttYcB7cEbPSX1R+N22iW+fZX8mJFXduNBE0ZHhn072MOabJCaHLzJ3YmZffLSbTl4V/p0s0acF59hkUHHcz+bsfKZ3mq0QyEeMW2TiDYhh7VBKRjwpOuZv8vY/jbYhgbvsNyv3xetmGbfTi9IX0wGsf0U/uf4m++9dn6Qd/f4F+cO8L0icN7q/PWSpf1hI/vCDeavWRkHfYe8jiVtyX/JlHH0Zf58z4f799Ht3Fy7njj6Bh/btT947t5J2CmGGN+EkVRXBHHKLoEtbjBROG0w8uPEGuwE72Skng8/BqoTUlwLNIxD2Xow/tJ+tU4LggW4vbdu+LCyvCVBt27t2fNgqxD0Htx5a3kOoGrSenjT2EbrvqLLrnexfS104/ioazqPfv3lHiDXGWKX4B9ksa5wWd5391xek0YlBPaUSULN4A7h+W+fyVG+WDA7j4dOBU7/n46Tadu0snTZ3oxpn2V3Ikb2pEap0/1wN5L4R4jV2iwNq9pE7skHGheAxNtzEiyAvTPqMH35hNz364gN78+HNJ5M6fGiEPyZwVGHq+zEMoVHt4fAxEji3A6Ko3UNbM234qmPRXCgw5h3cjZ8ytCIKZi9fQTx+YQrc99jb9m+/3lZmL5Mse1sGqzTto7dZSWrVlJz3zwad097Mf0M/+NYXueuZ9Wrx2q8Qb4rG2GWf+kH1Cco+ta0lbunTi6Li153238E5J53leED/VHrUF7ohD1DPiPLyDE45AB/rBcSs8GYhtFHXO/ny99KkTt4RH4M5EcW/vzu2l2X+qcKCeEEWWi9Zuke0Uh6XEZfbrt+1OWT8ocCDRzQCj5oBU14F3uB98XBzWz8yNBy/xnmHBfsRZpvgFks7ts4B4FgaD9KOLTqJO7VpJyUeqOEbgYElv34NJuFs20Q3pJ/8NNHIL18R3vzHJWyF0GRRed5cosEZrrhUbd9CUWYvp8XfnSgZ/+e3/pav//IQ0Ucd4hRBG1PmMGtxLOt+CNGkuDTgLT4sXjBiTDFuEEvn8OX7xphG170cFp99HgUMuNPtyWBzqXhzU6UD0jz60L91+9dn0n5suo0d4eeDHl9L/fud8KU46cmhvaQCCFoslbYpoz75y+TD45YOv0kNvzJHMBBlh0xbDmocdt2uEz2x7363agPPcqRedMCLliDAGvM8+/miroL38PJybF/iHd79bh7YsJt1ZWDnTT/H24kx0H1iwcpPUyblzs8EdBqGdt2KDNF5JdSZHl3S0x/BkmUBc4P5dOBByvGdOdGsDxBNiiMY144b1T1tkjJvgx0mbduyRzdpftWkTXvYCUdkGu1UdvIn+AdWHRmtQMr0TWb7LuSDvhNAlIpdBART/vMwWzz0vTpOM/Of/nkJ/ZNG77+UZ0kcL4w9eefrR9HsWhVuuOF3qbI46pK9kJq4fUe1BGFI8MFvkiUYyoWm3kL/P8VR0wfMUkI75uRVB4N6bLiVt6BtnmgYBKNJD4wO39GQr4rzjhtPNXz2dvnXOBMJYjbAaCjEiia3jefSdj+mPT7xDlZzJIoPKNvNsaDIkE8YekfnAOIhDI3zWIQc4oerMz2VQr85i7aUUVjhzdGOosVS4x3E4W1VFBWaIr2TgucHCXM2WP8bxFDf5mz27y8qlC4ZJa9XPxn1ALAf36iLvl3W16+TgnUp5/7XE+TdpzCEZnx2OXbfdDQaNp5O7f00FNPJLR2DY5eRvnWHUmXom4zvSgNGdF0KIdO4Su0tEGKPw1dlL6FcPv07X3/ucjFjx4oyFUrSHr8MvHH0Y/eIrp9E/b7iEbrz0FNnuxSKAr0dX1FXTTKFmsO9SJFpOofdvosDgyVR04Yvk6zCId+W2YUwiyJAkztx98u+qxRTVoSn55HGH0y8vP12Es5zFUILM5+PL/oMFq2R4MZDrTCtXcHCbBC76UD81tHdXKZFIGqM2/vGuwyJPhevbh8Gl0aAE73uqZwRXWEiYHcNtZ4eJ3Q07dhv/cWaSCMdlcT8ofcA7hbA35uuCMKCYNNXHm3NFv0ihEcPaWETWvE2xjdPtVnKCR9R+oO1ckeIRVpHxgNzRqEKI25TiT35ZIYBIkLOXrqM/P/2+jCH4l+c+kASOfk548buVtKUvnzJWLL//ufRkmjR2qAyP5fxxicMVddVfGsB12PdoiCJLHqfAoRdTwSl38WcWW1x1qBOEr07YkOHgnlJZAxJn7j75d9Vi6rlwGuLz0D5d6adfOkWa68swU7wfGSda9r07bzm9xh8bINV1mgR5EHQ8K9C9Y1v+jXdANpPink0qcCp8Q4kGGpngwyYV2IO0g5aSNcE97k9XbpRuGHiXkl0F7yOKXzu6FrSpg9Ig4B1Hx/50wUDKR5Gy+d3yCM/BxLep8Q85n/ydD7NbjUfGD/AGzJMaTQiRwBANSICY+ubVj5bQ//zzFenn9c7cZVLngaGTYP0gY8FgxHdcO5mu/sIxMgQVcOLn/MkYsTnDXica5pfqPAoMOZdvCBkbP7gMlqAROrOI2GHx3IcTNmRuuCes0QAGxZg1AX7AOsaQUrBSLp90pBm/0sFBRbHaUx/Ml47ZuA4HQakjyKSzeQ/xvNNi9x9zaD+p603nJWaLQNEo6s5x7Yx+M84/NKoyFqfZ9gK/YLn26NROxhg1brJqcNxl8U5jUPJM95hNHDRHwgsfodi29N0mgkf9wP5qbDK8TA34rjWKEEqmzykKGfPLsxbTTx94hf72woe0dP1WyZzbtCo0lff8LqN+65zxw+lHF5/ECbK9JFoIB85vWPFLQrAV+Yo78g2hXxIyIJMJuSVu1dnF3bdbROyw2PvAveEDAA2CYBn/+/XZ0uoTw3PV1mLDBKQAUwIN7NlJWjXimvCvsCBAm3bspfc/NZ1aEb6mRR6Ht45Bc6ejE7v5GEzuIZ4Z0squfQdkyDXjJquUYDfeN/Q3xfsGcUkWXqQsDDOHPn2uewnOa3RqEIYMUdGsiO7dQOFZt9ut5PjHfJf8qL7JAzI9m4bMjxpcCHFvSExIgL979G26hwUQfdzatCqSOhYRECsaAh+L0fgdSLQQjrg15VlwTq6XZNeJLxA4iCCLDe4J6dOsPUIHq84ucIP1i24OGDlDunvMWEiPvjOX/u/VmfSrh9+gH/79BbrqT0/INEEoskLLV2SGaPRSG/iSElaMynHC8EFiXXi/tPATc/HJbxzcpLDhbYBgcxSa90GeefIFuHXmMKU/gN8WWWPeP4zC4j5gkiGufFkZhJs/LvGu2VAkBfcB0Pp49eZd0qDMuXmBC/yCCAoZ76n24FqZ0htw62ypxyDnHaFpv5bRrFIRa9WNCjEjfp6QT/lNwwuhTaKYnub9BSukPxcyaRR/Jr7kSBhFbCE+8e4ndPczU6W+EC3cXGvHxMUJUC6XZNeJLxA4iCCHFRlVqW2Bt333PpniB3390MAHgwGjb+OfnnqPbnnoNenygWLgXz/yBj0wZRY98tYceuK9eTRj0WoWyTKaMHwg/f7qs+g75xwnxcC4Vp2w0dqzc4mE2W0juguCfpmCZ9vuMr5f45Y3ZBuWegizE72qEgiTcM0zr76gSBRgHrtkolJT2Eu5LrotYGaEdAKAfWhEsnjtFtrKzxFkE4Y1/I6i9CGYQjjhBz48J440FkQd38KDwPXko8LGMfxOl97EamXQHcg98FyGp6mDaeNiq1+zW8kpOOE3nONXHzRd4XeJX/bMKSaH4HJ44dF36Q9PvCsWEqY9kQpwDokJDKwx+REHRaQQRTSO6d6pHQ3q0VmKjDDsE7oMoKO0mzAUCcdlWlg7vAkH3mMba8lkeDHXt2vZjklTeHTW38sW7J79FbT3QLkIMRqcYBEB3HeAdu45QHt4jToVnIOWdmicgmOQ2OEXwoP7lMTP2z6+Dq6NL3KMwYjGEeiLhq4fAMch+N57qA3wB9eevnA13f7EO9Ikny8r/iKMGB3lD9+YLK1u3fNpTFx4n3p/Pj3MHwm5GGs0EzgPV8C5yc7G+4ePBdTX4ggJjSdMeI54H9+Zt5ye+3CBKc5MCDP8hRuKMn91xRnSPSJdeHEs3mU0hMFzgzWP7eoxYd75fRWVdOMlJ9PEUYPj56bj7y9Nlwl0IS6pworBv+/53gXUrnX1sVFrCvyTs9mPRF8ghpglH4Nsg3ho5IdJP0gnKD1CuBPD60D4MPrMyMG96Lf8TrQEIlvnU+Vz53N+krodQWDkNVRw3C/tVn5Q/hQ/nx1mEPpk+MdcR4XjbrRb9Qe/M75GGXTbJajlG7dLHRgGLsaXKRIuhAJjZ5pGBziYF15jHzJINP5AhlDBC5ITGgqg8hwLMhhkoGZ0EL9ZwxOvR9Uw3Q2wG2uEDcWdSGgiWCxkcJfxB7Ftj/GCr1UMVoy1JHF7OfjhjkVCx7kIT4e2xZz5FLLwlNDh/btRr04lNLRPF+nmgBE8gIujXOCEZRqE8PF3WFiqhBCDIosQXjNZ6oJyed3aUmMh7MZC+LXaCyGejbM4HJ+v3yYWPT5s8A7AekJR4o49+1L6j2ujaX+Rjd9EcBbeiWyF0IGPlevveV5EIFUxJt4rFKWj+PvGS09O6S9OhTPqB6/727My8pL7CPXi/EPdMurn8TxqC+5Z0qEHfFS+9cnn/AHJ8cl+b9yxl5ZxnONjIxUIIkbTgZWcCtwzhHDU4J78cZTlTOlNmcoyKn/2PKLSZdahOr5uY6jowhfsVv5Q8dSZFNux0G5Vp9kLIfAmVHQI/mzVZhm5HuK470ClGf8Qx1gxw7FYI0FCLJB4AY7hfNOu7a3wGr9kyXB3EgKbRrGKCxl+y0+zjeubbSRsk1mjONdcw4omriuLGfEDXRaQicMCQ4dkDJmFL+uhvbuw9ddO3NE4yCHn8jox06grTljQKOYPbFlgZm/EFe4JmQbCg4wZrXRx/dxevea48D7JQohi49RCiD5u0VpZhO65ubhGyQSKiFGUvX57qQgFZlfHM8Ux8rHFzwofXulAMJOFFeBKVUJ4uhR5Zgqv24/BJNDVBfXo8ffcA47BQNPd+b2681vnSr06jkr02fmHBlg3/vNleYdxf4k+wq2svEJE8NQxQ+PPpCbgWgiqOw/VBXOWrZcRjjCA9rbSsnh/SsQJ0kOm+EVAk92/A/dWIXXrveWdSBYHzYmK167NWCRadNEr5Os6wm7lDxVPn0Wx7Z/Zreq0CCEELlF6QREUGpNgihuMvrGFEwsyKGRU+DLHV+r+8kqZcwzgdIiVrPmP+232Ycty8GUM9s5dBLiowEoSsddN/phMsZi/SFGcVFRQIIIcZGuwc/s2Mto+Jn/FnGzod9WbLT7MaYeGLq7YNhFJ1PxfwposjDnAxfM/XplJz0//jDNJ0woRVhAaLU0eN4y+e94ECYsThsYkeyGsnUXoPQbW4AscJ+/OWyEDmMPiwh7EDWZjwG9cWS7Pf6qHInvgV5UQZmcRumcy+/O1dMuDr8voQIifRFw4wQ8uPJGOHz4w6fN0bhD8f732kemKYPc5cApKLyC6v/jKpHgdZU3eDe/xaBT2Oov4hwtXSf8+XBP3jA8Lp618uMRFXeIXwF8pGh3UU2YGac6EZt5OkXn32q3kBE+8nYLDLrNb+UU5CyGpEFYhCYBDgXSDFzkR1MOhrg1CWMqCuHPvPtoujWbMbOEoOkKnexSvYg2xxDmoz3EJDHlHos/e6+EviiuLi4IiZG3wmzOCNsVG7AoCph4TooYMF+MeYtQPCBz8QKJOJXaI4Hg02/vEFZPcas7BVXEZfFT85B8vyRiMboQQZFSIqxs44zwFX/3WrbGpTyH03iMs5MfemUvrtpXK83PxYjDvpBfvu5IKnJIsrADnwf+aCKHbD+vpp/+aIiUlbsCERBBneOcvmDCSrjlrXNLn6fzDnIEQJvdR5AXnYBqv0UN602+vPDNjGBNxzw99Gx9/b64UyaOeHfWm8MaFPTGezCU8H69JwBmJ53lBOFuCEIY+fYAi039tt5LjH34lFR5/q93KPyqePpstwgV2qzotTggTQZBcqJA4apIIvbgbkxapCYkdILFicQfW9joOeOONTvGN/aybr3UDX/bION+eu4zuemZqvGEEMjt8LMCK/fM3z5V6FwS9jlGQE2oshFkWjTp/UbrwwGuzZGQdHIuBshOfnQPxBO8QZ+5jrPpRBpxuSgiSF+8hVDUVQi8YcentuZ9LsWey9xn+oHh0QPdOdCt/GCRO/ovw4Sfu/+aHXpPiUYh/4n07ITzz6MNNSYGNt5qAqaFQHw3hxocl3sHkYTbhRqSGOZ0ifhFHyYAzwob+r6mAX829jjC85EkKv/dju5UcX/9JVHTmv+xWflKBScy3fWq3qtOQQpihQL5xwMvsRAq/kSyQWN2ChIJE5RZk9uLm3O1xknJ4QeLBF//Bi1/cvbnaQf57F8+1vP6bxVwGIKuAn25B2GuWfeQWhA8ZEIqbX5q5yNyvg38iYz973DARQdyTd3d+4Hk4dQT3h/cJGTMGbn/rk2VS9OesQMSVF/f8EHcYeQdFeiVtWlH/Hp2kSwsW1K26BduH9e1KXUvaiH+5BO8cwLyJMs6m3U4E94D9GIge/VTFTf4a+C5lvWTtVpmvL5kIAoQf+9BQBmT7Xrj7RiMY9ImFmKLUBJmMuweHpHFe8A5iZhTUR6LrCVouD7HxmRi/GC4QQ85lE54cP4K8IbLy1cwi2GU4FZz6V7uVv+TTM8pLizBbEHIk7oMyeCWOZP4cN/9+/SNpgenql1D/hW4gRx/Sj27+6mmyjZcgX2IRYYRoPfn+PLYIP65z0ahzQ7HhL/79Ki3bsF2sKtQPJoLjEG/llSEqYMvtBBaDPmw1w28MMwbrM5XFB974eKlY3mh4VC3z5wV+19Qi5EP4GJJWo+iDinpd+JEsTvC80Y3iyyePoctPPfIg/50/6Nf68JtzkoeR90ciMSn6/9t1F2ZdUuCuM2PRapkZBiD+nDh6wXGo1kBDGQjcuMP6yWhSA9iSHdyrc9qZ61FE/MP7XmCRxQADSP8HA7+NRdhLSgmaE5F1H1Lly5elfxZtelLhOY+Tv8NA65C/VDxzDluE8+1WdVq8RZgJJDokYLwQkvDLK6kiHLZ7FYBMHnEznTMmWINumC6IXnkoRF07tJV6JGwjs8qQzzUaSfLR6mQ8xtwdBjX4PIMIojsJitLPP264zO34w4sn0qUnjaYzjjqUBrI1CBHE+5e4wLIBKJ3Ae5k5TNkD//gSUowNIUbxYSpwWTzT+Ss2yjbuCeB8/ERxOIbvM9ag7DoIlGEgLWGiYddNwXqREtw/rrOc4/Z/n/tAfqcSQbyT+MgY1LMz3fLV02XgCIyDe8GEETRmSG8RwcS4xeKeV9UUV0kC74XPaU5ENn5Ela9fk/5ZBFtRwWl/bxIiKKS9mYalyQkhEgUSAiwGjOICqwGz0cuY19hvVi0aJ3jImO59YZr56uc4QzEpMiEUQf3ooonUhzNVZFbInJorIvJ8exiV6I05S+WDIJUIwrrs3K4N/c+lp8icllIMx/uk6J0XvHvu2MTFxWH9xaS5NqZmErGVrWSwxcnPHp3T0RVJXCTc5nw0YEGfSHRTcPfjBS54d4YP6CHb8u5kwB3x0JuzpZgTrUJTWYKwZk8ZM4Tu+vZ5dOzh/U19Jx+L62CNsxLj1i3GD1llpv4eRIMT2foJhV67mnzh9LPuQwQDPcbarfwnySvSaDQZIUScIZkgQWwtLZOm3ygiwYS9E44YIK05RSTN4XkLwigJv57eArEEWfDQN/NPT78nrUXRuAAZ9YHKsGQ8N33pFBo5qJeEId9FMKvgZXEMrGLcb7JDcQ1YgmhI9MNLJkoGjXh0zwgfEK6+urFwb8sofm5FeNfjLgeDIEPkMBISZq53bu7oj5etF+uVb6cauD9YjLB8D+3bLe6WDvcOzVi0hhat2SINYyDUicAfFIeeduQhdMOFE8XNfFwYKxHxi3Wqq9U05u2ja/JEty+gyilXEVW6iYaTEzz9fgr0P8VuNQ0aMz0l0mSEEFGGZPI6f9X/6L4X6dlpC2jd9lI6fsQgKWZB4s6niJXMh/8go8DafX0jjJLwbVhzmV6RsYglyJYAprNav213vI4HX+JoiHDz5aeJVdEURLCuuHucu3y9DEidqq4RbxYybzQcGtavu4gg4jGf4sdJRM/O7aTxCIb5S/W+wxn3g36RACLjmL9ig1i+yc6FC4pdIYRocYr3KVMUuDj6hAUWDYu813LgWkifqAf89jkTxE2ejXxcyKaShMj2RSKCvvKd1iU5wVP/RsFBTbGFbP48/CYjhMicHnx9tkzWixZm7dmyaV1YKJ3vgau7cUUs3sUJEf+vs/DgfPGH/yRex7sggTvRwxoLMie0QMS8cStssRVeBYS5LriwIGP5ZNkG+s1/3qRtpftkHFZ84WMAguOGDZDGA/jSx/WajAimjRq7M9Ux1h2DMuBDAOKWeKiJ/6jUmZ15jJmstO5xk835aW+sGggSnjH6ukKsjZjZnQngfUApwIpNO2UQd4B7Wr+tlDZIP1I0tBHng4D/iAdYxCBTNOA6AGkQddGuHjoReBMKh2nS2EMO6r5TG/BBkEzEE3GH1CyW84fozmVSHEr7zcwwqQie9CcKDj3XbjUtOEe2vxqfvBdCJBqA0SmenDpPEhIq4tHiDIN1f/z5emmlh/owER5bxOJdnBDx/4OyKHgN3+MLOxy0uGPcAQzOF3/4T+J1vMuuvRC87TR3xUYZ2Pi+l2fQb//7psy9eNMDL9MP2apF8a4UU3GYcZ8uY6kJOM+FBUNw3f7E25Lpo3M/RBdFod+cPF5GCMHA5JIJJflqz0c80Z4Cex9Jbgfnuftcum6bbRySxDc+BB8omFkeGblxq0P8ZH1q7a8xfEBPGaoP1lsyX3Cb+DCEQKGI1PHZ6i0ihug+lBgXuGWIGFrHosWldbXr9GCUJww8j3cwKeyMOEbrUCH9Q00P+4X3PZMX7vayu4P8Ilq6iipfvYojdoN1SU5w/M0UPOyLdqvpgeeYL+S/RWhf6M0794hoIBFj/EeAv6iYR2fxXz70mjSNx8j0z01bQB8sWCniCYHEyCEYLBl1ZKgLQqJERoDngEcRX9jhoEXczIJrIaNAGDAOJaZawiDMGJwZxUKvfrSYLdaP6M5n3qdfPshhefBVuuXh1+lWXu57eTq9NHMhfbR0rdwHgg+hQiMfTMWE5vzIRGryYiD87ssa3QLufWmaGZXfhhH7TuMv8NuuOovOHX+EnOOObzLYZ5+RZMchkhl0Hp+1eI3EdzIhxFPGO3EEiwvE0rjlJ+7ZYX7Kzu1bSwtKeTmTgPtCndxqfkcB3vn5KzdYERSng8DxKD3A0GzoXyluGSLCeYO0hQmgkz0GgXcg7PHWrk3oFWxoonvXU+VrLIJ711iX5ATGXk/BUd+wW02V/HkR8r4focu8YV3d9MAU6SPkOoC7oGM/Mn+MqgF3I2GmkUMRJ2o0pEHixhc/fqOuCIsb9Np9IaMzsusjhkRbCdHkNYqhYIGiDgStLiGE6LKBBUOUob7GhQV/cXU0WEBRHMLgRBV/cBiOhRsslgPsB+pOTht7qJlFvkentAMPu/OdtYMpev7FAoyR++GGzHzMkD50/oThNHJgTznGXa+pIEW3fC+YoxH9CE09p4lfL7gn6UeYZGQZt0YH+mvufDLl/ePdgUWDfndfnXRk/PnVFBdmWOV/ef5DaotiwoQww1+41XZkGeDSA67x5sdL5b1OvA6An3hXTx49hH540UTauquMrrvnWX6fcT17UAK4B/QrHT24d/x+0uHCgg9PlG6kqoPFMUgrt3/jbBrB76Q7rya4eEKr15seeMUUdfN24tVwTFMdYi1atolCU75GsZ1LrEty8n3otGwpf+4Coi0f263qaD9CD0gweNkxe8ONXzyZunZsI4kAAoV9SKzYD/FAizUUBULwsEAEkYCQCNHSFGKKoZ8+WrKGpn66QkbBn8KW3AvTFtKL0xfRMx/M58x3rixP8+8Xpn1GL89aJA10MBwXLItPV26UOj74h4wGYUBxrVyTBQ1jN8q1WZAgqrybqUqu2EZixRf6gfKQuO3ZVyGDID/y9se0crOpGE+WoSADwfm4521skWJGAljCS9ZuoR6d2osFiAz2l1+ZJCIIP1wG0qzJcHuZ7h8fK7BqQC5iqj5j2/l99CF9k74jXvBuotQCzF2xQUbH4W+zauA4jNGLmfBhbYpbBhH0gmoAkO4MhDRDcLMCFRZZhaw+H0I9EN2/TYpDM4rg0AubhQgCZ7DkA/lfNMogupCIjj60L9329bPoouNHSqs2fMlD5GAVSFKT1OZW+GESDTI6WH34YkVjgzYQSytYGFwbA2tjwT6IqSzi7vbbhc/BPliV8A+ZBfyHQGExwsMODPJe85jNGIsodtp3gMPLy4GKSimqw1BSp7J43XDRiXTXt8+ln335VBrUs5M5K0nmjQwLFiiKVL/PX/dYH8J+XHv2eLGIbuAvfzSvx7lGNI012nyxkV0H8J7ggwVN//FhI2618BbxDeCX/M4Y7XUL+5DenalLSVv+oKreJ9JgLDoIPPrbohO9NLBJEjCEBK/JKP54ko7w/L7mFPbbiLb1txbeu/jFBybGJE0fvUj35ogc30n9ULGbQq9eTZRmbj7g63cqFZ56t91qBuRR3tQkhBAgzpAYundsR984a5wUs1x/wQk07rD+1LFda/naRetICCOKRlAE5E6Uf3y+iALiHrt4sStePP/gLvvwz+yPYzeMX/DK/HBig2uiXgZjLJax4LmiVGSOfbt1pKNYyC+ZOIp++qVTZUSN33z9C3IPaE03sEdnSeQoTk0G7gvFbj97YIqsTxwxmO761nlS/HPJiaOkeBCZDeIIwYRoNn/sPR70kKqT1nLiXYgrzFyCuta4Y5a4OMczRjEsSg/wHNNd0lDL52OfK6b7gvVWzu9bsmeN68Md8zW+NOMzaTiDMCYGC2ei1SyKctHRXdxq+O5glCKQ8pZ5B97rDz5bJZs19F6E2aWLl2YslFnsMfF26ijmC9idNbxUw1NZRhWvfp1i2+ZZh+T4ehxNRWf9224puabJjTWK4CLA3sSPeoNVW3ZKkeWqzTtox27zFYwiVBEGXvCRizW+kmUeeT4fk/7CF3iVLHEiZrDI16iso9aN/zDwA+HAuUiYGLsR8xC2Z2sV8xP27dJB+n1hEt5unFnAik3E+S3Xh1/GOQ6uhetgyiD0D0T9DUb9QGbrQEaB82uageUrrn4qcx2hmZi3H39k3Pq1M5LWEeId+N7fnpOBBZLVKQEchw+WC48fSV8/42ipb0ZRe7rYlOfGuPcQI9f8c8osGQ80ZXh5MaKJOsLsJuZNhosf0xp5esq6OQCfcS+wHJMdgvCjlGHc4f3pF5dNEjcclk2IcC84H43FMMi2dPRPchHcHj4SUZKCEWXwMYuqAZTUpAL+wCvcJ8BHxr9fn03vzVsu10kF4tJbR5jtvTQG0XA5hV65gmKbZlqX5Pg6HUpFX3zTbjUfKp6/mGKbP7Jb1WnIOsImO+i2JBReewXRgS/GXWX7+Su/nHbs3Sd96rbvKZMWhKgLQaaHBi4orkSmh/kMkVFAhlzCwRpf0IWcaQXRoIZ/IyFDgLDGmIiwRCFuED1so3gVIti+VXE8ASfiwg2QaLNJpDg+HI5IcazD+ZOtH00Jl9E//u5c+s/bn6RtLINGTOhgjnEr27Uqkswz8ZW4/5UZbEkskrpcJ2BecDwyZhRX//wrk2jEAFO/yk78ftmDLHI6u7n3Dlbk4yzYr8xaJNupxtgEOKNKCGvXWAbAe5yCGd9vfuh1sWZdg6+a4oQQxfLjhw2Ii1s2uLBjEu3r+GMD1Qep7t1dB61SMYQdkDTH7t6r4Wx44RVJfATigwgzaqCqItU1APxrKoNuV7x0GcU2fGi3UtC6BxVfkVosmjIVL1zCHwGz7FZ1VAhrCG5BboL/IA0jMaQCx6G5PIQQmSgSI8TQ1bW4M3EcxmxEpgURxFc1RBDimA3IzJ1nZsUJPnWwsgIZQK78ymecEP6XRfDRdz9JmflJpscfMyPYQv7FV06zggl3s9/589qcpfTnp96jTvzh4p5zIvALdWhobHXdeRPincpTgbE8YQW+MH0hbS3dK+8G/EiXnBAs3EddhRC489AvFd2EUrUeTYeLv0E9OotooEQDXmQbHBcG9Fe96f9elgZcqaxuAH+R7mB9Xv2FcdJ3MxUQ98Vrt9ILMz6jxWu2yHUwSICkqzTIPcEiHMwWYaPMR4jwZY7Ayrd/QNFlz9qt5MSCranVN9I3nmnKVDzPQrhZhbDeMHfksbzsGr+QGOuK1394d/B1+K/5r9QSV2yGkYSeeH9e0umCADI9WPdHDu1DP2WLxtXNuWcMYYAlsmTdVrr1kTekPg3+pnrj4R8+ipAk0DALXVlQ7Iqh6eDlxh0ogt8hxe7zVmygLTtZAAvxccSWOp8j7wP7kSpJwY9cCaG7t6emzqeH3piT0tpNB66LrkCXnjSKvjrpqHi81wQXfszsAcu4hJ8V/EkFjkUdeq9O7UUQMTzikF6d5V5QYrNy8w75yID4oY8uLF1Y6nxiPF5xLGI72e3C/0azCDHyfxYN8SMbZ1LoxVx3hOfn5kc8BT1r72/v+uAwovNAYPiVFBx2mXWpOaFFj5EvtJejICLx4CNOR/a3LEmILH2GaF/qQQNi3Y+iYN8TJNw+DnfMh7DzkgRfgNPh0AuIikqsS/bwO9P8hBCZAZIyEkQqzB3X5rbZT/NfqUdchvyPV2bSsx9+KsXNyYQQGSIaJGHQ9RsvPZnPMQ0ovM/HWYWYIw9FbFJ8lyGjxguCYjzekNnrUdwJT2ExwoKCVQnRdcWRLgUhPChlSFW/CLdcCyEGY/jJP16qcdGoCwvqF//8zXOpR6d2tQqLOwdjud763zelCN8IVWrwPFyJDEaHQlwCPHfEL9xRCiMfNuzu7ssEzXz84FnjmMTrICzeOsIGJUshDM25myJz7rRbeUJBGyq+erHdqBmhmbdTZN69dqvx8PU5kYom/8duZQ+/M/nfjzBbkKiRYJAIkRjSJUQkKBxT84XPs34o9YeLY1OMmT7G0YAJjWREBPmhJx6NZwYuPmGkDJggw5I5xyTgHcK7g+4zboQVzM+HDBpAONoWF0kROQRVrsnewU80yMHUTd+ePF6Ocxl4ctLty4y7A1irqCOVrhFp7isRHIuW1qOH9BYRdG41Becg7aEFK8azNQNvp89WEG8QbrRUxfmw1LGgygLxCvdCFkGXpgHSNYRyH8fx6UceSsePGMjPJfV4q865brFcP8T2ph86rVEI7aPIpjl2o2ZE15qJmBub2Pqp/Add6WpOkxdCybj4bXcCiA7EGFtSHJUmicvcpL9YuryZ9yFTda1xkwkP3gm4owjuO+eMF2sD23hf0uHNhGGduiJDuJl9JpywbhAGWCloCPI7tkIwqz2KKt0xyUl//Uy4+4KFO6x/D76vcPq4SgD3gJGVTh97SHy7tnDKk/UVpx0lHwIo+sSHSTpcPAIXv+6ZeOMeblhgoaOI9KovjKPvnX88nTh8kPmoSRWP1q8aREmDEQvvt7/yi9g+M21XTYnt22x/NT7RCjPIfE1p0kKIxIIMAe/8pys30Z+ffo/+9sKH/LWJEV3SW4UNAa7vzTiVmoH6uowZGT9nFEWmw4gG0WlsSVxz5jhpOQwLD5lvNhklzk18fjgXAogBEmD9XXfuBPr5ZZOksQ3c0beumkXrfvI6m+tmwgXpiP7dxUrFdZEWMgHxRhxguDM3wHamD4N04FS84+g6dMvlp1P3Du2k2wriHdfKhItfbxQjPDgf4YSVia4mKE6++MSRsr9bx3ZJn7tcTf4kPLA8wteqi/2VX/hamzkoa0ywlf3R+PgLTelGTWmyQoiEh4SCflu3PfqWzOzw4vSF0rEcX//uqxJrt2A7l8kDfrGXKa+D9CiZgSTqg790leRIvCGymAq2AuR3qihjd7zA2WTi4g0ff+5xw+lHF0+kLiVtpCgTA7jjGu45uQzYuxzsbp73nv0V0q3mC0cfRndcO5nO4DWCiWeM1quD+R3EoNg4vgpsGIdcvIkID0CxJO4H1i6HUNxSIeFnwcTH4qljhoobBLSuIH7gT8/O7em2q8+iiSMHy+ASGAgC4LrV47JqqXI3x8IClBatvTrTd8+bQLdddSYd1rebfBwBfIhIvSj8FpeDyedk5utkpvvKN2obLn+Xw+2vRqZkEAemdpLWJIUQGRESzarNO2XGiakLVkqCQMf1OZ+vl9ko4OASV1Ui48V4IccnCljGhRM61vxfPIBf7OVBCdl7ndJ95bRo7RZ685PPpYm92wc/lBTYuEEHasyd5zK7lHB8ZiqGc/Ch8swxEPUfrpksLSVhxaBYE5kuivRcBhxf2CKB2z7eZ7YjMgUSRvOB9YNiul6dS8RfebdsYFF3JzOdRGJiGcrCmTjWeI+y7YaTDlwP7xKKR109YfxaKRc0BMIs9J1pwvCB4k82Vls2SDExhweDR9z0pVNkbOAThg+ScKI+EvEM6y4xjo27GYkJjWjCHGeYsumGC0+kP/JzOpM/MtDACHEMAQSwwkv4OUBscU8H3aN8gJjj8jGlFQz7MvkP/SLF2DKM+QuyWijNEvMF67b4Cykw8hryF9e8xSXwH/ZlItxLoKjRFiosocCwy22Iak7TG1mGF7zi+PpFk/hPlq+XzuxSjMY7TPN3ooE9O9Gogb2oN1uI3TlhYtoafKmjngEV8dIku45UJeQw7eKMG82+t+/ZL6IHkYYbEjc6+Pfo1JYmH3sETeKvcBSfASRgpGuXaBWTseODYdGazfQ///dKFo1OiH7AGSbq59y5mYAQucwf/dXWbN1F81ZspMX80QLhc4IBryCyEC20HB02oLuM7NO7Swl1btdazsc14VPiM0TGjm4WiaHBncBPiEUuxNCBjv0Y/DqbVwlhRppBI6P6wD0vxAl+rt9eKukBM6VgPkRYyvhIwD4IG4o40WcXI86MHtyLDuvXnXp2ahf/wMHzgl/ee8O5MrUax3Ni3OP6rYuLJM03KAhUNg9AySv4/Wl63ScQXLz4qIP48f0v0bbSMrEakLgB3kP8ROOByrCpY8IXMxovQAAx+gg6VmNB/zQjjmjCHZDm2hg1Rr4+xTf2jxd8aeMrFn2uIMAY0xRFY5j5fNvuvVReYawJuOFrFAk4EDCWCjJcJHKchwVFZmeNO5xOHjVErqUcjHu+78xbTnc8+W7aPoSwBlAUd8e158hzrQnutYc/XvCs8ZzchxXeBbwbLlN24HQUb2YjvC2VVB8m+NhAi088A/nIwMdpkg9T+cjg8zWGlfqE37GmPcTaX5//kKbMXkId2hTLF7z3VlwxJLIrU3SC/SiWMhkYEpkc7snQ8GXqxMsLMuIIf8GGkSHzSZI4+RCz5vN4QZNxiB/+wT/7nzHXcecgE8C10Vkb0yaNP2KAiLJmqAfzs39NkRFTTCd5E5NeEF/4OEG9EYQwVaabCfjtfMfZ5p2pTrbHeUkWbkc259cEuVKa61XHvI8NwcFxl/y6CLo7SnbzQZmCly5+Qa7jWGme8HvSNIUQIcY7jsYOv3/sbRnqChYBRAw3k3hLSROW2/Ac6s51TjgEv7FGoqp2vj3QrPg8d2IK4AdEFtdAIwLMUNGbLZqvnDKWzj52WPxaLRUnZgvXbKFfPfyaKcLk7WTRCncUO19+6pH0pZNH11oIkxF/jta7lvxM6guJYs8Lr3GsNBbQwdxVUjQgyO8gJhA/jJj/pZPGSPEKxAVFkxAbLBAegPSG45FZxhfOZGXxuDkBxVkuYbp10vPtb+zj/9XA5ZE5Q6ARFtQ9obk9ili7lrShc1n8vjV5PI0b1l/Od9dqiSD6nJBhNBnUu7oPm2TAHWNPnjDCNPjIJQiGLPhtnJQcI3GrcazkCXlhEUoAICay5cE6mIypenJB0J07pmB6/eOlNGvRGtq2B50qfVLvgDoIKepkv5z/ub5lCYENh/mNa5CIMhoGYHYLDAeFxgkoyhszpLfMIN+nawc5R6myBjFT/z+nzEzbSMZYg5UsgoPpxi+elPTdUBRFyQbOPxqnaBSXlIvyH+RhdcnIEHpkoq5ZNSYgRVEpWgEuZ3Hcve8AlbMFhjo8EUW+lhsL0l1XQmNjwa6qEQ8h/zC/q+oCcX1Ye6hCjKLJPP9Awxw00kFLOIgfZhRHp2B08XBhxXkAW3WJg6aOFIFynMxfuZH+8Pg70hLXFCHbAzwglszz9svUS+hD50RUURSlpkAHG0wIcRF05EV+5c30cXU0Yd9zoJzWbi2VDvJl+yuoPGTEC32FMBEtMrx0zc3dbXj93rF3P63YsJ1Wb8Wwa1tp/Tb2u7xC6uZcnysc7RrI4Lf3fIfx2RR/4jrIuNERW0SVz0WrwjatiqSoFuM2Du3dlXqwAGJUfYww4gYVduB8XCfJpeoNhDvZvTU2TsQwQwTqe0v5wwWteFO9lviIQHeUc8YfQd8+57i4iCqKotQGzhfrXwjhPa7gzaww3cqKTTtoydqtMqM8RGovixMG3m1dGBTxQDcDWFOt2arqVtJWpsVBV4dMyPV4jat5M34IX1k5X6MyRKs27RSRPMDbyHjdbPawRDDjOQTS+ABMRhvwo4m3X8SuXZtiaemJvlgYPR9N+Ht3LhGhbtOq0MxW4EEsP/6P4DS0GKErAK4pI/XbMOQDiBN8eiA8nyzfQH957gOZTLmIRVDiKwkQTNwP6ldv/8Zk6SeG593QcaooSvOB84/6E0LjbZXVAyts/oqN0gH+01WbaPvuMhk9BH3sUFc2FvVmg3qJ9YcZ33PxlY8QSDj4fyb/0G/MFG8a4faCM5HZwo9sOuLDSsFJLqNvDHALuDQaEGGmd4ymgqHn8k04UCeI2cfxoYK4TSWCCDM6YeMj4+avnsbviZlFPp/uRVGUpgfnIbkXQvgGL53wbNq5h6Z+uoKmLVxDa7fuFMFBZocpbjDg74kjBtERnKnhK9+BAEmw8IO9gU91zfDkJu2tmt/ys8p/+Z35GghX4vmelfiR2ZeGwRUbYtLUqZ+upDu/da402ME9NJaAINpw5fXbd8sM9DMWrY4XTad6FWEJ4p3Bu/Odc4+TaXi0SFRRlFyQcyH0ZrCo75vy0WIZB7S0jC0//pLHFz/GEhw9tBdddPxIGsUWoAOhgMQ0phXlSIyQppjdQjhcA5K7n50qlhdmR8BAy959DYl7Pxat2UK/+c8bUhyOomVEMJ5/MiB2eGcQ3m9OHk9nHHVoXEwVRVHqCnQwZ/0Ikbkik8NXO/qB/eyBVyTzRZ0c6tXQHB5FjxedOIJuufwMEUFkjPiyNxmk+fLHurFBELxLUwFigucg1pKNyPfmr6AP+GMEc/a5CVgbDxOm3l3a09A+Xc1IPGIJivNByPvA+zB8HVrf3nDRiUYE8a7YYxRFUXJBTixCI2Q+2r5nH939zFT6ZNl6aSmJDs/IlLFPRrzv2ZH+8p0L5Bz0rUP9IPYptQPxLg+P/yAevVGJ1revzFrEVvkSGZj4itOPlhFs3LNqLNz1UT/8ywdfo3XbSmXMVbwnACHDfkzKi24vY4b2pmvPGi8TvjZ22BVFaX5wnlL3olGcjbwJLUExJ+CCVZvY+mgllonzGvuR0aFZ/LVnH0snjRoibgDHmYzcbGtGVx0TjSYu3U9EU2JcoWHM8o3bafrC1VL3BpHBTAmXTzqSvnBU/syBJhYrW3sI668efl1G2yngjybcF7qloBQBszucPW4YnT9huHxUuXMURVFySU6E0NU3PfrOJ/Twm3OoA4sgvuYTQRaGjubYh2LRk0YNpmH9Md1Ke3OABwRJQmXzPayas0C6R5D4IOSO+b5T3fmWXWUyYMDS9dto9eYdMkYn+kqiKwj6MU7kOD7vuOHUh8UQ4DKJ0YhrN0bcOmGbtWQt/fGJd2S7MhKRYvQTRgyi8zncEHE5lsPYGHWaiqI0f3IihC4jveuZqfTGx0ulVSKawqcCx7o5xNBNAmI4oHtHFsfeMst2p/atU2b8znoUPAdVP55dzP8GQ4JV9ScpB+22gUM8ZAonLD1Y3BijFH0uMX8eZl5Yum6bDEYgo+dUhqWfJWboP27YADpp9BCJVwCRQV1c4nXwYYIO6uibh2MaelooJ3CoS378vbkSbsz4PqRXl/h+hJoPURRFqRc4D86dRYg+grc99hbt3V9JrYsLTDGW9RmX8F4Ex8MF43BWcgaOTBrFX2gUcXi/blTSuhX16VoiQ5Khk3rrokKZyLQ2RWOpbq+mN53qyhCyuoIJRjFaCuISjY1Qv4eBBvaVm/kPV2/eKUPHgYpwWOrOIGKIR8RPL7acDu/bjcYO7U1HHdJXZlAH7t4TwyjPg3chPlFX98wHn9IFE0bIhwjcc3BLNQbhwCAFIFW4FUVRcg10MKeNZTDDN4pIUVSHYdL8nEljVE/MDOHG1xRFwRXjm6b/GEQAVgkyeogBOk6jaT1EEsVl/bt3knkHcR1YPv3Y8unWsZ3sg98YPxTdM9A6FQsa6jRkNopbwlyDmCwWI+SYIdwwj6HpqA+rDqPZbN65R0aziUTM+KRwh/BhNns+XHyC+FWEjFUNLcB9IJ7EQuIN1MFCtI7o34NGDOxBg9mCQj9MxA1AfMKrxOLERHc8p7uefl8apHzz7PHxj5rGJB/CoChKywE6mBMhBPDGZcQQxE9XbqIFqzfRzj0YwmwflR0wFg+sEGR0OBLiFW85Kv9NMRi2MS4p6hPhr9QtiqAgI0dxGcmQYTjf7zMDaOMmIH4Qy7atimWoM1iYmDRX/MR1xX8cbcXA/MyICIiNJaxlm/8Z8UYRY1RmQ0CjDwibDNfGouj8d+fgOLknKJ4NF8KBPpYQcxwDK5mPRkjleIy32rV9Gypp24oG9OgoA3ij+BPFh/jAcMg1cB78tW7AhNXEqXNfv62UXv/4c3p+2gLqyP7+9boLRFxxrIufhgbhb6RLK4rSguE8L3dCCBK/5kUgykO0bnupWDyYSPWzVZto/fY9bDGFpd6rtKycj4vIuciqXUaMFQTCzBhxcEaOI02wqwQKwI+4YMbM2mDEwPzJAQiP+4G/HDYIrgizFXpvPLiAY4XwmjCy4LEDRBEtJXF3qKNDvWlrtni7lrSVok7UuUL4sA2h9yIix/7hUi7egLjb395wYKqqt+ctk1alEENYlT//yiQaMaBntWenKIrSEuC8M7dC6ECmipw4WQMN4BrTbC0tk4YfGDkEjT0wBNu6bbvZmjJ1YxBKNxg2/IS3yKudFej13A3TBctK9vM+c4znoFxhY8zJDYp0pRiUxS3KAhyPUV7zlggThAohQV2oDNjNlivCjN9oMNS+dZHU7cHSgyXrBNWLV/jwx+1NJXxg447dbJlvppmL1tAittRhtWLMTgwU/sOLJtKIgSqCiqK0XOpNCL3EM2l7lVTi6DCCZyw7zAqxfU+ZZN58pvQvw9ila7aWSmtJZ/Vh2V9eKcWTEFQIq4gxX5R3ydr+r37tlIHhHZ6ocb+gF3IHECJeYWie4sJCaSAEAcOUTCjOhLBgu2endlK/CeGDf3Dr1blELD2QbmopCCyuy1Fmrscr97jkL/8WgUVALNi/lq09tCidu3y9DGeGhihwd8dOOGIAXX7qkdI9AdeA6CqKorREOE+sfyFMBy6deHFk1LKWv8mByKERCsD5OBZTLO1icdzLFiREEQII/0UQ7XXwG7NgSN0bXwfdEfahK4eRGF4svA/nYpqlQinuNNMv4QhohhFzIyrwByLXsS2W1iJsOA4+Ggs1udDFr2bD5pD7Rhwkc8ca+xJA30FMYfTRkrUigpjbDy1Lcb8IDz4UcBqsTfQrxEDnAPvVElQUpSUDHWxUIUyFExIEraqez4iACFETyrxxD/EYtsGWFe4B++x24kNIJVCw7raUltHO3fvp42XrqHRfufQtxIeA+ziAVYpGN9hGfSOKXk8ePZSOY0tQppHii+HKTSkeFUVR6gPoYF4KIXDFgvFuFxYRFvkhm4L5ebC7yeONrQfgHPcJP9gh7ma3BffbHezcGe8hB5HowAeKF9UOrMJYlHYjCbBWUQwMq23j9j00+/N10jVj3fbdtGnHbhExFAHDDzSycY2EcOGCoJ8G9OhEY4f0oSOH9qYhfbpK61ygRaGKoihV5KUQioDwggG853y+norYgsEs9VgP7NlZZlGoCXJz4in/iSUTAHP75q+5tpe4O3a48+W3+SnwduJ52bCHrTmIHRoGQcSWb9gu42/iWqgfxW9pXcrXct0uCguC8nGAcwCCEWUR7N21A3Xv0JbGsPgN7dOFjmAr0FssC0GFeNYmnIqiKM2VvBRCBywcDB22jMVh1uI1tGrLLsn80U8QQgDjp3fnEjqErZ2+XUviVg6KFDESDTrdY0ErzYYAYUNjHvQfRDElrDdELMTHdZpfu2WnFGUipCi63Mlit6V0L4XCpkgTrTlhsQHpY8mL65hvWpFC0IwFiAEF0PAGs/pjZgZ0sUB3CCd+YjlLAEwYVAAVRVGqk9dCmAgE4ePl62l76T6avXSddKtAy1FMACz1XZLVG6unXesi6SCOrgnoMO4tCpRfEAZzuBxXxMIindy92P0OjAaDqaOcpMR3IfrYCUWZGCYNAweg2wdGlzH78d802pGoNv/Nb0a6ekC7eFPCBM/Yeo2xNkLI0bITDXXQeR7Dp2EEGbgfzhafK+70IgLIa20EoyiKkpm8F0ITsuQZO4K9l0UH43BCw3bu2UdzV2wUcQToSrF99z4Z1gyTu3pPF1GCr/bOnf4I1i0O3N2hifs8oCUpOtVLS1G0NLUXhDDjF9ydiGIXinvRyrR9myI5D2FCse+w/j1kRg70R2xbXER9unQQoQaJXS3EerThg5+4lqIoipI9eS+EiUAsgBOXTGzbXUZb2YJ0s10A3C6sSdTBQTR37j1w0H5HYqSkux72yfEisHDwiSVa0raYOrHYYW491O3ZvSKS6JrRvWO7GtV5yv3DC76gWnyKoih1BzrYpIQwEQQ9aeDZEcKWjVbAqnICm0vSdZT3Uu0esOEJN34mirSiKIqSG5q8EGbC3FkSsWQHoy3ZiWVtMJdOIdSMuXx2lq2iKIpSPzR7IawLiBSvSLlIglviPkVRFKVpAh3MrvyuBZIodNh2biqCiqIozQcVQkVRFKVFo0KoKIqitGhUCBVFUZQWjQqhoiiK0qJRIVQURVFaNCqEiqIoSotGhVBRFEVp0agQKoqiKC0aFUJFURSlRaNCqCiKorRoVAgVRVGUFgzR/wPQKuUq03Ir4AAAAABJRU5ErkJggg==;" vertex="1" parent="e9nx1dZjpdk4EGY3y0fY-42">
          <mxGeometry x="40" y="10" width="71.43" height="30" as="geometry" />
        </mxCell>
        <mxCell id="e9nx1dZjpdk4EGY3y0fY-51" style="edgeStyle=orthogonalEdgeStyle;rounded=0;orthogonalLoop=1;jettySize=auto;html=1;exitX=0.25;exitY=0;exitDx=0;exitDy=0;entryX=0.25;entryY=1;entryDx=0;entryDy=0;strokeColor=#FF3333;" edge="1" parent="e9nx1dZjpdk4EGY3y0fY-63" source="e9nx1dZjpdk4EGY3y0fY-45" target="e9nx1dZjpdk4EGY3y0fY-27">
          <mxGeometry relative="1" as="geometry" />
        </mxCell>
        <mxCell id="e9nx1dZjpdk4EGY3y0fY-53" value="Response" style="edgeLabel;html=1;align=center;verticalAlign=middle;resizable=0;points=[];" connectable="0" vertex="1" parent="e9nx1dZjpdk4EGY3y0fY-51">
          <mxGeometry x="-0.2063" relative="1" as="geometry">
            <mxPoint as="offset" />
          </mxGeometry>
        </mxCell>
        <mxCell id="e9nx1dZjpdk4EGY3y0fY-54" style="edgeStyle=orthogonalEdgeStyle;rounded=0;orthogonalLoop=1;jettySize=auto;html=1;exitX=0.75;exitY=1;exitDx=0;exitDy=0;entryX=0.75;entryY=0;entryDx=0;entryDy=0;" edge="1" parent="e9nx1dZjpdk4EGY3y0fY-63" source="e9nx1dZjpdk4EGY3y0fY-45" target="e9nx1dZjpdk4EGY3y0fY-46">
          <mxGeometry relative="1" as="geometry" />
        </mxCell>
        <mxCell id="e9nx1dZjpdk4EGY3y0fY-56" value="Request" style="edgeLabel;html=1;align=center;verticalAlign=middle;resizable=0;points=[];" connectable="0" vertex="1" parent="e9nx1dZjpdk4EGY3y0fY-54">
          <mxGeometry x="-0.1238" y="1" relative="1" as="geometry">
            <mxPoint as="offset" />
          </mxGeometry>
        </mxCell>
        <mxCell id="e9nx1dZjpdk4EGY3y0fY-45" value="Business" style="shape=module;align=left;spacingLeft=20;align=center;verticalAlign=top;whiteSpace=wrap;html=1;" vertex="1" parent="e9nx1dZjpdk4EGY3y0fY-63">
          <mxGeometry x="60" y="275" width="400" height="90" as="geometry" />
        </mxCell>
        <mxCell id="e9nx1dZjpdk4EGY3y0fY-58" style="edgeStyle=orthogonalEdgeStyle;rounded=0;orthogonalLoop=1;jettySize=auto;html=1;exitX=0.25;exitY=0;exitDx=0;exitDy=0;entryX=0.25;entryY=1;entryDx=0;entryDy=0;strokeColor=#FF3333;" edge="1" parent="e9nx1dZjpdk4EGY3y0fY-63" source="e9nx1dZjpdk4EGY3y0fY-46" target="e9nx1dZjpdk4EGY3y0fY-45">
          <mxGeometry relative="1" as="geometry" />
        </mxCell>
        <mxCell id="e9nx1dZjpdk4EGY3y0fY-59" value="Response" style="edgeLabel;html=1;align=center;verticalAlign=middle;resizable=0;points=[];" connectable="0" vertex="1" parent="e9nx1dZjpdk4EGY3y0fY-58">
          <mxGeometry x="0.0095" y="1" relative="1" as="geometry">
            <mxPoint as="offset" />
          </mxGeometry>
        </mxCell>
        <mxCell id="e9nx1dZjpdk4EGY3y0fY-60" value="" style="group" connectable="0" vertex="1" parent="e9nx1dZjpdk4EGY3y0fY-63">
          <mxGeometry x="60" y="415" width="400" height="90" as="geometry" />
        </mxCell>
        <mxCell id="e9nx1dZjpdk4EGY3y0fY-46" value="Persistence" style="shape=module;align=left;spacingLeft=20;align=center;verticalAlign=top;whiteSpace=wrap;html=1;" vertex="1" parent="e9nx1dZjpdk4EGY3y0fY-60">
          <mxGeometry width="400" height="90" as="geometry" />
        </mxCell>
        <mxCell id="e9nx1dZjpdk4EGY3y0fY-43" value="" style="group" connectable="0" vertex="1" parent="e9nx1dZjpdk4EGY3y0fY-60">
          <mxGeometry x="135" y="30" width="130" height="50" as="geometry" />
        </mxCell>
        <mxCell id="e9nx1dZjpdk4EGY3y0fY-36" value="&amp;nbsp; &amp;nbsp; JDBC" style="shape=module;align=left;spacingLeft=20;align=center;verticalAlign=top;whiteSpace=wrap;html=1;" vertex="1" parent="e9nx1dZjpdk4EGY3y0fY-43">
          <mxGeometry width="130" height="50" as="geometry" />
        </mxCell>
        <mxCell id="e9nx1dZjpdk4EGY3y0fY-38" value="" style="shape=image;verticalLabelPosition=bottom;labelBackgroundColor=default;verticalAlign=top;aspect=fixed;imageAspect=0;image=data:image/png,iVBORw0KGgoAAAANSUhEUgAAAgAAAAIACAYAAAD0eNT6AAAgAElEQVR42u2dC7AkdX3v///ueZz3Y1+wC7qQq8CisksQ1Nxc2VWwKlVRWFMm14gKVTGlAle36kYhpVELlNyqmwQFNYmlLlC3UjdRQM2NxcPsSt1bgSUWi0lcEYxsYBfYZXfPe86ZR/f9/3qmz5lzzsycnjk9M909n4/VnscezvnPv3v+n+//0f9WCgAAAAAAAAAAAAAAAAAAAAAAAAAAAAAAAAAAAAAAAAAAAAAAAAAAAAAAAAAAAAAAAAAAAAAAAAAAAAAAAAAAAAAAAAAAAAAAAAAAAAAAAAAAAAAAAAAAAAAAAAAAAAAAAAAAAAAAAAAAAAAAAAAAAAAAAAAAAAAAAAAAAAAAAAAAAAAAAAAAAAAAAAAAAAAAAAAAAAAAAAAAAAAAAAAAAAAAAAAAAAAAAAAAAAAAAAAAAAAAAAAAAAAAAAAAAAAAAAAAAAAAAAAAAAAAAAAAAAAAAAAAAAAAAAAAAAAAAAAAAAAAAAAAAAAAAAAAAAAAAAAAAAAAAAAAAAAAAAAAAAAAAAAAAAAAAAAAAAAAYAlNFUAn+fYPD+yu+Q9FpVK2GnNctavRf29pdbhYUhP1/v2Gd+85SC0DABAAoAMyt5U6zzVH5YLarvzPtRpz1xC6h9vGC9wEBlMGPzBMmM+frpTz+ZKjnic0AAABAKCG4FOu6ZVrtcuIdNSIeldgqQfFjdCbYSksyMdJf7SBgAAABABInuQfODCm+tQuW6Rumd67fDTCNx/H2v7H3Vi9UyZMeQ9LODDH0VLJfCyqwzfs3TPBVQQABACIeo/+PNOj3+X16JW6smOij7v8AwQD11U/ns/lDs8VFg7ve//e57naAIAAAN0U/m5Lqd1dl31S5V/FwsK8KuQXym8qEwpcbxrB/bHjqIPFeXV43w17GSkAAAIAtEH2DxwYS2XVbtdSV5qTujvUeXrk31j+8zlVKOTX+rHDJhkcVK7z44U5dZBAAAAEAGiZ+8qr8Hebs3hNZIWfYPmbHr7KS89/bfnXDQSlkvO9m9+/9yBXMwAQAKBhL9/uU9dqbV1j9LNbhvTduFg1gfLPzc0qxymt/02otfl96kHXcb5n9fUd/Nje33qeqx0ACAC9Lv0fHjjPdo30Lf1htaKXj/zjL/+6owPKvWfBUQ+yoBAACAC91tPPqutrSR/5dxeR/nwu1075EwYAgADQa9z7wwPXe8P7rnttY6ci/27JX3r+MgLQlTertg46pdI9+XkTBlhECAAEgJj39mWIX1uf0Mq9Pshtesi/N+W/PAioCcfVD6qi8+UbP7D3MO8iACAAxK23r6wPe4v5AjsV+XeDYiGv5udzkSybpa3DpVLpyze+f+9+3lUAQACIam+/MrdvafUJ/+E5zTk1BmZNnPwL3px/1LEsPVEqOV/Oz6s7mR4AAAJAhMSf6lOfNLX9iVZ246Pn3x3yCwveEas3tGxNrPSXVSazn9sJAYAA0EXxW0b8plH+hG5xG17k3x2k1y+9/9i+sc1Fp217f266sI8RAQAgAMSkx4/8kX+YIwKO4zI1AAAEgHYji/sspT7X7Bw/8o/AS/E2+JlTTqmUvDd6OQjsY7EgABAAwu71/58Du2xL/YWSvflDsGosvJqknn+C5b+CwyXX3cfzBwCAABAC9/3wwOfNh8+F41R6/p1GpD8/P98L8q9+69+5kHO+wLQAAAEAWuz1p2z1bRXSk/iQf3fkLz3/KGzw0wWeL7nuDYwGABAAoAnuMb1+HVKvH/l3seffu/JfNhrw8f96zT7e1QAEAGjU6y+v8H9AhTLXj/y7RVw2+Okghxdcdy8PHAIgAEAt+cuQv6UeWO8Kf+TfffkvIP/VjYFsImTZez/2vncfpDYACABQofykPvUX67mvH/l3nzju7tfxU+26N3C7IAABAHz5K/XtcBta5N9ppNdfSMgGP+0+1Vpb+z7+e++5k1oBIAD0tPxVyPLnPv/uyL+I/Js71Vrvv/H3rrmB2gEgANDzp+cfP7H1zgY/7TnVrvuFG9+/9/PUEgABAPkjf+TfK/JfqkjWBAAQAHoDb1tfWx1gwV98Eekv9Nzufu071Y7r7mHDIAACQLLl/8CBMbtf/SpM+TPn33n5s8FPyKdaq4m8417KPgEAySFFFayokH5va9/Qe/6RT1rIH/k3/o/GslrLlNgeahCAEYDEcd8/HLjW1d4uf/T8Ywgb/LT/VLva3XfT7+3l9kAAAkBy8Lb4DXHonzn/zsufrX07cKqZCgBIDEwBVLD61Cdd5B9LCuzu17lTbd4jGcuSh2CxPwAAIwDJ6P2HtfAP+XcWNvjpzqnOu+75jAIAxLzjSxUoZWfV9drIX1cSUauHNLXr/R0dOVwVj3KuceSRf9dyXlpbn6B2AeINUwDKewraJ9bfULLgr3OvgQ1+un2qtXavNx/2UcsAMXZfr1dA5RG/T/WA+hMhf3b3i86pdhx3782/v/dBahuAEYBYYmu1e32NJT3/TsHuftE61dqyrjQfCAAABICYYqkrW20x6fl3Vv5s8BOtU20pdxc1DhBn/fU42lEtNWLIH/n3+qk2f283tQ7ACECcG83zmm05kX/n8Hb3W5j3Fv5Bok81ADACEPWGFvl3Uv7z8zmv5+9WXhJHtI67/uYHjAIAMAKA/JF/eBTyeZU3PX92qgp2qnXX/n6RkwBAAED+yD8cFubZ4KdHTjUAEACQP0ZYkn8B+cfmVJ+7aRMnA4AAENMKsG1VbHBfOfLvUPFd19vXv1QqMuwf4FRTRwBAAFh3ALDqBgDk3zn5e7v7OWzwE6dTnU2nOSEABID4ks2k1Xy+gPy7VXzHUfOm5+8a+dOrjVfPP5OyOSkABID40t+XUZMzc8i/C0iPP8cGP7E93YwAABAAYk0mlVq2DgD5d07+srufbPBDzz/YqY5SPVlaq/5sxpxHzg8AASDGDPZnvVEA5N8Z/N396PnH93T3GfkDQLxhJ0DD8GA/8u+g/P3d/WDtUx3VWhoZGOAEATACEH+01mqwv0/N5uaRfxthd7/mTnVU62mgL+vdPQMAjADEvqEVxkeGlGXp6Bc0psgGPyJ/iP+pHqX3D8AIQKKSkNZqdGhQnZmawQhtkD+7+yXjdI8ODii70vtnEgeAAJAYhgf6VW5+oea+ANighaKzu19LpzqqdZVOpdSIeY8gfwACQCLZMDqsXj51RjlOBJq4mMtfbvMrsbtfIk63jJBtGB5E/gAEgARXiG2rzWOj6pXTE9ig1aJXdvdz2N0vET1/YXxo0BsBQP4ABIBEI9sDbxwdVqcmp5F/k7C7X/JOtcz7y8p/zigAAaAnkNsCiyVHTc7MYoQm5M/ufs2d6qjX06ARv8z7I3+A5MHNvI16PkMDXhBA/mvjbfBDzz9Rp1rkPz48hPwBGAHoTWQqQNYFtH0kIO7yn89xsSTodCN/AAIAVEYCZOeztq0JiHEry+5+rZ3qKNfX2NCgGurvQ/4ABADwekSmQZSRgJMTk+HeIhjjVpYNfpJ1uuVWP5H/IAv+AAgAsBy5O+DsjePq1YkplS8Ue17+MvRPzz8ZPX+5xU/u8+dWP4DegUWAzSYm2/ZCgDxBsBflL4v85Da/Ij3/xJxqucVv89gI8gdgBACCIAukBrJZdfLMpHKaXfkea/nPKsdxuAAScKplyL98HWci/ehhACAARK6FzqbTatvmjerM9EzwRwnHVf5G+rncnHevP8T/VPcb6Y8PD3shAPkDEACgxV7UxpFhNdTXp05NTatiqZQ4+TvmNeVys9zjnwD5yxTW6OCgFwBiflkCAAEgGsgCwW2bNqjJ2Tk1bY5V0wJxlb+3tS/yj7v8LUurof5+NTTQ74VW5A8ABICQkX3T5bHCsnHQ9Fwu1q1ssVjwVvu78gJY7h9b+Q/29amRgQFl21YSMikAEACii7+4qhwE5oKvD4iS/At574l+EF/5e+IfXC1+5A8ABIB2V65peDeODnk7CcYpCCD/eMu/kfiRPwAQADqohOogICFApgZC3U0wRMq7++UZ8o+Z/GXUqT+brTnUj/wBgADQZSVIEJAQIJsI5ebz3qhAw7sGOi3/XEX+EBv5y6r+oYE+NWB6/dWL+5A/ABAAIqgEaagH+7PesZAvqJncQlenB2SFv8hfFv1BPOQvt/GJ9Ktv50P+AEAAiJES5PZBOcZHBr0QMGvCQCjPGWhC/uXd/UoM+0dc/imr3Nvvz2QbDvMjfwAgAMRICTIqIHcNyFEsOd46AZkmaOcUwTL5QySFKtLvM718eUKf7NUfh6ACAAQAlNDqSTG9u/HhQe/IF4veqEDYYcDb4Gd2tnyPP0RKqOuVPvIHAAJAApSQMQLIDKcWw4CsGZAwMJ9vfb5+cXc/FBGZMy2il/n8/kxmXdJH/gBAAEhMf3BFGDCHTBPIVsMSBuZMGJCPQUcHFnf3Y2vfrp5pWb0vD5OSQ3r7a63gR/4AQADoUfmvpHzfd2ZxFbisG5AgICMD9QIBG/x070zLXvy+8GXRZxi9fOQPAASAHpN/7R6lpVKVWwvLPf1yIPCnDeZyc2re9PxZ6d+ZM52ujNb40m9m1T7yBwACAPJvuYiLgUCVA8HsXMYcWVUwgUCOUqnkBQNY/5n2ZZ9O2SqdLkufqxIACADIPzJF9PccqMYPA4Viydt/oPx5kTNdR/T+UL7M4XvCT6W4KgGAAID841fEtNdzTam+7PLvSxAoOo4qmFDg7RRY2SI46aMGEpBkfaQflET2st4iCqJH/gBAAKCZbXsRbdPDtSsr1YVhNbBq5EAeaOS6jjd6UP5eaXFTIVmUWIrIcw7kdaQqc/DayDyTLl/2tmV7c/PSq18UvMtVCQAEAOhR+QcdOfBZOXpQC29EoUYgyBfWN6KQqTHfvkzoCTUq8gcAAgDyjwXS0661En7lmgTqEfkDQGewqALk3/MFRf4AQAAA5I/8KSoAEACQP0VE/hQVAAgAyJ8iIn+KCgAEAORPEZE/RQUAAgDyj3YRXeoS+QMALMJtgD3V83d7uy6RfxsoKQBgBAB62gTIn54/ABAAAPlTPOQPAAQAQP4UD/kDAAEAkD/FQ/4AQAAA5I/848req/cc5E0LQACIKfp5TID8KSoAEAB6zv9uNAIA8kf+sXvvKHr/AASA+DKTW5jABMifojZPbn6BFhSAABBfTpyeOg8TIH+K2jynp2Z20YQCEABiy9z8/K5CsYgJkD9FbYKS46ipmdwYTSgAASDWnJmewwTIn6I2wczcvPfxi3/9vxgFACAAxJeJ6VlMgPwpahOcPDPlfXS0wygAAAEgvuSLxc6FAOSP/GPO5Myc6tq0GQCEBk8DrPDSqQk1PNivbKuNmQj597T8U7mcGj5+zPu8//Qp1Xf6dCzfK6cnZ9S2SgD49ZPHPviZSy/9TVqQNuM4yX1trjtpjqe9z4vFo/rIkaOccAJARxDhy4ImOU6cmVJbN7ZpRBP595z8N/3rT9X4c8950h9/7tmEeMhRryktyWi0L/NBpXW87OTGbExGyqt1cutVXpv/+jIZ5e7cKV8/Zn7fT80F95iyrMf0009PKAgd3esV8K2/f9SdzS3dz3z+ti1qsC+bOGnNzs2acF2MfkFjLv/NRvpbDx3yPiavo+aaa6hU1W5rNZJNFyyTC5B/j5e3/eX8gfkb39c//el9aJsAEBr/+9H/6544M7n4dSaVUv/p3LPCmwqIyPt37QCA/FtFhvZf+9hBtfXJJ2I7rB8Ekb9b1dBb5j0ynEnFJwAg//iXU2uZLrjLfHY3owIEgHXz9//vSfdXx08s+97IYL967VmbEiWtxgEA+bfKrz30Q/UaI38JAUmmVHK84f9qbNtSQ+mYBADkn6xyEgRCoefvApDh/pW9/anZnDp2cp09Oeb8E1288V8+p/7z7Z9X55sAkHT5i/idGovQLB2T/gPyT145XXfU/P9nTBB4wn3Tm96DyluDuwAMY8OD6tTk9LLvnZme9cKB/Bvyp3iLbxgje7/X3ws4juv1/pE/5Y1kOV13u7Ksv3V37vyB+eojjAYwAtA0m0aHan7/xZOnm98fAPkntngyv//rX/tKj8m/VLPxt6wEr0qnvHEs57uV1g+7b3jDToxGAGiKdCqlxuv09JsKAcg/scUbPnZMveXP/of3sdflL6v/ddRHAJB/75XTdS9R6fTD7pve9HasRgBoii3jI3X/TULAmmsCkH+i5S89/6TP9S/J36krf0EW/yEp5B/RMo4qy3rYveSSD2I1AkBTowBbxkfr/rusCfiPV171NgxC/sg/iUj1y3x/rTl/v/GXW/8i3ftH/tRrmW8QAggATY8C9GXSdf9d7g6QWwbn8wXkj/wDv6xYHOb/SsVSzdX+fuMv4rdM77/6v0NSyD/C5f0G0wEEgKY4d8vGhpsAifwlBMiIQKye8uJStmYQ6Ych/1hcGo7r7RHh1mroqzf+ifLQP/KnXmuV17L+joWBBIDAPbRsJq3O3ji2rPGu7u3Ix6LpJb144rQ6+sqr3udx6OFFtjvqRLNcl3zrG8mXv2kspddfLJVqjAi45aPydd2h/24LQv5+nCQVl/ImpV7LawK+4W7fzmOra3V0qILVyL3/0tOXvQH8S0qvFKkqTwnM5l5S52ze4O0eCMmwpNznX/PhPTrYa3Br/XzEXqvIXeb63XqN/Iotf73b/gL8LD1Uev4RLO8lamTkM+bjf6fRZQQgEDIK4G8CVEv+PrIoUBYH/uqlEzwjPQHyHz7+ojr/oX9IrPy9uX7T41+5r399+evorvpH/tRr8PLexHoAAkBTSM9e9gdwAzTk8kTBZ/7jJe+RwqUkP7s7wfIXXv/g/YmVvyzwk7l+ucc/SGMqQ/62bSMp5J+U8v5PGl8CQEshIGhDLk8W/IUJAk3vIIj8u448wnfV0H8C5O845cf41ry9r27P31KpFPJH/okq7yXuG9/IrYEEgCZDwKYNauPocOCflxEA2TyIIBAf+QsXPPjdRMlfhvjL4m8w3F9H/gz7I/9ElteyPkNDTABoWlpbN46pczdvaOo/zReLBIGYyH/8l896e/0nQf5+j7/hPH+dxlTEj/yRf2LL67rbGQUgALQkLVkU+Lpzz264T0CQINBzawRi0L685scHYy//paH+gOJfJX/b6/0jKeSf6PJqfTNyIwC0JC3ZKfCC125Vg/3Zpn9ldRB46dREb9w1EIP2RXr+Mv8fR/lLeyiL+wqFYnPir2pMZbFfKpWK7hP+kD/1Gm55L2FzIAJAy9KSEYDzt27xpgXsFnpMMgIgewzIXQNyC6HsJ4D8u0cc5e/fxy+r+tdc3NegMZXhflnsF9nt/ZE/9dqO8loW0wAEgPVJSxYGvu7cs1oaDfAR+UsISNyoQIzal61PPhEL+fu9fX9+32l1KqnySF8Rf2SH/JEU5WxnebV+N7IjAKxbWvIUwfWMBvjI9IA/KvDciy97n8c2DMSofbFzOW/znyjLf2lRX7Hx7n0BT85Sr5+n+iH/Hi2vLAbcsWN7ryuPrYBDashlNEAWCb5sevFn1rniX7YhltEAOWTNgexDIFsNS9hA/uEWVVb/R1H+In3XdRpv2tNs2pen+VkRHu5HUpSzk+W1bdkZ8D4CAPIP53qyLG/jIAkDL5064+0OuF5WhoGRwQEvDDR6bDHyD17U4ePHIiH/xYfvOEsP4QkLb0c/S0e7x4+kKGeny6v1TgIA8g8dkbNMC8zOL3g7A4YRBPwwMJ+f9H5nJpXy1h4M9mXVsAkEdrfnct14nvLhYy92Tf6Lsq8cYVdleStfS+nYnBgkRb12tLyX9Lr+CABtROTcjiAgyJqB/HSxPN1wshw6Bvv7vL8pwaCjgSCm8vfeAP4jfzsg/3rCD7sqF8WvNZJC/tRr4xEAAgB0LgjI4r523PZXHh0oP8LYH4Xoz2a8v91nPiL/2kX11gC0Q/6uWib7IAv31luVy8SPpCgv9brW3xslAEBHg4AcsrpfnhooQaBduwL6gcBfkJifz6m0kYP8/awJB+mUvf51BDGXf2g9f1/2amkOv5NVKbfyybFsih9JIX/qFQgA0UNW88tiwbM3OmrahIBXTa9dZN1OZDX5XGFBzc0vn4YYMIFAwoCsKRjoy3hlSwd5ClwS5K+alL+IXlUEX9XD78YgivZW9Ova9/EjKeRPvQb7029609v1v/zLYwQA6DgyTy+3DsrhD9+3c1SgFisDgY+MDohcZMRARON/7Y0aJFj+ntBl6rxyClw5FxXZd7t8S739Biv6kRTyp16BABAvRKwyKnDO5vLugBMzs13dItgfkVgZEPy3qwQDQaYT/AWHg1VrDQb6sl2vU7dO0JHX5hjDS9AqVrbRrSn4NjdOQX97WfjW2nv1IynkT70CASDeyH3+coigZIpgai4XiecFVL9dZytCna0S68kGIx211huEFRJWj2K4nuSDjKTU7dl3Wf6BpY+kKC/1CgSA5FE9RSBICJiuhIFOP1J4PW9XKetsjamG2fmFCJa2e/IvL+TTzT+VD0khf+oVCAC9MTIg0wTSw5UgMDs/H+r+Am3QaRfHKaItf1/28rHlXfqQFPKnXoEA0FvIkHp5WH2k3MM2IUB61LO5+VDvKED+ISLCr8i+6V4+kqK81CsQAGAlMlXgjw4IEggkBJRDgQkEC4WW5Ij81+t7I3vp4avyRyRFealXIABA2wOBv+mQjBAIp8+cUbNzucUNgubWmH9H/i3IXpc/Kt3GB+9ErSH1bpvUCIpyIn4CAEQVmS5ImV5o9d6XhWLJCwMLXijIL37dU/JvcjFlWfAV4aulzzvW8EWxQe3CLZQEAOo1FEolAgAkH7eGKlMpWw3JMdC37AclCMh2xXMLS7f6OZVphUTJv5HkV8i++vs0pkiKctL7JwBA8lKCUt5WwHL49+lvWvHIDH/6oHpDHT8c+OEhivKv3ua4/HlKWVUPz+m64JEU5aVegQAAUe5M+8EgyEY+K9ca+KGhHo028JG1DdkGDzCyjcCzmeVPPvS3MK6H1cnHJiMpyku9AgEA4ir/ZlkZEta7+1/PNS1IinqlXqFNWFQB8qeoNKZIinIifwIAIH+KSmOKpChn8uVPYCEAIH+KSsOEpCgn8icAAPKnqDRMSIpy9oL8o3zXDwEAkD/yp5zUK+VF/gQAQP7In3JSr5QX+RMAAPkjf8pJvVJe5E8AgIQIFflTTuqV8iJ/AgAgf+RPOalXyov8CQCA/JE/5aReKS/yJwAA8kf+lJN6pbzInwAAyJ/GtPPlNM2rQ70if+RPAIgpegL5U1Ya09bKqalX5I/8CQDx9b97GPlTVhrT5stpReE0In/K26r82Q6YAJBbyD+P/CkrjWnz5bS6/cKQP+VF/gSA9XDy9NQu5E9ZkVTz5cyXXIt6Rf6xlT/TBASAqdm5XSXHiW35kT+NabfK2bX3DfKnvMifABAW07M55E9ZkVQTOI7rn1dNvSJ/5E8AiC0nTk8if8qKpJoKAE5lFMDV1CvyR/4EgNiSLxbVxPQsQkX+62+U4tCYrrOcrun9u+a/dzt1hnukXilvmwIL8q9LiipYGgUYGx5EqL1W1jAbwB7poZZKJS8AeG2qzAC0+3XT86e8YbwGVv4zArAS27IWRwFOnIn2VADypzHtdjll7t+p+h1t71Qhf8oLBIB20ZfNLH5+amJaFUwQQKjIH0nVpmh6/0vy19Qr8gcCQIwDQCbtCUuOouOo519+FaEifyRVS/7F0rKv2+p/5E95qQsCQLsZ7O9b9vX8Ql69eOIUQkX+SKoKueffWfZ7XGW1KwEgf8pLXRAAOsHIYP/iOgCfM9Oz3oFQkT+SKs/7l0rOqrNtWRb1yvXKe5cAEP8QsBIZBehmCED+NCBRKKes9q+e90f+yJ/3LgEgUWwaHa75/W6FAORPAxIV+ReKpZpn2w47ACB/yktdEAC6gdwJsHItQLdCAPKnAYm6/GXuP9Q7AJA/5aUuCADd5Kzx0br/1qkQgPxpQKJQTpnzryd/r/dv29Qr5aUuCADJYbA/q8Yb7AQoIaCddwcgfxqQKJRTVvvXmvNfbDAsK7zeP/KnvN2sC7YGJgBUs3XTeMO5TRkF+PfjJ0J/DCrypzGNQjlF/LVW+y/r/Yc194/8KS/yJwBECWnctp+9ueHPzObm1TNHj5uPC8gf+SeinP58v/+I33pnO2Xb4fT+kT/lRf4EgCgiUwFnbRht+DMyAvDvx19Z97MDkD+NabfLKdeyyN91G8tfhv5DufUP+VNe5E8AiDJbxkcbrgfweeX0pHr2xZe93QORP/KPUzm9+/uLK4f868jfNJqpMBb+IX/Ki/wJAHFA1gNUPyioHiJ/CQEvvXom8NoA5E9j2s1yOrLQT4b8V/0Ot0abaeSfSlGvlDd58qfuCAD1kPUAv7ZtS6AQILw6Oe2tDVjrdkHkT2ParXLKHL/f63cDnG2Rfxr5U17kTwAgBKyNjADIrYJyp0CtRYLIn8a0G+VcGu4vz/Ujf+SP/IEA0EQICLImwEfuFJBFgtVBAPnTmHa6nPLj0tsvVi3yQ/7IH/mDT4oqCBYCzt2y0fsoQ/1NBQFzyJ0FsrCw3nbDyJ/GNMxyyo/KPL+zYk1KEPnLSn8W/FFe5E8AgBX4CwObW/DnqhkTAmZyC14AOMsLAlnkD6E3+tLLL4s/iOprbPJjxG9zqx/l7RX5y8/1eJ0SAJpEpgL6M2n1wsnTa97+tzTbqqtGBHIqk0qpLRvkVsMh5A/rbvRF+CJ+t87PriV/XbnNj01+KG9PyR9YA9AKMgog6wLqPUa4lvyrG958segtFvzZr170RhPka+QPzTR0/jB/oVBcXNzXivxlyF/m+5E/5e05+VOvjAC0igyVypTAyOCAJ/NqiTeSf9VVqEpOSb06OeUdMj0gIwIjg/3hP2sd+SemoZPevuvWHuZvVv7S67fY25/yIn8CALSGzOe/7jVnqxOnJ70FgkHlv/x72rtbQA6Rv4QACdspjOcAAB/3SURBVBbyEfnT0HlD/HL7XhMPoWokf7nGeKQv5UX+QAAIcTRgbHhQHT91ZsUeAGvLvxoZFZDNhORYCgPlQID8e6ehKy/oq8zt17xSgp7bpa9kS187rLl+5E954yZ/6pQA0M7edHltwFlqajZXmdsvNCX/8r/pqjDgmCAw4x3lMDDgjTjIx/VME/A2iGZD66/gd+r09N0Wz7YI365+mE9Yr1l+j6U5x8g/+nVFnRIA2in/avxeu4hbpgbK6wOak//K31wyYvDDgFKnvDUDEgSG+rKBdypE/lFru/yh/frSX++VGdqtffT8KS8QACC4UGVRnxwynH/i9ETVQsHm5L86PKjFNQOCbXphEgjkqBcIXOQfibZ9UfqVo12Nvm1b7VtMivwpLxAAkH8wZO8AOZZGBErrkv/KBYbyRFeZdpBjZSDoz2Qiu/FQz/TwvUPVvlUvxEZ/aahft/NFIVPKCwQA5N8s/oiA9NxfOTPhbQy0XvnX+u9lumBqdm4xEEjj4pYKqi+dUn2ZtMqaUCAfIVzZ+5L3xd+pRl8W91ntFj/yp7xAAEhgy90R+Vcz2JdRv7Z1izclcGpyxpsiKG8tvH75r/rZyutbyBfUXC637Kf9MJBJ2WqgL+ttCJNO2bwr1rxc/J59+RtOKw14CI2+SF9Ge3QndjVD/pQXCAD0/MNDtgTeunHMO7xb/2Zmq0YFwpN/PeZNKJBjJRIMJAzIR5GM/3WvhANf8l6PXlXm6mXnvTBXz7dIR4b5kT/lBQIAtE/+K/HXCciogAzdSyCYz+fbJv8gwWB6Lrfq3/wgYFeCgZA1H/0FZzKSEGXm5ssLJ2XERV5jyd9D360slGx3o9zC79feEL85tNX5LcyRP+UFAgDy7wwyKiDPGJBDAsCZ6TnvaYLlnnr75b8WBRNQCpW7GWoFhJUjCdVbzTYaReirChFr4cu7ZvkKpcXyrfWz3r+XnA5eRMHPiyf9ivh1tx5cgvwpLxAAkH936Mtk1NaN5Vv6lo8MFLoi/1ZGEpaz0LttX4AXvtTT76L0kT/lBQIAdFf+jUYGpFcrYWB2ft77WHLadz85bV97X/jS0L6OzhNKkX9yynvOOVqde+7qK+uJJxwFBACqIPryX4kMlftrBtTmck9bpglmvWOhckcBbV8UX7jXu49KL79Bee0rrgj04/rZZ5WanmpeQK3iiyvsC2rHDq1GRsIr55EjJqVPdfYNMDKi1FVX2eryy7V685sttW1b49czPa3UT37iqEOHHPXoo446dozhCQIARFn+tZD5czlkdECYX8irmfkFLxDMLxSWPaoY+XcOaX11ZQ4/ssKvc6IG7tkf7L/5gz8QKdf/92uvtdVHPxr+7SMiriefdNUDD5RCEdctt6TUZZdZbSnnz3/uqh/9yGlbr1vEf+utKbVnj62Gh4P/d/Kzu3db3vGpTyn1/e+X1B13FJcFFyAAIP94IVsBy+EHAgkAp8+cUbNzMm2w4O0J0KlRgl6Sv9+79/6ngz+9L4ojFZFHZH3ZZcoLFyLZr32tFMlhbb+cH/iArY4fd9XXv15S999fCu33X321pW67Ld2U+OvxnvfYXoj47GcL6pFHmCLohTaLKkiW/Gsh6weGB/rVprERtf3szeqC125Trzt3q/f5ZvO90aHBtty+l1T5+4v1ZL99uatB7m7IpFMqVbk90kL+nZfsN7+Z9nrBUUaG5G+7LaXuvTft9drXy003pdSdd4Yj/+pRAfmd8ruBEQDkn0zK4rJXib9QLN9GJ/fL+7fQOWvcSpdEp3iL8iof5ROrMny/5jA+C9O6h/SyL7pIq5tvLkR6GFsCy/79GXX99fmWyymC/tjH2rczl/xuGbEIc7QCCADIP57BQJBA4E8fLFQCgb+ZTnVIiLpTqvcckF68J3blr8Jfx2p85B8NuX7pS9KDLUS6nBdeqNXdd6fVhz7UfDnf8harrfL3kdGKn//cUT/7Gc0jAQD59zoiTT8YyJRCPaoDgpAvLt+cxxtpKKz+XuuhJaXSaXvV9zJVmw5lV2005C6+pp6UaZIXZ8iiNukh3313MdLllLDy3vfaTfWyZerg9ts7127L4shWQgoQAJA/QUEYSPpZR/7RQxYHhnWHQDuRnnwzAeBDH0qteXtfFUXz+md/9CPHqUw19F1xhdV/xRXBx7gkpMiIA/sGEAAAiHzIvx0Ujx93px94oKZkRFrZiy7SVrOL3W680VZ//MehjgLknnzSnZf75leQ3bFDZy68UKdk34NmEJlffLEOPMx+3XWBh/5P3XFHaeLb314ZLkppU8azvv71lNRpwNBhEwAIAADIH/m3hcKxY+r0XXeV6pTT+/7I7/yOtfHWW1OBg4Dc1vanfxrqfe0i/9Nf+UqpXr2KXDd99rP2wDveEXxu6R3vsE0AWDuoyC1/AV97Hfn7de0e/8AHCq/5/vfTgQKLTKnI1AP7AyQObgME5I/8Y1HOqe9+1zl+3XUFR3awC8revXYnyytyfemjHy3OPPhg8B5z0CF52VQpADLsX0/+PlKHZ+6+O/jUg0wDAAEAAPkj/26Vc+HnP3df/vjHgw/rN9MTD7G8J2+7rRg4qGzdGiwABNypcPLeexfDR0prNWbbakPl6K+6xWXm4YeDh5QLL8QVBAAA5I/8wydjWe6GKlFtWCGt6oYqd+iQM/O97wWTl0gzjE13KkhZvHJZ1rIyDpqvU1VyFflPyyLEIARZ1CfrBAIO/89WxL7Jtt3tqZS70dTteOXYZr7enk67WVNWKaOpy2AXyDnn0JQQAACQP/IP/2/I2PZ4lajGV0jrfCOtLUZofoM108xWtTt2hNbO9cmDuLReVcazK7IVuQ5Wbi3NHzkS3gm46KJAr0GG/2UaQuQ/WucWV1n4dY4pq3zMy33+wQKApj1JHiwChN6Wvxvyz/Vizz+sv7XG7xk2vdasEdexQkFLL1d6sIEWBMqT8R5/3OlEGaVBlTBwwnV14YUXwqvjgLf+yWJKKcPoGvtbyC/bYMpZjMrCPpcbshkBAKDnT2PagIw5tpoQIJ8vBO1hd2H4erMpo6V1eCci4EJBuUthzLIC/d0hExJyjz8erIzteFIi8icAACB/GtNm6NNaDRt51bofv04A6PjwtfzBkYC7TAaehw/IYMC/K2XsDxgWuF4JAADIH/lHAtN7dYtBd/kbGurK/PXAW98aqH3NHzmydpC54IJgawBMKEo18TCLrNZcrz0MawAA+SP/2DFgxDUVNADIg3e6QcBbEGUEYHStHwp4B0CzDXrhZz9zj1933Zq3VWZN4NrI9UoAAED+yD8KdLX3uhayAVGA4OHt1f/QQ47KZkP5s/1NPtwqOzPjvhpggWTOHBtDKiPyjw5MAWg1wWWA/JF/DANAMzsCdlr+n/50oM7V5D33OP1WeM2wMznJ9QqMAAS/HvVh8/+7k/86k/jeQ/69TCnoPexCO59oJ8PzstfAjh1aXXONHXTKQXY1nPjWt0pjqTWa4SuuCJwQLKkTy+J6BQJAoGtSu4e1q3ZzKSB/5B8v0t34o/L4XjnWichfHsgjn/eHebtgk2RNWDgnnXa5XnuTnp8C0CXnx1wGyB/5t6mcNPyrkEV/In8Zrk8ZAQ90sccuQxWyu2GQA/kTABLHVW+59EHWASB/5B+/clo6XrvTSq//5C23FI///u8X/Ln6sZDvw49cnSB/AkAMeJAq6EH5x+7lI/9qMjHr9c/cf7+z8LOfLVaODL+P2uE+rTgTpQCA/CMPtwF616lzj1bW9dQE8kf+NPrtoP+KK7Q5xPa2jARMfelLxU0/+YnD9dplisWevi4ZATBcffmlB5XSB6kJ5E9jivzbTfaii/Tme+9N6zvuSAXd4IfrleuVANBWxZS+QC0gfxopGtOO8Z732OqeezJcr5SzWzAFUDUK8Og/P73f+OZ6agP500jRmNZi5sEHnanvfKfm0H3/W9+qsxdfrAcCbgHsIXsG3HprSt1xR5HrlXISALrI9LSzb3jYutZ4Z4zaQP40Uskppzs15YaxPK7w4oturs7Wueb73sf0uefqTX/yJ3bgIHDddbb60Y8cFfTphlwHyD8kmAKoYu+eSydUybmBmkD+NFLJonr1fbuRkPDSH/5hUUYLAv9HH/6wzfVKORkB6DKyL8Aj//z0ndpVn6Q2kD+NVISR7X0jzMnbbisOvPOdGSvIQr/duy1vQWCN5xvMP/6409fWns9eW51zztoDJDJCsXKUAvkTAJLG1W/eue/RJ58+z3x6LbWB/GmkElK3IdwjP2JZqr/O1rk519UL5u/Mlkre17LZz+Q995TGb7opWO/+qqts9cADpXUVUJ4b0OxUwt69lrrssmBhqvp3I//YwxRAHaZnnBu0lgcFAfKnkYozct99WDvk2eb31Nsqd9y23bNTKXd7JuMOVjb4yT3+ePATG6QXzvXK+4oRgPYj6wEeOPDUnpFh+4DruruoEeQf9UbK2nGR0sMjjf/U9JRyjvw8GfV20UWBhOlMTckDdzrXqJq/JUHghFJ6us6CwTq997qFdKanlRWVPQOQPwGAEADIP1qNVN+ttyr7iisa/kzp0CE196EPJ6PuhocDWT1/5IjT34XibTYhYLZUWnfykNGF3JEjbn+DgLCIPJLYnOOmuOCCQCPBpSeecGzknyiYAggQAqamS3vYKRD590ojZcXlxAQRYqX33A2kcGOpDvexAoaiFf9NoB8rIH8CQK+GgKsuv2SPeUfvpzaQf5IbqYxWpYGUnY9FHQbsuTpdvL9+cHQ0lN8zH/Q1yAhAM2zbFvjniy+84PK+IgD0LFe9eecN2mWfAOSfzEaqz9LFrG0XY7ES7eKLdeCeawf3AFgVqKScASkdO1Y/xBw7Fuw1bN2qm67HgBQalI/3FQGgJ3jnFZfud1znUq3189RGEuTvdvZwnbb97tLU1Npv+B07Vv132hyDli6ktS55jWgTvchSt3qFH/xgoFvr5A6AtEwByOtqdDQjmWaOd74zcBtbkLqs93uChhjZWnhoKHj5Lr88UPkWZA2CXCzNvv5OHY7T2n9HAIBmedcVlx6emi5dypQAPf8o9VByR46s+TPa9Jr1yNKdAmnTdA7a9oKl9dIQcxPDwrLrXcfrUQKKPEgnAPNPPOF0rZGTerzmmsA7/DXarXDh3/7NDbyW4eqrg+8qGHC74oIJUvT8CQBQwVsX8OadN5jkudcEgQlqBPl3u5EKMgIgyJ0CYvgByyr02XZhle0D9gqLQYelw0SG/b/4xXTQH5/+znecfq27U86vfjXdzON+8w0CQL9tqzl5XkCgxmlvsHZddlIMGPbk+QcprXvyfUUAgLrI1sHT0875rlZ3UhtxlL9u/+F25u8EGQEQMlddJRvVLNjVvf4WeoX5Z57p7Im96ipL3X9/xhvmDtKjNr1W6VVnrQ42cyL8m25KqUcfzQYtp19Wt0GgMvJ1Zx5+OFgAkF393vtee81y3nJL4FsU5G9HLgAg/3XDPgAhjQaYD/sePvTUPZa2/8JcmbupFXr+nW6kck88EWwE4NprtfrJT2wj09Xbzt5xRypor3DWSGE8LCnI4jURZy1kyP+CC3QzUxPC1P79pawpX6jaestbdM1285xzZGMiqxnpryxrukFdyus48dBDjoy6pILsGPjpT6fU1JRrgohTU/733hs4SMnIQ1pGlzIZ5E8AgHrI2gDzYc+PDj11vbLsz7muex7yR/6dImMkMfnII2r06qvX/uHbbkt5j6H9x390FqUgPf8mJDvzyCPO5rACgPzdj30stCfi5Q4dcqf+7u+c0O/Dl971ZZeF+itF6lLWrXWeMeCfWxnHmL7/fmf85pvXric5n1/5SlodP+5659ifHpIAE3Tf/woT3/ymk4lS7x/5EwCijNwpYD7sf+TJn35Sa/dzxoNjyL/H/NyFRkpa9amgAUCQHuCFF7YkXXnUrSWL0tLpSJ7bU7fdVvQ8aFmRvxBf/eIXS77kGyHPFzh9552l4fe+10oFfW6ABCsJeusIUjL/v6VBOEH+8YU1AG3k6ssvudNbH6DUF3proSDy7wZZbanT3/1u4LUArSKr0UVEWR3NHQNO3nJL0Zv7N+XL6GjvanDmrrtKsw895EhZ15pjH6qEmROf+lSpE2WTZyic/KM/Klb+NvInAECzyPqAqy/f+fmr3rxzXDYRSv7+AXGTf3zu81/rGDCvLKNU6VUjwLb2rr/4xaLc/jcYwd61yF+G0+Xz0VQq0hejyF+CVNCyDhgJS0iQHvnJNp/jxfP8wgtynpWO1psWCADxQ6YG3vnmS84v7yaYxGcL0PPv0pvY7de6OJhK5cfT6ZI8/Obkrbe2RRCeYL/zHScyvcKqUYmXP/7xRfnL0/+GrWg2b35ZffmnmijrSOUxw/I62xkCTn7604t1OWbbbnLftAQA6EIQkGcLyI6C3mZCiZgeQP6dRnr7pndWGLTtfMqyPJn4vfKp737XefnGG4thPQhHFqodv+66RfkPGxFFYXBdXp/0pI9eeWVehtL972+Kypx1gLJubmKkYtzI2J8qEEEf/8AHimHuxyA7/r34279dqA5Sfd0MUsi/rbAIsItU7hq44YEDT+0bGVTXKsv+RDwfO4z8O9nbz2hdEuHXEvCw3AlgjgVTptlHHnGOPv54fvNnP5sauvballpxkYtIyxe/32vY0MVeodwzLzvTyVC43J/uTE4u+3dZsBaVuX+/rFLOaun7bEilvKH9ZjjLBIZjhfL+TVIHR9/+dmfkfe+z5O6AwIsDa53nr3yl5IvfP89dXfyH/NuOpgqixQ//6anzUinrekvrD4d5G+HszIwqFtsxYhhv+b/rv30s8o2UZS6EtKWddFn6a/5BeZTfC4XlG/xZw8Nq6Oqrrf63vtWyt23T2R07tLVilzrpoUoPsHT8uLeBjsil1va0IoWgQ9YzZ5+tp7ZutcKoV5FUYY1nDzRTtmpOvf711sLQUGjtYZCyivzHWwxS046jThRWb+KYvfhi3f+2t1nysd559oLDoUOuOz0t59jN/dM/rfs8x1b+jvMu/eyzjxEAIHI8fOipXdqyPmwpfe16w0B7AkD8e/7rCgBtbKSalf4qQZiynShWHuznhPc03GalcKZU0qebve5aqFcp0VmmbAMtCut4Pq9zHZLOesu6VggIo157Qv4EAKYAokxlikCOfV4Y0Na1ltbXRGOagGH/NojBTWvVsvSrkakAO5VyXzFiC0P/KSODs0xvte3zwU3Wq5RGNvuRhWpR782EXVYRdNqI+hUT9Ipr1VvAepXbEbs6hcKwPwEAGoaBz8s0QcZWu11tXaO02t35jYaQfxhU9pR1ZE9+I1hHh1zqAdOIn5fNuieNIKZLrd06LuKX+f6O9AabkFTGlKffstyhKNyiFqCscg//QBvqUALZ9kzGldGA0/WCQIB6lYWFG0xgHGbBX0/BFEAC8EcHtNJX1nsOQXhTAMmS/7tu/mhHG6mK8N2UpR1La6djdWKOGSOJnON4klgwnzs1eqjZyr3mRlyuEey6N9KRv1UMWmdr/FwqwGY5rZI3f9sJUUDtLOtar8OcY1kEqovyscZ5FmR1v7n+vBAVxnmOrfyZAoAEjQ54PPLkUyYEWLvNW3pnuCMECez56yZ/uW7uV9u+8HVnhV+rLNK76/TWuIFE6J+0LkrIE6COf39IXkemvFeAG5seNT1/AgCEx9WXX3rQfDjofy1TBqZpk5GBnVrpXW5LTytk2D9o717m8m1vSF/RstH4U6+cfwIAdI/fetulz5sP+6u/9zc/PHBe2lJyl8EuGSlwlT7PvBt3If+1f7ms0De9edcuH9Kzd5E9jT/1yvknAEAseP9v7ZFQIMeD1d//24cP7LJcdZ4EA6XVdm0+V1rvMs6L7BMN19eO6LrfleF7y/x2LSvqjejle90cxkdSgPyBAABt43fftcdfT/Dgyn+TcGBcOGZ5ocAcyho1UtxVMWZXQkJL7Yhsvexqb81EVqv/Uv6W6c1b5Z78Ym/e++Wsk6Xxp145/8mE1g1Cxw8K/tdWef1BFVXBYR04y9uR513XObri4j7sOuXnLLi2mqiEm+Vt0RveME8jReNPvfZoOdkJEKCH281aAQBJIX/qtTfK2eMBgKcBAiAp6pV6pZwEAAAaU6BeqVfOPwEAgMYUqFfqlfNPAACgMQXqlXrl/BMAAGhMgXqlXjn/BAAAABp/5M/5JwAAAJIC5E9ZCQAAgKQA+VNWAgAAIClA/pSVAAAASAqQP2UlAAAADSr1Sjm5VgkAAECDSr1STq5VAgAA0KBSr5STa5UAAAA0qNQr5eRaJQAAAA0q9cr551olAAAADSr1ivyBAAAANKjUK/IHAgAA0KBSr8ifAAAAQINKvSJ/AgAAIClA/pSVAAAASAqQP2UlAAAAkgLkT1kJAACApAD5U1YCAAAgKUD+lJUAAAA0qNQr5eRaJQAAAA0q9Uo5uVa7S4oqAEBSgPzbzuCgVgMDetXnQctVr6xBXkP9n9Hq2WcJAADQYzJF/si/nWzbZqktWyw1NqbV5s1WU2Kv/l69z+t9L/jP7Nd//uc/ZgQAAJA/IP8wpH/++bb3cb2iXuvnWwkDS1+L/G/o9cuVAACA/AH5t046rdSFF6bUa19reUP7rcq60X8XZs/fdffrO++8gQuWAACA/AH5t8ob35hSr3+97YWAerJG/gQAABp9yst1kJByytz+5ZenVvX4kT8BAIBGn/JyHSSwnNLT93v9a8ka+RMAAGj0KS/XQQLKKb393/iNtBof18ifAABAo095uQ56oZyjo1q94x0ZbwRg5e8Nd3U+8icAANDoI3/qNTLy37Mno1Kp1T30KPf85VY/5N8QtgIGQP6A/BvL3+/5I38CAACNPuXlOkD+yJ8AAECjT3m5DpJUThnuR/4EAAAafcrLddBj5fzN30wjfwIAAI0+5eU66KVyvuENqcWH9yD/RMNdAADIH5B/GZn337HDDiT96Nz+t19/+cvInwAAgPwB+bfMrl2pUHru6w0PzfT8kX/LMAUAgPwB+aviOedYi0P/yJ8AAECjT3m5DpJfzlcyWe1esjNV2T1v+d9pNB2w1vdW/vf1/q2R6JF/22AKAAD5Q4/Lv3jWFis90K/b2vNf63c2s73vXXchf0YAAJA/IP/1yH8ylVJj27dbyJ8AAABIinrtIfln+vv14JYtFvInAAAAkqJeE17OCSN+kb8wdBbyJwAAAJKiXhNfzpxtqxOm9+9/Pbxt29qb/iD/RMIiQAAkRb32SDldrdXxKvnbKVtlR0Z00/IP+9Y/5E8AAADkT722r5wvG/mX9KL/1cDGjVbNW+3CDATruc8f+RMAAHpOBsgf+YeMDP1PW7b53Uvfyw4Na+Tfu7AGAABJUa89UM5XMn165feyw8Ma+RMAAABJUa8JLed0Kq3yerXrrZStkT8BAACQFPWa0HKeSaV1re/3b9igkT8BAACQFPWawHLK3P+8ZQX7+8i/p2ARIACSol4TXM4pu3bvf/Fvt0v+Qf97x9mvv/pV5E8AAEBSgPzDZMa2o9vzl/v8kX/XYAoAAElRrwktZ96yVEnr5suB/BkBAADkT73Gt5wzdkoHKkeru/atZ9j/a19D/gQAACQFyL8dLFhWc+XpVM8f+UcCpgCg1zmKpJB/UstZ0Fbw8iB/AgBAj4njaAf/FvWN/DvKvGW1VjbkTwAASDxa/xRJIf+eLifyJwAA9CSO8zSSQv7IH/n3IiwChF6nvSMAyB/5x7VOW10fgPwZAQCIA/oXv5ARgPasA0D+yD8OZZTDcZY+r3Ws9bMrv1f+GvkTAAAi3wg+hvyRPz3/AKMBzeztj/wJAAAx4AfIH6kif+RPAADoMfQzz3xfhTUNgPyRP/JH/gQAgFgJ5j7kj1SRP/InAAD0GvPzd5tGbBL5I1Xkj/wJAAA9hD56dMJ8uAv5I9Wekn/9Ffy1j9p3ACB/AgBAD44CIH/kn9Se/1r3/vvy/8u/RP4EAIBEjALcjvyRak/Iv97PNLPJD/InAAAkJgQ888xdgfYFQP7IPwl1Wmuzn1r/jvwJAAA9QT7/kYZTAcgf+Set5x9kN8DqHf6QfyLgWQAAK0cBfvWro+7rXvcRZdt/i/yRarzPvxvs9TSz2h/5MwIAkOgQ8NxzsjnQ7cgfqca25x+0vMifAAAAK0LAM8/crhznPuSPVBM37I/8gQAAsEYIePbZjyyGAED+SS8r8icAAMCKEBDGVsGA/JE/EAAAYhkCbqcmkH+iylrvDgBW+xMAAGBZCLjdNIrvWtczA5A/5YxLz/+v/gr5EwAAoCoEPKby+QtNI/kDagP5I38gAAD0Ugg4enTCBIH3Kcf5XdNgHqVGkH8iyor8CQAAEDAIPPfc900QuFCVSh8hCCB/5A8EAIBeCwK//OV9VUHgMWoE+SN/iEXbRRUAhNyenn/+dpVKvcd8+nal9buRP+XsVll/MTjUsI2/4G1vzXiP9P3GN5A/AQAAQm+zL7hgpyqVLlGWtd18udMco9RKRJDb3RIcqgIEgH/Vf/3X+7gQAAAAAAAAAAAAAAAAAAAAAAAAAAAAAAAAAAAAAAAAAAAAAAAAAAAAAAAAAAAAAAAAAAAAAAAAAAAAAAAAAAAAAAAAAAAAAAAAAAAAAAAAAAAAAAAAAAAAAAAAAAAAAAAAAAAAAAAAAAAAAAAAAAAAAAAAAAAAAAAAAAAAAAAAAAAAAAAAAAAAAAAAAAAAAAAAAAAAAAAAAAAAAAAAAAAAAAAAAAAAAAAAAAAAAAAAAAAAAAAAAAAAAAAAAAAAAAAAAAAAAAAAAAAAAAAAAAAAAAAAAAAAAAAAAAAAAAAAAAAAAAAAAAAAAAAAAAAAAAAAAAAAAAAAAAAAAAAAAAAAAAAAAAAAAAAAAAAAAAAAAAAAAAAAAAAAAAAAAAAAAAAAAAAAAAAAAAAAACLL/wfLKFYZy7UPuwAAAABJRU5ErkJggg==;" vertex="1" parent="e9nx1dZjpdk4EGY3y0fY-43">
          <mxGeometry x="20" y="10" width="40" height="40" as="geometry" />
        </mxCell>
        <mxCell id="e9nx1dZjpdk4EGY3y0fY-61" value="" style="group" connectable="0" vertex="1" parent="e9nx1dZjpdk4EGY3y0fY-63">
          <mxGeometry x="60" y="135" width="400" height="90" as="geometry" />
        </mxCell>
        <mxCell id="e9nx1dZjpdk4EGY3y0fY-27" value="Controller" style="shape=module;align=left;spacingLeft=20;align=center;verticalAlign=top;whiteSpace=wrap;html=1;" vertex="1" parent="e9nx1dZjpdk4EGY3y0fY-61">
          <mxGeometry width="400" height="90" as="geometry" />
        </mxCell>
        <mxCell id="e9nx1dZjpdk4EGY3y0fY-44" value="" style="group" connectable="0" vertex="1" parent="e9nx1dZjpdk4EGY3y0fY-61">
          <mxGeometry x="140" y="30" width="130" height="50" as="geometry" />
        </mxCell>
        <mxCell id="e9nx1dZjpdk4EGY3y0fY-39" value="" style="shape=module;align=left;spacingLeft=20;align=center;verticalAlign=top;whiteSpace=wrap;html=1;" vertex="1" parent="e9nx1dZjpdk4EGY3y0fY-44">
          <mxGeometry width="130" height="50" as="geometry" />
        </mxCell>
        <mxCell id="e9nx1dZjpdk4EGY3y0fY-40" value="" style="shape=image;verticalLabelPosition=bottom;labelBackgroundColor=default;verticalAlign=top;aspect=fixed;imageAspect=0;image=data:image/png,iVBORw0KGgoAAAANSUhEUgAABAgAAAEsCAIAAADB/hbKAAAZ20lEQVR42uzdP0wcaZ43cO60SIhpCQIkyglC6g5IrG45WWuawHMrGaRLLLPB7o5kJtn1CCczjMRcsr575yL3ajybGI1nkgFp3neCxfJlYGnPDuDkSaxuOSFoJOTEZYkApF5kyYFfHX2LfBiqiqb/VfP5aINZ00BRXRTPt57f73l+8fbt2z4AAOB8+0enAAAAEAwAAADBAAAAEAwAAADBAAAAEAwAAADBAAAAEAwAAADBAAAAEAwAAADBAAAAEAwAAADBAAAAEAwAAADBAAAAEAwAAADBAAAAEAwAAADBAAAAEAwAAADBAAAAEAwAAADBAAAAEAwAAADBAAAAEAwAAADBAAAAEAwAAADBAAAAEAwAAADBAAAAEAwAAADBAAAAEAwAAADBAAAAEAwAAADBAAAAEAwAAADBAAAAEAwAAADBAAAAEAwAAADBAAAAEAwAAADBAAAAEAwAAADBAAAAEAwAAADBAAAAEAwAAADBAAAAEAwAAADBAAAAEAwAAADBAAAAEAwAAADBAAAAEAwAAADBAAAAEAwAAADBAAAAEAwAAADBAAAAEAwAAADBAAAAEAwAAADBAAAAEAwAAADBAAAAEAwAAADBAAAAEAwAAADBAAAAEAwAAADBAAAAEAwAAADBAAAAEAwAAADBAAAAEAwAAADBAAAAEAwAAADBAAAAEAwAAADBAAAAEAwAAADBAAAAEAwAAADBAAAAEAwAAADBAAAAEAwAAADBAAAAEAwAAADBAAAAEAwAAADBAAAAEAwAAADBAAAAEAwAAADBAAAAEAwAAADBAAAAEAwAAADBAAAAEAwAAADBAAAAEAwAAADBAAAAEAwAAADBAAAAEAwAAIA2+4VTAL2tVqtVq1tH/rFQyDszQIRyuXLkX3K5bCaTcWagh/3D27dvnQXoMWEYbqxvbGxsvP+nve4/H//VWQIi/NNHvzr23wuFfLFYLE4WgyBwlkAwALo6EiwvLa+urkW/TDAAGgsG7yaEhS8XxAPoJXoMoHesrq794fc3Y1MBwNmVy5Xf/fZjNxzoJXoMoHdSQelOyXkA2ql+25mennIqoAeYMYBeUK1WpQKgU9lgfX3DeYAeYMYAeuMP859a/S3C3f1Xu/vv/kt5e+fIa3LBUGagv6+v74OB/lww5H2phnuV7Z2tcC/c3f/b6zfVcO/dj2YG+rMHZyk/PhIMD2aDISetx979v71+c/jrE/7vX58jvzVp/5VZvLc4OVn0poNgAHTY+vpGtVptYgCobO/UY8Cxw9nkguHB0eHB/PhIYXwkPz5y9mOb/2G98l4aaYX8+MjdTyYb/vTK9s5a+cXG5sva38eFx6q9flP/cQ5/qMxAf358pDhxoThxoR6xjvWrf3vYJdfeX//tWjccxs1vHye8SnPB0P1PP2r6AVS2d8rbO/VfljP+ymSDofzB78vZc0Jle2f+h/X2vINhGK6urikoAsEA6LD/2kg0iR/8t9HYl62VXyw/2WxWxqjHjOWD/1ucuDBVGCtOXOjh96J+9k56Nhyr9vrNxubLjc2XfX19U4Wx65ez5hCSXGbJB+LVg9mbYHiwuccQO/4+1a9M/QIIhgeLExeuX842/WgTOtztpFrdqtVqSW5EggEIBkCHnbRZwaFcLjd3a67jm5rVh7zB8OCNKxNThbEeexeq4d6fHj5r+FHxsRljY/Plf/zLP7vCY6+rU72+sr0TpOHyC3f3V55urTzdyo+PzE1fbH9EvPvN3XdvMqU7pTAMI16vzQB6gOZjSL3ov9ZBENz95uvu2eo43N0vPXw2/8N6w4/Vu9DK063k1SzJ9fbsSqeCwWlf33GV7Z2b3z5eXH0eXZnWUoVC/rvv78due9zEmkZAMABOLXa64Mbsjdg/550a6zR9JN0RpYfPFleft+IrCwaxDvs0ThUMOjjCPkv4/KKjcTqTyczdmot5O2p/c02CYAB0r65dKqT2+s0X7WombmkqWCu/aNEXb0rHdm9r7PF/6iYN6qrhXmfjtHWHQDAAUiwIgi6cLng3G9z+6ef01hQtrj5vXSqIXpiIcxgM6r8y//rTz52a8cgccNWBYACkNBiMtvTr19dVPPxfAwPZ2us3pYfP0nhuK9s7K0+3WnpuXcCxF0/DwSCN1UR14e7+7Z9+7tR3z+WyLjzoYVYlAk5nqjB248pExBKK9V29HpVfJKx5qK/6n7p1ipLnmeBgM4f39y+rr025Fe7Vd0A78lkaDJKM78/yue285A6XFTqS92qv39Tf/cr2TvK4ktJfGUAwAForek4gDF81/TuODg9GL6yeOxgBz1zOVrZ3FlefJ4kHy082mzLKmSqMNeXrfBA39bFWfpGkAip6bdb8/w4JG5svD9NULhiKOMkNbL4W+0Y069R1STDIBUOjw4MRL2hzMJi5fPyD9vqWdvmD81+fAEm4+tDi6vOOFJtpLwbBAOjmYBBEBoOwg8eWHx+5/+lHSdpz63tUnX2l9vpGy2340R4kKCKaKowtXLuU9H0cHpy5nJ25nA1395efbEYP+Br4GWOjTttOXRNFdK5ng6FsMBQdDGqv33RVF0dmoL++A2Dp4bPYyZDa6zdr5Rcn5Y3WiV6QtHuWRQYEA+C4AUSt1tl+wYVrl5LUgj8qv8hNX0zFKa2Ge7HTIKdKBUcSQmOf2G3K5cqjtbVqdas+lMxkMoVC/sNicXKy2JQLMrrwpl67FfsVunCSJDPQ/9VvfpkkTj94utX+YAD0Ns3HkHrRkwbV6lbHj3Dh2qXYR7MpWrc09lAzA/1zKQk5Lcqit/94e/7z+dXVtcMHzLVabX19o3Sn9Iff34zdfCNhMIj4aH58JBcMRV913bw20dz0xeiCvcMelTaHvYZvRIBgALQnGIx2+RFmBvqvxz3aTNFmZ7HBYKowdm5XGq3VavOff7G+vnHicDYM5z+fj3jB2YNB8Pc2mOgG7m4OBpmB/iQTR131I3T/jQgQDKD3RRdmbEXWBLdNkpqNtGxoENsbep4XFCrdKVUTXHKlO6WzNMDE1hEd+Y80ZoP8+EjspMFWe+N09M3EFgcgGACdl81GPYyv1WrdcJDB8GDsQ/RXKQkGad+tuXXK5UrCqYBarba8tHyWYBA9pO6BYJAkYbY5S0ffTKJvRIBgAPDOuOHMiw7R5R6trSV/8VmqiRIGgyBuad0uDwaxvzJb6SnAAwQDoB1GI3v+KpWKU9Rm5fM6pXCqruJardZYF3I13IuoIzoSBqIfuje8d3J7xJYStXn/5uibSTaX87sPggHQ6dFDrywGMho3DOoSsfstPIpbaLJXnbZtoLE6t+jTeyQJpL2aKEX0GIBgAJBUbNlDkJJgMJpgHcmlJ5ve8fhLoqHO+IR1RIc5Ib2LlgIIBkAPCnf3o8seUrTtbpJDXX6yuXZe5w2Sa6D4pBruRXfcvv/uRL9f3VxNFNtbnNO3AwgGQHJdUmgUO/ZK0RKfCQ+19PDZ4urzNleBp+tia6D4JLaO6P35gdj3q2uDQewk2wft3S5DsRAIBkC3q5TLER8dHe38rkO112+W40prUhQMguHBhPMbK0+3bn77+PxMHRQK+VONMk/1+iSD+GOvovQGg9gDa/OMQfSCpBsbG+7GIBgAHba29ijqb3kXLBUS++C8OHEhLQ0GdbNXJhK+MtzdLz189vGfH52HeHB95nryF8+c5sV1sXVEx2aAzEB/GtcmqmzvxJYStbkAL/pmsrG+0SW7pgCCAZxTsTvINvBQtsm5pfwidkx8I/E4u0vkx0dONSY7jAdLTzZ7uLgol8vN/HomySszmUzCVx4ZK0d992DopD7j2EmDLty0Lkn/epuDQfTNJAzDxXuL7smQar9wCiCl1tc3HqysRK8EPz091cGy4NrrN4urz2NTwczlbLMqIpafbC6feTmgG1cmkkwILFy7dPPbx6ca5Ye7+/UjnCqMFScupKh6KrnZ2RuVcqUaudxQJpO5+83XTW8wuFoYO+lDSaqJ5qYvdlUqiM0qEUGoRTKZzPT01OrqidvYra6uVatbN2ZvTE4W3aJBMABabv7z+YQ7SWUymblbc52KBCtPtx483YodN+eCoa4akCUXDA9+9Ztfzv+w3sDn1mdRguHB65ezU4WxNg/vWj12/O77+/fuLa78ZeXYFxQK+blbc7nTV7iFu/vVyGbciNF/ZqA/Pz4SMdSuf/EuWeRnrfwiSb69fjnb/mObuzW3HlkyVK1Wb//x9uH0wt1v7rppg2AAtErCzWIbfigb69Xu/kkDrHB3Pzz4aMLCjFww9PUnk+l9L/LjIwvXLpUePmvs08Pd/cXV58tPNq9fzs5czvZSPLh1a25m5vra6tq7e+Vmc7lisdhwbVt0G0AuGIpuUylOXIi+LB+VX+Q6nVFrr9+UHj5L0vCQGeifOnmGpKXB7+43X89//kVsO0Fj21oDggHQZIVCfuHLhRYtVJqkZyB5Kkj7aHiqMBYMD97+6eeGOwfqSzY9eLo1N32xI0O9FgmCYPaT2SZ+weg6og/jioWKExcWV59HB48OTl6Fu/tr5RdJJtnqOniouVzuu+/vl+6UDP1BMAC6Vy6XyxfyU1NXc12wElHsKG3h2qXeeEaeHx+5/+lHpYfPztLAWn9UvFZ+sXDtUroWaGrbuLnhOqL/CSrDg7lgKOKLtLSaaHH1+ejBARz59/L2Tn0KLnYBoiOXXGczZBAEd7+5G4bhysqD2JYSQDAAOqBarQbBaLW61c3BIDPQv3DtUo/13QbDg3c/mVw6ePB/lkWHKts7N7993Hvn5+yiq2uC48bc77taGKtGThq0rppo5elWE3+DvvrNL7vhTSmXK6/CUCqAXmK5Uugp6+sbpTul3/324y6c5Q+GB+emL/742dVeHfXOXpm4/+lHZ3yUW3v95vZPP5+fPdGSR6aIjya8otK709m7qaAbCvCq1ervfvtx6U5pfd2mZiAYAN0tDMP5z+cjVhXsiGwwVJy40EsttseGn4Vrl3787OoZ40G9rMiVfBiWGtjw+Nh3J3piIbZgqRtSQceXTlpdXfvD729Gb58CCAZAO8z8eqZQyCdpLF68t9hVf7w3Nl9+/OdH0Q2gvRQP/uNf/nlu+mLDDQNnbFroJdGpoL4UacIvFfvKR92ax/LjIz9+drXjqSDhLmZBEBQK+Qb2sAM6S48BpMytv29NUC5XlpeWIkqGarXa8tLywpcLXXX8K0+3Kts7LSqHSLg3WXtkBvpnDtYhrYZ7D55ubWy+PG37we2ffv7xs6u9Pcdy9mBwqsq0q4Wx6HL/btvprH4h3bgyMdOJXQvet7y0HL1QaaGQvzE72/EN1wHBAM6XQiFfKNwt3SlFb0Q6d2uug5sfH6sa7pUePuuSBso2yAVDC9cu1ethlp9sJl9/pr519MK1S+f5Oo+tI6ps7zS2zdyx6ntxdM/CUDOXszeuTHRJOKzVatEFitPTU932JAIQDOAcWfhyoVyuRJQMlcuVycliE7/jSU/lK9s71XCvsr2TpINzY/Pl0pPN7nm63wb1HammCmP1fW0TxoO18osbVybO8wKmsZdTfSjf3O/Y8cfzuWDo6sHV0lXzRdGtxkEQSAWQdnoMIPWmpq5GfHSrXYsJ5sdHZi5nv/rNL3/87GqSmu9TPTvvqferMHb/04+SDz27f6mczgaDputUm0EuGJoqjNWb1+tXSLdVkb2K7FkqNvUBBNARZgwg9fKFQt/S8onBYGurzcdTX9Q/ybo6y082z2edTGagf276YjYYKj18lmSc2iX15R3R/g7sarjX9Gqiu59M1r/ykT6TXDCUGej/YKC/413FSUTfTIpFwQAEA6C7RXcKts7CtUvhwZauEa8553Uy9SVNY7NBfTR5PluQG+jYbtb3bW4Yq8+hJV89yc0EEAyAnrJw7dLHf34U/ZoHT7e6bRGYNmeDjc2XsdUyW+FeGseU6+sblUqlXswWBEE2my1OFpOstPvuAL0jR37OZ2kAwQCgyYLhwXqvbcRr1sovznMwqDdzJ+mvTdfqjyt/WVk6uq5lpa+v7969xenpqeQrZXUqGLSimgig+2k+htTr5i1Ir8c9do1djLLn1avMY4NBin6i0p3SvXuLJ5WdJN83t1N1RJ3NJG5EQAeZMYDUi14qJJ/Pd3bUmwuGquFexGsq2zun2qOq92SDoZ7Z5Hjph6Xope7rI8jbf/zX776/f8aheX58pOEKq+Unm9EvUE107M0kYkfFV4IBCAYAsaO32GDgLPWGMAyXTl4g613VanXlLyszv545SzCYvTLRcDDYCveiv75qIuAcUkoEqVepVCI+2vFtj2NnA95fw/G8+Vvcj5+W4enKyoNmvTj2qsgM9J+lITvJJJVqolPdTNq/MjIgGACnk83lOnsASUZv53nSoPb6TfSMSoqCQaVcSf7i8MBJH43dZeyM5WdJPt1c1qluJhYzBcEA6LwwfNXlRxi7edN5HoEleSydlrVKq6fcZjvi0k3SYHCWQ80k2FOss93PbkSAYAA08Pc4qucvl+t8A2XsGC51waBZ48Xa6zexXbBp3xUr6n0vl48PGAf1/dGfe/aG9asHG8ydPbadH4VCvuEbESAYAJ3X8R6DJEPb1LUZ3P7p5/kf1s+eZ0oPn7VhBNy1Rk/Y7Cy2jig/PnL2raC1GTQ/MKsmAsEA6KDop3Sn2mW2g8EgdZMGle2dyvbO/A/rN799vFZ+0UCqCXf3b377OMm4cyrBg+2UptCTrs/Y09KUsBQMD6omOq1cZJtBtar/GNLNcqWQ9mDwKnLgNdoV48WDeu427Gbwane/iQEje8LWY+9+i2q4V3r4rD5UrS+rHzvWrIZ7D55urcU9FD9MBWd/NN42hUJ+fX3jNKPM7LGRqW2zKB9OXIjt/N7YfJmibNb67PeBkwCCAcCZtGc3g7Xyi4QD7iTufjJ57FxH+bhD3dh8eficOxcMjQ4PZt9LCJXtna3TFE1lBvrnpi+m6F3+sFhMHgymp6eOnWGInS4IhgebtUxTceJCbI+HYAAIBkAv6J51QvLjIytPo8oM6m0GqXg6/l9xI9dquFeN2z8riYVrl1I0XVAf6z9aWysnW7T0xuyNY/+91QuVvisXDAXDg9ETFPVqonS9EefhlgK0gh4D6O2/4mGXtAMmaTNIRaNnkm0HmmLmcjaNbccLXy4k6TRY+HLh2AaDcHc/9vQ297RoQT7FxV+rWXoIBAMgxU5V8906SZaNT0X/cXsOcqowlq4iokNBENz95uuIFtVMJrPw5cL09FRjQ/Azbnj8PouWpu5mAggGwPGiVxbv6+tbXlrukkmDD+MezQoGdTOXswvXLqX3mszlct99f3/hy4UjF2cQBDO/nvm//+/Hk1JBm+uI/udoT2gxFwyOqNVqy0vLMbFNazKknB4DSL0gCCLm98MwnP/8i6/+/f90fOnS2EbPehlJ7MRCDweDzED/wrVLvbFxwfT01GEAqNVqSeqLktQRtWK7t+LEhdie9Y3Nlz28oUSsarVauvOn2Dqi6MVMAcEAaLlCIb+6Gkb/Uf/dbz/O/bfs6OhoX1/f7Cez7T/OJI2ej8ovct1dQjM3fXHl6VYrHiHXy4d6ssk14f4GSUJXK0bngsGxln5Y6uvre/XqVbW6Va1Wk9yI3I1BMAA67MNicXV1LfZl1QP1/+5IMKiPwKLXJtrYfNnltfX1zQrC3f0HB/EgdsX9+EHzQP9UYez65WyzluBMr9i41ZQNj4+9LDMD/dHLyJ7DaqKluMKhI65OTbkbg2AAdNjkZDG6mqh7XL+cjQ4G4cEOZa0oF2muYHhwbvri3PTFarhX3wW5sr1zqi1yg+HB/PhIceLCeS5QeVft9Zv2bHh80leOnjSoH54368R8m8lMThadB0i7f3j79q2zAGlXLlfmP59P/vr/fPxXJ63pwt39VwdV8rXXb169t31vZqC/vuVZYXwkm6DhFTrrnz76VfIXf/XvXwkG0APMGEAvKBTyt27N3bu36FR0UH1H3u6f7oDmmp6ekgpAMAC6yMyvZz7IZEp3Sk4F0Dazszc61bMECAbAiaanp3K57OK9xXK54mwALVUo5G/MzlqMCHqJHgPoQWEYrq2uVSqVkxKCHgMg2kk9BoVCPpvLTU1dtWsBCAZA+kJCGL56/0+7MwNEeP+xQhCMdnyfREAwAAAAWusfnQIAAEAwAAAABAMAAEAwAAAABAMAAEAwAAAABAMAAEAwAAAABAMAAEAwAAAABAMAAEAwAAAABAMAAEAwAAAABAMAAEAwAAAABAMAAEAwAAAABAMAAEAwAAAABAMAAEAwAAAABAMAAEAwAAAABAMAAEAwAAAABAMAAEAwAAAABAMAAEAwAAAABAMAAEAwAAAABAMAAEAwAAAABAMAAEAwAAAABAMAAEAwAAAABAMAAEAwAAAABAMAAEAwAAAABAMAAEAwAAAABAMAAEAwAAAABAMAAEAwAAAABAMAAEAwAAAABAMAAEAwAAAABAMAAEAwAAAABAMAAEAwAAAABAMAAEAwAAAABAMAAEAwAAAABAMAAEAwAAAABAMAAEAwAAAABAMAAEAwAAAABAMAAEAwAAAABAMAAEAwAAAABAMAAEAwAAAABAMAAEAwAAAABAMAAEAwAAAABAMAAEAwAAAABAMAAEAwAAAABAMAAEAwAAAABAMAAEAwAAAABAMAAEAwAAAABAMAAEAwAAAABAMAAEAwAAAABAMAAEAwAAAABAMAAEAwAAAABAMAAEAwAAAABAMAAEAwAAAABAMAAEAwAAAABAMAAEAwAAAABAMAAEAwAAAABAMAAEAwAAAABAMAAEAwAAAABAMAAEAwAAAABAMAAEAwAAAA2uz/BwAA//8k7Uy1j0ffQAAAAABJRU5ErkJggg==;clipPath=inset(29.31% 29.67% 30.46% 29%);" vertex="1" parent="e9nx1dZjpdk4EGY3y0fY-44">
          <mxGeometry x="24.629999999999995" y="11.540000000000077" width="95.37" height="26.92" as="geometry" />
        </mxCell>
        <mxCell id="e9nx1dZjpdk4EGY3y0fY-62" value="Data processing" style="shape=module;align=left;spacingLeft=20;align=center;verticalAlign=top;whiteSpace=wrap;html=1;" vertex="1" parent="e9nx1dZjpdk4EGY3y0fY-63">
          <mxGeometry x="194" y="305" width="146" height="50" as="geometry" />
        </mxCell>
        <mxCell id="e9nx1dZjpdk4EGY3y0fY-97" value="" style="group" connectable="0" vertex="1" parent="1">
          <mxGeometry x="50" y="790" width="200" height="100" as="geometry" />
        </mxCell>
        <mxCell id="e9nx1dZjpdk4EGY3y0fY-64" value="Polizas BD" style="shape=module;align=left;spacingLeft=20;align=center;verticalAlign=top;whiteSpace=wrap;html=1;" vertex="1" parent="e9nx1dZjpdk4EGY3y0fY-97">
          <mxGeometry width="200" height="100" as="geometry" />
        </mxCell>
        <mxCell id="e9nx1dZjpdk4EGY3y0fY-95" value="" style="group" connectable="0" vertex="1" parent="e9nx1dZjpdk4EGY3y0fY-97">
          <mxGeometry x="35" y="30" width="130" height="50" as="geometry" />
        </mxCell>
        <mxCell id="e9nx1dZjpdk4EGY3y0fY-93" value="" style="shape=module;align=left;spacingLeft=20;align=center;verticalAlign=top;whiteSpace=wrap;html=1;" vertex="1" parent="e9nx1dZjpdk4EGY3y0fY-95">
          <mxGeometry width="130" height="50" as="geometry" />
        </mxCell>
        <mxCell id="e9nx1dZjpdk4EGY3y0fY-94" value="" style="shape=image;verticalLabelPosition=bottom;labelBackgroundColor=default;verticalAlign=top;aspect=fixed;imageAspect=0;image=data:image/jpeg,/9j/4AAQSkZJRgABAQAAAQABAAD/2wCEAAkGBxAQEBURERIVFhUVFxUVFRUVFRYWFhUXFRcXFxgVFRgYHSghGBolHRUXITEhJykrLy4uFx8zOjMtNygtLisBCgoKDg0OGhAQGzcmHyU3NTM2LTcuNzcvNS41Ny0tLjUxNzMxNzctMzE3NTU1NTQvNzcrLi03Myw3Nzc1LTctN//AABEIAIEBhwMBIgACEQEDEQH/xAAcAAEAAgMBAQEAAAAAAAAAAAAABgcBBAUDAgj/xABNEAABAwIEAwQFBwgGCAcAAAABAAIDBBEFBhIhEzFRByJBYRQycYGRCDNCUnKhsRUWFyNUYsHRNHOCkpOyVXSz0tPh8PEkNUVTY8Pj/8QAGQEBAAMBAQAAAAAAAAAAAAAAAAIDBAEF/8QAJhEBAAEEAQMDBQEAAAAAAAAAAAECAxEhMQRBURJhcTKBkbHhE//aAAwDAQACEQMRAD8AvBERAREQERcrM9XNDTukhaXEW1aRqc1n0nNb9Igb2R2ImZxDoT1LGesdzyHMn2AblfPFeRcNttfvc/ZYKJ0WN4d3ZGVBu4AOc9zo5D+8NQF/MKSwztIBZMHg8h3XX94suZhKq1XT9UTDeBvui8qYEN0nmPw8P+vJeq6gIiICIiAiIgIiICIiAiIgIiICIiAiIgIiICysIgyiIgIiICIiAiIgIiICIiAiIgIiICIiDCIiDKIiAsLKIIVmvBxBHJLEwOhd3pIiLhjwbiaMW2Fx3m8iCStE4bQ1eltFT2kc1r3ysc+JkQcL94sI1O/dCsCWMOaWkXBBBHkVXuD5dNPBLLFVyQFksrSNjEQ1xDe6fG1lTXExOo09bpbsVWpzVMVRMY5xOfOPGG3h2X5+JNEyvqWOiLLElrwWvbe5DwfEFeFXi2JU7y2Kpiq9IJe3hadAG5L5Gd1uy4/pda98kszZTEdDZuACx7mtBLb+IFnXXVxTMVAKRlPSubG2VwZILaSxl7yFw56iLjzJVdNymY8NlfTXYqj1RFeccRExGt5nn3dKPN9TE1rqrD5WtIB4kNpW2Ivew733Lt4LmSkrB+oma4+LD3XjyLTuCtCHME0wDaKke5osBJP+pjsNtgQXO+CjWZsuGoqIWPdGKqQ6gaZnDMUbfWkfJ6zh4DzIV2Zj3ed/lbrnFUeifnP5jePyspFC4sRrMLcG1rjPS8m1QH6yLpxx4j94KZRvDgHNIIO4I3BB8QpxLFctzRvmPKIdp+I1kFLEaJ+mZ9RGwbCzgbktNwdjZdjDMwxS4e2uJ0s4RkffYsLQdbT0III9y5ufm39B2v8A+Op/xKjWIYTUCudhLGn0SqmFaXDZrIm2dNB/alDdujyuq3tk3MFVU02IyV0z4g0h7CxoD6aKWIStDQG31BrhzubqWVOYqWjpoHSyvfxGMEVmOfNN3QdQYwXJsbnba6iVRGQzMAANu7p28BSsGy+/S2UVVQVdWCIDQMhbKWksgl7jjrP0NQ2v5WQSd2cqJsDaiR0kTHS8EcWKRjg/oWkXA8+SxLnSjbCyU8UcRzmxxcGTjPLTuWxadVvG9rWXDzZiFPXNw98DhLF+UIWlwBLSW7nmNxy35L1x+rZRYxHWVXdp30xgbMQSyGTXqIefo6xYX8rIO9hmaqOojlkbIWcHeZsrXRviFr3e14BAsOaYLmmmq9ZjErWsaJC6WGSJpYb95rngAjZRF8tLX1tXV7mhFF6PNMGkNmc54ddhA74Y2+4+subFUVFXS12HUlT6bCKX9TOBZzXE2FO97e69xaPb15oJlT9oGHve0B0oY9wYyZ0ErYHuOwDZS3TYnkeRUfxvHop8abSSSVTYoY2uDIWTtD5zJ6z3MF3RgAb+qbnmvPHszUVbhZoaY3qZY2QspgwiWKTui722uwMO9/Cy7OHwubjpDrkjDoWl3gSJX33QfGXc/sqaiqhMcg4UhbF+plaCxrGuPEc5tmOuTsbbWXby/jrqkuDowyxcBYk30EA3BA23Fj47rg5SrYY8SxKllcGyzVPFjjcDeSPgMu5vUd0qY0lBFFfhsa29r26DkPYOiDZREQEREBERAREQZWERBlYREBZWEQZRYRBlYREGUWEQZRYRAWVhEBERAREQEREAm26gWG4nBxJX1BdZrpJYI3CzHXPrN+s7ou5nDE3RxcGPeSQbm9hHH9KRx+iLbA9VHn0Bki9IqZhGGMtTNNmDb1SGu3INvaeaouzOddnq9Fap9Ezc4q17/b5/WW7TVdSKZ8gAha4ukkleO8S43tGz4AXXMoMiPli9J4jo6ku4keoAgeIDx1K3zjMtZI10dM+RrLFjXDRHr+u8nn5ALffhmJ1B/X1TYGn6FO3vDy1uv+Ch6aau2WmL1yxmImKJnnvrxjcz99dnlFnDgwPFWwMqYrN4dwBITs1zCfonxPhYrQy/jlJC58z5HVNVMbycCN8oYB6sTNI2aB9+67VHkihYdb2Omf8AXncZD9+w+C79PTsjGljWtHRoAH3K6mKu7DdvdPETFuJ3z2j4jnTh/liomBazD5S07fr3MjBB6tNz9y9sr4dNTMfG/S2O94o2uL+EDzYHEDu35DwXbRTwxzc1MRGIaeLYlBSwunqHtZGzcudyHQDqfJVLivbxHrLaOidKBye92i46hrWk29q0vlIYlJrpaUG0bg6V3QuvpF+thf4q0Mj5ZpKGkiZBG25Y1zpLAve5wBLi5dVq8wXtz4k7IaigLOI5rLskuQXENBLXNG2/VXK5oIsRcdFzsUwCkqrceBjy1wc1xaNQc03BDhuFjM+NMoaSWqk5RMLgPrO+i33mwQaeac20OFxh1TI1pO7I2gF7vstHh58lWNd286yW0+Hl7f8A5JNz7WtafxUdyHlmfMlbLW1z3GJjhr07ajzELL30tAIv42PU3X6BwvBqalYI4IY42jYBrQPv5lBU2E9vEOoMq6J0Q5Xjfrt7WFoNvZdWvgWLU1ZCJqWRj4z4ttsejh4HyK1cw5Voq+Mx1EDHX+kAA9p6tcNwVRNBPUZVxjgveXUshbqvyfE42D7ctbf59UH6Gr5mwxST6b6GOebWBcGNJtf3KL9nmfY8YEpZA6LhaQdTg6+q/QeSkGYXA0NQQbgwSkEciDG7cKpPk1epWe2P8HILsLBe9hfrbf4rKIgKts59sNFQSOghYamVuztDg2Np+qX2Nz7AVJO0nEJKbCqqWIkPERDSObdXd1DzF1WnyesuUs0U1bKxskrZeEzUA4MAY12oA+JLufkg+R29TtN5MNAb/WuB+JjsVbGT8xMxKjZVxscwP1DS6xILTY7jmupUUcUjdL42Ob0c0EfArxwrC4KWPhQRiNl3ODW8gXG5t03QbiL5kka0FziABuSTYD2kriHOeF69Hp9Lqva3Hj59OaDvIviKRrgHNIIPIggg+wheVVWxRWMsjGX5a3Nbe3S5QbCLUq8SghYJJZo2MO4e97WtN+jibFeMOO0b2CRtTAWEkB4lYWki1wDe1xcbeaDooviKRrgHNIIO4INwR1BHNfSDKLWbiEBfwxLGX3I0B7dVxzGm917SSNaC5xAA5kkAD2koPtFwvzzwvXo9OpdV7W48fPpzXaje1wDmkEHkQbg+whB9oteqrYYrcWRjL8tb2tvbna53XxWYlTwsEks0cbDuHve1rT7CTYoNtYXPjxykdEJm1EToydIe17XNJ6Ag8/JbsMrXtDmEFp5EG4KD0RFhBlERBhERAREQFxc05jhoItT+9I7aKIbue7wAHTzXSqJyDoZYvIvvyaPrO/l4rkVOCxxXqHDiTaml0rwC4NB9Vg5Mb5BcnPZZbmiJzXuPCHYfg2KVrjPPpha86u93nH6oDOVh4A7eNrqXYblWmifql1TScxJM4u/ut5N9wXS9OY6T1hpby8dTj0A6L3lkLhs2wHi7Y+VgoRbiOdtN/r7tzUYpjxGv69Y2ix2AF/cniOi+YoyANW/n/wAl9ONyPf8AgrGJ6IiICIiCve2PI78UpmyQAGoguWNJtrabamX67XHmFCOz/tXfQAUGKseBF3GyaTxIwOTZG8yB1G9rc1fKjWb8jUOKMInjAkt3Zmi0jff4jyKDuYbiMNTG2WCRsjHbhzCCD/JVn8oqudHhsUbTtLOA7zDGudb4gKvnuxDKeIhusyQP3AudE0d9+79GQKddvzPScJp6qLdglZJf9yVhAPxLUEn7HKFsODU2kfOB0rvMvJP4WHuU1UJ7GsQbPg1PY7xh0TvIsP8AIg+9TZAVKfKVom8Ojn+kHSxnzDg1w+Gk/FXWqS+UrXt0UdOPWLpZT5ABrR8bu+CCeYJVGbLzZHczROv7oiP4KB/Jq9Ss9sf4OVgYZRGDAREebaJwPt4RP8VX/wAmr1Kz2x/g5BdqIiDRx3C46ymlppPVlY5htzFxzHmDv7l+esMrsSypWOjlj108h3+pK0cnxu+i+3gf+a/Sa1MUwyCqjMVRE2RjubXgEe0dD5oORlLO1DibL00o1gd6J3dkb/Z8R5hSIlfn7tF7NJMKviOGyPbHGQ5zQ464d/Wa76TOt/vU7yVnZ+JYNPK/aogjkZJba5DCWvHtH33QQbMGLVmZcTNBSyGOkjJ1Eci1ps6V9vWvyaPNSw9hWGcLTxJ+Jb5zU3n102sqr7L67GIDO/C6dsxIjEpc0OLR3i0C7ha+/wAFPvzlzj+wM/wh/wARBzcg4nVYJjJwipkL4JHaW35NLm6o5GX5A7Ajz8l0/lK/M0n25P8AKFGcQwLMFdiUFZVUTmuY+EFzA1oDWPvcjUepUm+Up8xR/bk/yhBrZbyVNj8UdVWyyRU0cbIqaFlrlsbQ1zzfYXIK6GcuzOKlwKeKFzpDDI6qYXAag3S0Pbtz7rSVY2SIGx4bSMaLAU8P3sBP3ldmaIPa5jhcOBaQfEEWIQVv2CY76ThnAcbvpnGPf6h7zPhcj3Kd49ibKSllqX+rExzz7hsPjZUh2dPOD5jmw9xIjmLo29OXEiO/l3faVJvlCY4Y6SKij9epeC4DmWM8Pe4t+CDidgeFOqKqqxWYcy5rXHxfI7XI4ewWF/3itLGMUrM0YmaKmkMdHETqIOxY02MrresXfRarLwnBzhmAGEC0jKZ732/91zC533m3uVIdl2IYxTid2F0zJtWgSlzA4ttqLQO8LcygtJ/YXhfC0iScSW+c1jn106be5Rjs7xaqwbGHYNUyF8LnaGX5Nc5uqN7L8muBAI6nyXT/ADozh/o6L/D/AP1UaqcDzBW4pBXVVE5rmPhBLA1rQ1j73I1HwJQd/wCUt83R/al/Bi+MvZHlx+OOsrppI6drGR00LLX0MaGl5vsLkX819/KV+bo/tS/gxWtlGBseH0rGiwEEVv7gKCP4R2eR0lJ6JHK5zOI6S79nWdoOm7eW7BupZhdHwYgy9yLkm1gSdzYeAW2iAsLKwgyiIgwiIgISiII9l2WWZj5WuY0ve7USC5wtsG2uAABZbdZTFxEXEe5ztyb2a1t9yWjnfkAufUUs1DK+aBuuJ+74xzafrDyW5hNYZWl0Oklxu9zzuD00DewHIXCD2hb6MSCLxnk8Ddvk/qPNeslY10gaDcDvHTvc+A2+K8MQiLW9+Rz3OOljG9xpJ8LDe3ible1JhrYmjvFrrd5wOx9x2sg3QXHw0+3cr5abvP7oHtuf+33ryZUnexD7cyBYbefJfVBcs1Hm86vjy+6yDZREQEREEYx/PNHQVcdLVOMfEj4jZD6nrFul3TlzXYhxqle3W2oiLTvqEjLfiuFnbs/osW0uqNbZGNLWSRusQCb2sbg7+Sgbvk/watq2TT0Mbb/G/wDBBw+3bMcFfPT0lIRM6Muu6PvAvfpaGNI5nZXAcsNmwhuHTfs7IifqvawAOHscFzsl9mWH4W7ixh0s1rcWUgkX+o0Czfbz81NUH5tybmOoyzXy0dYxxhe4awPDwbPGPpAgbjoOoV94XmehqmCSGpicD++0EeRBNwV8ZnytR4lHw6qIPA9Vw2e37LhuFWOK9gUFnGmq5AbEsZI1rhfwBcLbedkFgZmz9h1BGXS1DHO8I43B73HpYcvaVTuWcPqczYsa2oYW00RaSNy3S03ZC0nmTbc/zC4GRsFoI8SdR4yx7HA6Ggu0Rh4PKS29jtY3t8V+oMPoooI2xQsayNos1rQAAPcg1sx/0Kp/qJv9m5Ut8nrF6anbVceeOLUY9PEe1t7A3tc7q9K6mE0T4nEgSMcwkcwHAg2+Kqr9AeH/ALVU/GL/AHEFh/nZh37bT/4zP5rdw7FKepBME0coabOMbw6xPIGx2VX/AKA8P/aan4xf7imeQ8kQYPHJHDJI8SuDiZNNwWi22kBB1MzY3HQUz6qRriyPTqDedi4AkdbXuvDBs34fWMD4KqJ3UF4a4eRadwt7G8JhrIH087dUcgs4AkH3Eciqsr+wOkc4mGrlYD9FzWvt7DsgkXarm+igw6oh40b5Zo3RMja4OJLxp1EDkBe6jvyf8BeMPqZJAQyqOho6ta1zS74uPwW3gnYZh8Lw+eWWe2+g2Yw+0N3PsurSp4GRsaxjQ1rQA1oFgAOQAQfnTs4xj838WqKStuyN54bnnkNBJjk+yQ47+a/Q0FfDI3WyVjmkX1Ne0j43UfzpkOhxVo9IaWyNFmyxmzx5HwcPIqAfoAg1f06TT04bb/G/8EFlxZton1jaKOZskzg5xawhwaGi51OGw9irP5SvzNJ9uT/KFNsldm1BhTuLEHvmsRxZDcgHmGtFgPhdbGfMjQYwyJk8kjOEXOHD076hbfUD0QdTKX/l9L/q8P8As2rrLWw2jbBDHC0ktiYyME8yGNDQT57LZQUl2+4S6CopcVhFnNc1jyOrDrjJ+8fBaeDTfl/MjZ7Xp6VjH9W9wCw9pkcT7G+SuLNeXocSpH0k5cGP0nU2wc0tIIc2+19lzciZGpsHZIyBz3mRwLnSadWwsANIG380EjrqYSxPidye1zD7HAj+K/PPZljf5AxOeirrsZIQxzzs1rmE6JPsuBO/mF+jFFs6ZBocVAM7S2Ros2WMgPA6HwcPIoJDDXwvaHtlYWnfUHtIt7brl0+baKWsFFFM2SYtc8hh1NaG2vqcNgdxsq0/QBBq/p0mnpw23+N1N8k9nFBhTuJCHvmILTLIbuseYaAAG/BBA/lLfN0f2pfwYray1/Qqb+oh/wAjVxs+ZEp8YbEJ5JGcIuLeHp31WvfUD0UkoKUQxMiaSRGxrATzIaABfz2Qe6IiAiIgIiICIiAiIgLn1WDQvdr0lj/rxksd93P3roIg4smF1AcHNqNRAsNbBcDxAI8T1tderYJG7uha89eKXfc9dVEGk9z5G6DE5gNtVyy2nxGx8eS4NVhtWa3iDVp7oBDu6BqJLrXtYNs3Ta5UsRAREQEREBFX2dO1SmoKj0SKGSpqPFkfJpO4aTuS629gFycO7Z2NmbFiFFNS6zs9wNh5ua4A6fMXQWui8xM0t16hptq1X202ve/SyqzEe2drpnxYfRTVQjPekaDYj6zQ0E6duZtdBa6KF5B7RabFi+JrHQzx7uifa5HIlpHOx2I2IU0QQDtO7No8WDZI3NiqGWHEIJD2fVeB08CuxkLCa+jp/R6ydk4ZYRPaHB4b9V9+dtrHmtHPvaFBhj4YA0SzyvaDGHW0MJtrcfDmLDx3U0CDKKv879qVNh8/osUT6mo8WR8mE8muO5Lj0AK0cB7Xo3zsp6+kmo3yGzHSA6CTyDtQBF9hexG/ggs5FgFZQEREBERAWFlYQEREBERAREQEREBERAREQEREBERAREQEREBERAREQEREGUREBERAREQQzJeQmYfU1NU+UTy1Dy4PdHpdG0klzQdRvckdOQXN7eRT/keQzAcTXGIDtqD9Qvp/sa7+Skucc30mFwGWofuQeHECNchHg0dOp5BQDLeXKzHKpmJ4q0x07DempCCLjwc4HfTte/N23Icw2carJqPKDNdxIaaGLxDmiUtaB5EMIFvJSbsnweOlwmmDWgOkY2WQgbudIL3J8drD3LndusROCTWHqvhO3TiAfxUkyJKH4ZRuHL0eIfBgH8EFcdoETaDMmG1kQDfSHCOUNFg67xG5xtzJbKP7gVkZyjrn0jmYe5rKhxaGvfazGk9524O4F/Aquu2bv4tg8bd3cYG3tmhAP3H4K4UH5y7QMjjDPQpZZ3z1M9STNK4mxtoIDQd9rnc7ny5L9GBVH2//APp3+sO/+tW4EFMdgdMyeevrJgHVHFAu7dzA8uc61+VyLf2VKO3KihkwaeSQDXEYnROIF2uMrGkD2tcQuHmDIOJ0VfJiGCytHGu6WBxAFybkC+zmk772IN91xc64PjNRh81VjM7I4oGao6eG3flcQxheRtYFw8T7kFm9l+JOqsIpJXm7uHocTuSYnOjufPuKUqFdjVOY8DpAfFsj/c+WRw+4hTVAREQEREBYWVhAREQEREBERAREQEREBERAREQEREBERAREQEREBERAREQZREQEREBfEr9LS7c2BNhudhfZfaIPzOMUrpcUdiVZhU9SR8zE9sjGRAHubaHarDw6klTj9LWJ/wCg5v70n/BVwIgjLIzjGEls8RgdUxODo3XvGTcC9wDtYHkqxy1nDE8CjOH1tBLK2IkQvjBO1zsHAEOb4g7EdFeiwUFO5MwyvxjFm4vXwGCKBumnicCLkatNg7cgF5cXWFzbpZXGiIKr7dKCab8n8KJ8mmcl2hjnaR3NzYbBWmFlEFMYhW4rgGJzzcGaso6k6h3nPMe5cGjnoLdRFiLEW32WrjOJ4pmZzKOKjfTUmtrppZAQSG78yANt7NF7m3grxWEGvhtEynhjgjFmRsaxo6BoAH4LZWFlAREQEREBYREBERAREQEREBERAREQEREBERAREQEREBYREGUWUQEREGFlEQEREBERAREQEREBERAREQEREBERAREQEREBERAWCiICIiAiIgIERAREQEREBERAREQEREBERB//2Q==;" vertex="1" parent="e9nx1dZjpdk4EGY3y0fY-95">
          <mxGeometry x="29.069999999999993" y="10" width="90.93" height="30" as="geometry" />
        </mxCell>
        <mxCell id="e9nx1dZjpdk4EGY3y0fY-96" style="edgeStyle=orthogonalEdgeStyle;rounded=0;orthogonalLoop=1;jettySize=auto;html=1;exitX=0.5;exitY=1;exitDx=0;exitDy=0;" edge="1" parent="e9nx1dZjpdk4EGY3y0fY-97" source="e9nx1dZjpdk4EGY3y0fY-64" target="e9nx1dZjpdk4EGY3y0fY-64">
          <mxGeometry relative="1" as="geometry" />
        </mxCell>
        <mxCell id="e9nx1dZjpdk4EGY3y0fY-99" style="edgeStyle=orthogonalEdgeStyle;rounded=0;orthogonalLoop=1;jettySize=auto;html=1;exitX=0.75;exitY=1;exitDx=0;exitDy=0;entryX=1;entryY=0.75;entryDx=0;entryDy=0;" edge="1" parent="1" source="e9nx1dZjpdk4EGY3y0fY-26" target="e9nx1dZjpdk4EGY3y0fY-64">
          <mxGeometry relative="1" as="geometry" />
        </mxCell>
        <mxCell id="e9nx1dZjpdk4EGY3y0fY-101" value="Store Procedure Execution" style="edgeLabel;html=1;align=center;verticalAlign=middle;resizable=0;points=[];" connectable="0" vertex="1" parent="e9nx1dZjpdk4EGY3y0fY-99">
          <mxGeometry x="0.2332" relative="1" as="geometry">
            <mxPoint as="offset" />
          </mxGeometry>
        </mxCell>
        <mxCell id="e9nx1dZjpdk4EGY3y0fY-100" style="edgeStyle=orthogonalEdgeStyle;rounded=0;orthogonalLoop=1;jettySize=auto;html=1;exitX=1;exitY=0.25;exitDx=0;exitDy=0;entryX=0.5;entryY=1;entryDx=0;entryDy=0;strokeColor=#FF0000;" edge="1" parent="1" source="e9nx1dZjpdk4EGY3y0fY-64">
          <mxGeometry relative="1" as="geometry">
            <mxPoint x="144.98000000000002" y="815" as="sourcePoint" />
            <mxPoint x="469.98" y="765" as="targetPoint" />
          </mxGeometry>
        </mxCell>
        <mxCell id="e9nx1dZjpdk4EGY3y0fY-102" value="Store Procedure Response" style="edgeLabel;html=1;align=center;verticalAlign=middle;resizable=0;points=[];" connectable="0" vertex="1" parent="e9nx1dZjpdk4EGY3y0fY-100">
          <mxGeometry x="-0.2086" relative="1" as="geometry">
            <mxPoint as="offset" />
          </mxGeometry>
        </mxCell>
        <mxCell id="e9nx1dZjpdk4EGY3y0fY-104" style="edgeStyle=orthogonalEdgeStyle;rounded=0;orthogonalLoop=1;jettySize=auto;html=1;exitX=0.5;exitY=0;exitDx=0;exitDy=0;entryX=1;entryY=0.75;entryDx=0;entryDy=0;strokeColor=#FF0000;" edge="1" parent="1" source="e9nx1dZjpdk4EGY3y0fY-26" target="e9nx1dZjpdk4EGY3y0fY-2">
          <mxGeometry relative="1" as="geometry" />
        </mxCell>
        <mxCell id="e9nx1dZjpdk4EGY3y0fY-106" value="Http Response" style="edgeLabel;html=1;align=center;verticalAlign=middle;resizable=0;points=[];" connectable="0" vertex="1" parent="e9nx1dZjpdk4EGY3y0fY-104">
          <mxGeometry x="0.4119" y="-1" relative="1" as="geometry">
            <mxPoint as="offset" />
          </mxGeometry>
        </mxCell>
      </root>
    </mxGraphModel>
  </diagram>
  <diagram id="vO435UvO9ILGP4O957zv" name="Secuencias">
    <mxGraphModel grid="1" page="1" gridSize="10" guides="1" tooltips="1" connect="1" arrows="1" fold="1" pageScale="1" pageWidth="827" pageHeight="1169" math="0" shadow="0">
      <root>
        <mxCell id="0" />
        <mxCell id="1" parent="0" />
        <mxCell id="zlMc-aM2gezHNLIqFYON-87" value="" style="group" connectable="0" vertex="1" parent="1">
          <mxGeometry x="30" y="430" width="990" height="500.14" as="geometry" />
        </mxCell>
        <mxCell id="zlMc-aM2gezHNLIqFYON-47" value="Crear póliza" style="text;html=1;align=center;verticalAlign=middle;resizable=0;points=[];autosize=1;strokeColor=none;fillColor=none;" vertex="1" parent="zlMc-aM2gezHNLIqFYON-87">
          <mxGeometry x="80" width="90" height="30" as="geometry" />
        </mxCell>
        <mxCell id="zlMc-aM2gezHNLIqFYON-48" value="" style="endArrow=classic;html=1;rounded=0;" edge="1" parent="zlMc-aM2gezHNLIqFYON-87">
          <mxGeometry width="50" height="50" relative="1" as="geometry">
            <mxPoint x="20" y="160" as="sourcePoint" />
            <mxPoint x="220" y="160" as="targetPoint" />
          </mxGeometry>
        </mxCell>
        <mxCell id="zlMc-aM2gezHNLIqFYON-49" value="crear()" style="edgeLabel;html=1;align=center;verticalAlign=middle;resizable=0;points=[];" connectable="0" vertex="1" parent="zlMc-aM2gezHNLIqFYON-48">
          <mxGeometry x="-0.2114" y="1" relative="1" as="geometry">
            <mxPoint x="21" y="-9" as="offset" />
          </mxGeometry>
        </mxCell>
        <mxCell id="zlMc-aM2gezHNLIqFYON-56" value="Interfaz&lt;div&gt;Listado de pólizas&lt;/div&gt;" style="shape=umlBoundary;whiteSpace=wrap;html=1;" vertex="1" parent="zlMc-aM2gezHNLIqFYON-87">
          <mxGeometry x="220" y="26.670000000000016" width="100" height="80" as="geometry" />
        </mxCell>
        <mxCell id="zlMc-aM2gezHNLIqFYON-57" value="" style="endArrow=none;dashed=1;html=1;rounded=0;" edge="1" parent="zlMc-aM2gezHNLIqFYON-87">
          <mxGeometry width="50" height="50" relative="1" as="geometry">
            <mxPoint x="220" y="500" as="sourcePoint" />
            <mxPoint x="220" y="86.67000000000007" as="targetPoint" />
          </mxGeometry>
        </mxCell>
        <mxCell id="zlMc-aM2gezHNLIqFYON-60" value="Interfaz&lt;div&gt;Registro de pólizas&lt;/div&gt;" style="shape=umlBoundary;whiteSpace=wrap;html=1;" vertex="1" parent="zlMc-aM2gezHNLIqFYON-87">
          <mxGeometry x="470" y="30" width="100" height="80" as="geometry" />
        </mxCell>
        <mxCell id="zlMc-aM2gezHNLIqFYON-61" value="" style="endArrow=none;dashed=1;html=1;rounded=0;" edge="1" parent="zlMc-aM2gezHNLIqFYON-87">
          <mxGeometry width="50" height="50" relative="1" as="geometry">
            <mxPoint x="470" y="410" as="sourcePoint" />
            <mxPoint x="470" y="90.00000000000011" as="targetPoint" />
          </mxGeometry>
        </mxCell>
        <mxCell id="zlMc-aM2gezHNLIqFYON-62" value="" style="endArrow=classic;html=1;rounded=0;" edge="1" parent="zlMc-aM2gezHNLIqFYON-87">
          <mxGeometry width="50" height="50" relative="1" as="geometry">
            <mxPoint x="220" y="180" as="sourcePoint" />
            <mxPoint x="470" y="180" as="targetPoint" />
          </mxGeometry>
        </mxCell>
        <mxCell id="zlMc-aM2gezHNLIqFYON-63" value="inicializar()" style="edgeLabel;html=1;align=center;verticalAlign=middle;resizable=0;points=[];" connectable="0" vertex="1" parent="zlMc-aM2gezHNLIqFYON-62">
          <mxGeometry x="-0.2114" y="1" relative="1" as="geometry">
            <mxPoint x="21" y="-9" as="offset" />
          </mxGeometry>
        </mxCell>
        <mxCell id="zlMc-aM2gezHNLIqFYON-64" value="Empleado&lt;div&gt;Service&lt;/div&gt;" style="shape=umlBoundary;whiteSpace=wrap;html=1;" vertex="1" parent="zlMc-aM2gezHNLIqFYON-87">
          <mxGeometry x="700" y="30" width="100" height="80" as="geometry" />
        </mxCell>
        <mxCell id="zlMc-aM2gezHNLIqFYON-65" value="" style="endArrow=none;dashed=1;html=1;rounded=0;entryX=0.007;entryY=0.712;entryDx=0;entryDy=0;entryPerimeter=0;" edge="1" parent="zlMc-aM2gezHNLIqFYON-87" target="zlMc-aM2gezHNLIqFYON-64">
          <mxGeometry width="50" height="50" relative="1" as="geometry">
            <mxPoint x="700" y="250" as="sourcePoint" />
            <mxPoint x="700" y="100.00000000000011" as="targetPoint" />
          </mxGeometry>
        </mxCell>
        <mxCell id="zlMc-aM2gezHNLIqFYON-66" value="Inventario&lt;br&gt;Service" style="shape=umlBoundary;whiteSpace=wrap;html=1;" vertex="1" parent="zlMc-aM2gezHNLIqFYON-87">
          <mxGeometry x="890" y="40" width="100" height="80" as="geometry" />
        </mxCell>
        <mxCell id="zlMc-aM2gezHNLIqFYON-67" value="" style="endArrow=none;dashed=1;html=1;rounded=0;" edge="1" parent="zlMc-aM2gezHNLIqFYON-87">
          <mxGeometry width="50" height="50" relative="1" as="geometry">
            <mxPoint x="890" y="330" as="sourcePoint" />
            <mxPoint x="890" y="100.00000000000011" as="targetPoint" />
          </mxGeometry>
        </mxCell>
        <mxCell id="zlMc-aM2gezHNLIqFYON-68" value="" style="endArrow=classic;html=1;rounded=0;" edge="1" parent="zlMc-aM2gezHNLIqFYON-87">
          <mxGeometry width="50" height="50" relative="1" as="geometry">
            <mxPoint x="470" y="220" as="sourcePoint" />
            <mxPoint x="700" y="220" as="targetPoint" />
          </mxGeometry>
        </mxCell>
        <mxCell id="zlMc-aM2gezHNLIqFYON-69" value="ObtenerActivos()" style="edgeLabel;html=1;align=center;verticalAlign=middle;resizable=0;points=[];" connectable="0" vertex="1" parent="zlMc-aM2gezHNLIqFYON-68">
          <mxGeometry x="-0.2114" y="1" relative="1" as="geometry">
            <mxPoint x="21" y="-9" as="offset" />
          </mxGeometry>
        </mxCell>
        <mxCell id="zlMc-aM2gezHNLIqFYON-70" value="" style="endArrow=classic;html=1;rounded=0;" edge="1" parent="zlMc-aM2gezHNLIqFYON-87">
          <mxGeometry width="50" height="50" relative="1" as="geometry">
            <mxPoint x="700" y="250" as="sourcePoint" />
            <mxPoint x="470" y="250" as="targetPoint" />
          </mxGeometry>
        </mxCell>
        <mxCell id="zlMc-aM2gezHNLIqFYON-71" value="Listado de empleados" style="edgeLabel;html=1;align=center;verticalAlign=middle;resizable=0;points=[];" connectable="0" vertex="1" parent="zlMc-aM2gezHNLIqFYON-70">
          <mxGeometry x="-0.072" relative="1" as="geometry">
            <mxPoint y="-10" as="offset" />
          </mxGeometry>
        </mxCell>
        <mxCell id="zlMc-aM2gezHNLIqFYON-72" value="" style="endArrow=classic;html=1;rounded=0;" edge="1" parent="zlMc-aM2gezHNLIqFYON-87">
          <mxGeometry width="50" height="50" relative="1" as="geometry">
            <mxPoint x="470" y="300" as="sourcePoint" />
            <mxPoint x="890" y="300" as="targetPoint" />
          </mxGeometry>
        </mxCell>
        <mxCell id="zlMc-aM2gezHNLIqFYON-73" value="ObtenerActivos()" style="edgeLabel;html=1;align=center;verticalAlign=middle;resizable=0;points=[];" connectable="0" vertex="1" parent="zlMc-aM2gezHNLIqFYON-72">
          <mxGeometry x="-0.2114" y="1" relative="1" as="geometry">
            <mxPoint x="144" y="-9" as="offset" />
          </mxGeometry>
        </mxCell>
        <mxCell id="zlMc-aM2gezHNLIqFYON-74" value="" style="endArrow=classic;html=1;rounded=0;" edge="1" parent="zlMc-aM2gezHNLIqFYON-87">
          <mxGeometry width="50" height="50" relative="1" as="geometry">
            <mxPoint x="890" y="330.14" as="sourcePoint" />
            <mxPoint x="470" y="330" as="targetPoint" />
          </mxGeometry>
        </mxCell>
        <mxCell id="zlMc-aM2gezHNLIqFYON-75" value="Listado de inventarios" style="edgeLabel;html=1;align=center;verticalAlign=middle;resizable=0;points=[];" connectable="0" vertex="1" parent="zlMc-aM2gezHNLIqFYON-74">
          <mxGeometry x="-0.072" relative="1" as="geometry">
            <mxPoint y="-10" as="offset" />
          </mxGeometry>
        </mxCell>
        <mxCell id="zlMc-aM2gezHNLIqFYON-78" value="" style="endArrow=classic;html=1;rounded=0;" edge="1" parent="zlMc-aM2gezHNLIqFYON-87">
          <mxGeometry width="50" height="50" relative="1" as="geometry">
            <mxPoint x="220" y="370" as="sourcePoint" />
            <mxPoint x="470" y="370" as="targetPoint" />
          </mxGeometry>
        </mxCell>
        <mxCell id="zlMc-aM2gezHNLIqFYON-79" value="crearPoliza(idEmpleado, sku, cantidad)" style="edgeLabel;html=1;align=center;verticalAlign=middle;resizable=0;points=[];" connectable="0" vertex="1" parent="zlMc-aM2gezHNLIqFYON-78">
          <mxGeometry x="-0.2114" y="1" relative="1" as="geometry">
            <mxPoint x="21" y="-9" as="offset" />
          </mxGeometry>
        </mxCell>
        <mxCell id="zlMc-aM2gezHNLIqFYON-80" value="" style="endArrow=classic;html=1;rounded=0;" edge="1" parent="zlMc-aM2gezHNLIqFYON-87">
          <mxGeometry width="50" height="50" relative="1" as="geometry">
            <mxPoint x="470" y="410.14" as="sourcePoint" />
            <mxPoint x="220" y="410" as="targetPoint" />
          </mxGeometry>
        </mxCell>
        <mxCell id="zlMc-aM2gezHNLIqFYON-81" value="&lt;i&gt;Póliza generada correctamente&lt;/i&gt;" style="edgeLabel;html=1;align=center;verticalAlign=middle;resizable=0;points=[];" connectable="0" vertex="1" parent="zlMc-aM2gezHNLIqFYON-80">
          <mxGeometry x="-0.072" relative="1" as="geometry">
            <mxPoint y="-10" as="offset" />
          </mxGeometry>
        </mxCell>
        <mxCell id="zlMc-aM2gezHNLIqFYON-53" value="Usuario" style="shape=umlActor;verticalLabelPosition=bottom;verticalAlign=top;html=1;" vertex="1" parent="zlMc-aM2gezHNLIqFYON-87">
          <mxGeometry y="30" width="30" height="60" as="geometry" />
        </mxCell>
        <mxCell id="zlMc-aM2gezHNLIqFYON-54" value="" style="endArrow=none;dashed=1;html=1;rounded=0;" edge="1" parent="zlMc-aM2gezHNLIqFYON-87">
          <mxGeometry width="50" height="50" relative="1" as="geometry">
            <mxPoint x="15" y="500" as="sourcePoint" />
            <mxPoint x="14.829999999999998" y="110" as="targetPoint" />
            <Array as="points">
              <mxPoint x="15.170000000000002" y="130" />
            </Array>
          </mxGeometry>
        </mxCell>
        <mxCell id="zlMc-aM2gezHNLIqFYON-82" value="" style="endArrow=classic;html=1;rounded=0;" edge="1" parent="zlMc-aM2gezHNLIqFYON-87">
          <mxGeometry width="50" height="50" relative="1" as="geometry">
            <mxPoint x="20" y="460" as="sourcePoint" />
            <mxPoint x="220" y="460" as="targetPoint" />
          </mxGeometry>
        </mxCell>
        <mxCell id="zlMc-aM2gezHNLIqFYON-83" value="obtenerPaginado(poliza)" style="edgeLabel;html=1;align=center;verticalAlign=middle;resizable=0;points=[];" connectable="0" vertex="1" parent="zlMc-aM2gezHNLIqFYON-82">
          <mxGeometry x="-0.2114" y="1" relative="1" as="geometry">
            <mxPoint x="21" y="-9" as="offset" />
          </mxGeometry>
        </mxCell>
        <mxCell id="zlMc-aM2gezHNLIqFYON-84" value="" style="endArrow=classic;html=1;rounded=0;" edge="1" parent="zlMc-aM2gezHNLIqFYON-87">
          <mxGeometry width="50" height="50" relative="1" as="geometry">
            <mxPoint x="220" y="500.14" as="sourcePoint" />
            <mxPoint x="20" y="500" as="targetPoint" />
          </mxGeometry>
        </mxCell>
        <mxCell id="zlMc-aM2gezHNLIqFYON-85" value="Listado de pólizas" style="edgeLabel;html=1;align=center;verticalAlign=middle;resizable=0;points=[];" connectable="0" vertex="1" parent="zlMc-aM2gezHNLIqFYON-84">
          <mxGeometry x="-0.072" relative="1" as="geometry">
            <mxPoint y="-10" as="offset" />
          </mxGeometry>
        </mxCell>
        <mxCell id="zlMc-aM2gezHNLIqFYON-99" value="" style="group" connectable="0" vertex="1" parent="1">
          <mxGeometry x="60" y="60" width="320" height="286.67" as="geometry" />
        </mxCell>
        <mxCell id="zlMc-aM2gezHNLIqFYON-6" value="Obtener pólizas paginadas" style="text;html=1;align=center;verticalAlign=middle;resizable=0;points=[];autosize=1;strokeColor=none;fillColor=none;" vertex="1" parent="zlMc-aM2gezHNLIqFYON-99">
          <mxGeometry x="40" width="170" height="30" as="geometry" />
        </mxCell>
        <mxCell id="zlMc-aM2gezHNLIqFYON-7" value="" style="endArrow=classic;html=1;rounded=0;" edge="1" parent="zlMc-aM2gezHNLIqFYON-99">
          <mxGeometry width="50" height="50" relative="1" as="geometry">
            <mxPoint x="20" y="160" as="sourcePoint" />
            <mxPoint x="220" y="160" as="targetPoint" />
          </mxGeometry>
        </mxCell>
        <mxCell id="zlMc-aM2gezHNLIqFYON-8" value="obtenerPaginado(poliza)" style="edgeLabel;html=1;align=center;verticalAlign=middle;resizable=0;points=[];" connectable="0" vertex="1" parent="zlMc-aM2gezHNLIqFYON-7">
          <mxGeometry x="-0.2114" y="1" relative="1" as="geometry">
            <mxPoint x="21" y="-9" as="offset" />
          </mxGeometry>
        </mxCell>
        <mxCell id="zlMc-aM2gezHNLIqFYON-9" value="" style="endArrow=classic;html=1;rounded=0;" edge="1" parent="zlMc-aM2gezHNLIqFYON-99">
          <mxGeometry width="50" height="50" relative="1" as="geometry">
            <mxPoint x="220" y="210" as="sourcePoint" />
            <mxPoint x="20" y="209.86" as="targetPoint" />
          </mxGeometry>
        </mxCell>
        <mxCell id="zlMc-aM2gezHNLIqFYON-16" value="Listado de pólizas" style="edgeLabel;html=1;align=center;verticalAlign=middle;resizable=0;points=[];" connectable="0" vertex="1" parent="zlMc-aM2gezHNLIqFYON-9">
          <mxGeometry x="-0.072" relative="1" as="geometry">
            <mxPoint y="-10" as="offset" />
          </mxGeometry>
        </mxCell>
        <mxCell id="zlMc-aM2gezHNLIqFYON-13" value="" style="group" connectable="0" vertex="1" parent="zlMc-aM2gezHNLIqFYON-99">
          <mxGeometry y="30" width="30" height="256.6666666666667" as="geometry" />
        </mxCell>
        <mxCell id="zlMc-aM2gezHNLIqFYON-1" value="Usuario" style="shape=umlActor;verticalLabelPosition=bottom;verticalAlign=top;html=1;" vertex="1" parent="zlMc-aM2gezHNLIqFYON-13">
          <mxGeometry width="30" height="60" as="geometry" />
        </mxCell>
        <mxCell id="zlMc-aM2gezHNLIqFYON-11" value="" style="endArrow=none;dashed=1;html=1;rounded=0;" edge="1" parent="zlMc-aM2gezHNLIqFYON-13">
          <mxGeometry width="50" height="50" relative="1" as="geometry">
            <mxPoint x="15" y="256.6666666666667" as="sourcePoint" />
            <mxPoint x="14.829999999999998" y="80" as="targetPoint" />
            <Array as="points">
              <mxPoint x="15.170000000000002" y="100" />
            </Array>
          </mxGeometry>
        </mxCell>
        <mxCell id="zlMc-aM2gezHNLIqFYON-14" value="" style="group" connectable="0" vertex="1" parent="zlMc-aM2gezHNLIqFYON-99">
          <mxGeometry x="220" y="26.67" width="100" height="260" as="geometry" />
        </mxCell>
        <mxCell id="zlMc-aM2gezHNLIqFYON-4" value="Listado de pólizas" style="shape=umlBoundary;whiteSpace=wrap;html=1;" vertex="1" parent="zlMc-aM2gezHNLIqFYON-14">
          <mxGeometry width="100" height="80" as="geometry" />
        </mxCell>
        <mxCell id="zlMc-aM2gezHNLIqFYON-12" value="" style="endArrow=none;dashed=1;html=1;rounded=0;" edge="1" parent="zlMc-aM2gezHNLIqFYON-14">
          <mxGeometry width="50" height="50" relative="1" as="geometry">
            <mxPoint y="260" as="sourcePoint" />
            <mxPoint y="60" as="targetPoint" />
          </mxGeometry>
        </mxCell>
        <mxCell id="zlMc-aM2gezHNLIqFYON-125" value="" style="group" connectable="0" vertex="1" parent="1">
          <mxGeometry x="30" y="990" width="350" height="350.1400000000001" as="geometry" />
        </mxCell>
        <mxCell id="zlMc-aM2gezHNLIqFYON-88" value="Eliminar póliza" style="text;html=1;align=center;verticalAlign=middle;resizable=0;points=[];autosize=1;strokeColor=none;fillColor=none;" vertex="1" parent="zlMc-aM2gezHNLIqFYON-125">
          <mxGeometry x="75" width="100" height="30" as="geometry" />
        </mxCell>
        <mxCell id="zlMc-aM2gezHNLIqFYON-89" value="" style="endArrow=classic;html=1;rounded=0;" edge="1" parent="zlMc-aM2gezHNLIqFYON-125">
          <mxGeometry width="50" height="50" relative="1" as="geometry">
            <mxPoint x="20" y="160" as="sourcePoint" />
            <mxPoint x="250" y="160" as="targetPoint" />
          </mxGeometry>
        </mxCell>
        <mxCell id="zlMc-aM2gezHNLIqFYON-90" value="eliminar(poliza)" style="edgeLabel;html=1;align=center;verticalAlign=middle;resizable=0;points=[];" connectable="0" vertex="1" parent="zlMc-aM2gezHNLIqFYON-89">
          <mxGeometry x="-0.2114" y="1" relative="1" as="geometry">
            <mxPoint x="21" y="-9" as="offset" />
          </mxGeometry>
        </mxCell>
        <mxCell id="zlMc-aM2gezHNLIqFYON-91" value="" style="endArrow=classic;html=1;rounded=0;" edge="1" parent="zlMc-aM2gezHNLIqFYON-125">
          <mxGeometry width="50" height="50" relative="1" as="geometry">
            <mxPoint x="250" y="190.1400000000001" as="sourcePoint" />
            <mxPoint x="20" y="190" as="targetPoint" />
          </mxGeometry>
        </mxCell>
        <mxCell id="zlMc-aM2gezHNLIqFYON-92" value="confirmarAccion()" style="edgeLabel;html=1;align=center;verticalAlign=middle;resizable=0;points=[];" connectable="0" vertex="1" parent="zlMc-aM2gezHNLIqFYON-91">
          <mxGeometry x="-0.072" relative="1" as="geometry">
            <mxPoint y="-10" as="offset" />
          </mxGeometry>
        </mxCell>
        <mxCell id="zlMc-aM2gezHNLIqFYON-97" value="Listado de pólizas" style="shape=umlBoundary;whiteSpace=wrap;html=1;" vertex="1" parent="zlMc-aM2gezHNLIqFYON-125">
          <mxGeometry x="250" y="20" width="100" height="80" as="geometry" />
        </mxCell>
        <mxCell id="zlMc-aM2gezHNLIqFYON-98" value="" style="endArrow=none;dashed=1;html=1;rounded=0;entryX=-0.003;entryY=0.716;entryDx=0;entryDy=0;entryPerimeter=0;" edge="1" parent="zlMc-aM2gezHNLIqFYON-125" target="zlMc-aM2gezHNLIqFYON-97">
          <mxGeometry width="50" height="50" relative="1" as="geometry">
            <mxPoint x="250" y="350" as="sourcePoint" />
            <mxPoint x="250" y="86.67000000000007" as="targetPoint" />
          </mxGeometry>
        </mxCell>
        <mxCell id="zlMc-aM2gezHNLIqFYON-94" value="Usuario" style="shape=umlActor;verticalLabelPosition=bottom;verticalAlign=top;html=1;" vertex="1" parent="zlMc-aM2gezHNLIqFYON-125">
          <mxGeometry y="30" width="30" height="60" as="geometry" />
        </mxCell>
        <mxCell id="zlMc-aM2gezHNLIqFYON-95" value="" style="endArrow=none;dashed=1;html=1;rounded=0;" edge="1" parent="zlMc-aM2gezHNLIqFYON-125">
          <mxGeometry width="50" height="50" relative="1" as="geometry">
            <mxPoint x="15" y="350" as="sourcePoint" />
            <mxPoint x="14.829999999999998" y="110" as="targetPoint" />
            <Array as="points">
              <mxPoint x="15.170000000000002" y="130" />
            </Array>
          </mxGeometry>
        </mxCell>
        <mxCell id="zlMc-aM2gezHNLIqFYON-100" value="" style="endArrow=classic;html=1;rounded=0;" edge="1" parent="zlMc-aM2gezHNLIqFYON-125">
          <mxGeometry width="50" height="50" relative="1" as="geometry">
            <mxPoint x="20" y="230" as="sourcePoint" />
            <mxPoint x="250" y="230" as="targetPoint" />
          </mxGeometry>
        </mxCell>
        <mxCell id="zlMc-aM2gezHNLIqFYON-101" value="Confirmar" style="edgeLabel;html=1;align=center;verticalAlign=middle;resizable=0;points=[];" connectable="0" vertex="1" parent="zlMc-aM2gezHNLIqFYON-100">
          <mxGeometry x="-0.2114" y="1" relative="1" as="geometry">
            <mxPoint x="21" y="-9" as="offset" />
          </mxGeometry>
        </mxCell>
        <mxCell id="zlMc-aM2gezHNLIqFYON-102" value="" style="endArrow=classic;html=1;rounded=0;" edge="1" parent="zlMc-aM2gezHNLIqFYON-125">
          <mxGeometry width="50" height="50" relative="1" as="geometry">
            <mxPoint x="250" y="270.1400000000001" as="sourcePoint" />
            <mxPoint x="20" y="270" as="targetPoint" />
          </mxGeometry>
        </mxCell>
        <mxCell id="zlMc-aM2gezHNLIqFYON-103" value="&lt;i&gt;Póliza eliminada correctamente&lt;/i&gt;" style="edgeLabel;html=1;align=center;verticalAlign=middle;resizable=0;points=[];" connectable="0" vertex="1" parent="zlMc-aM2gezHNLIqFYON-102">
          <mxGeometry x="-0.072" relative="1" as="geometry">
            <mxPoint y="-10" as="offset" />
          </mxGeometry>
        </mxCell>
        <mxCell id="zlMc-aM2gezHNLIqFYON-104" value="" style="endArrow=classic;html=1;rounded=0;" edge="1" parent="zlMc-aM2gezHNLIqFYON-125">
          <mxGeometry width="50" height="50" relative="1" as="geometry">
            <mxPoint x="20" y="310" as="sourcePoint" />
            <mxPoint x="250" y="310" as="targetPoint" />
          </mxGeometry>
        </mxCell>
        <mxCell id="zlMc-aM2gezHNLIqFYON-105" value="obtenerPaginado(poliza)" style="edgeLabel;html=1;align=center;verticalAlign=middle;resizable=0;points=[];" connectable="0" vertex="1" parent="zlMc-aM2gezHNLIqFYON-104">
          <mxGeometry x="-0.2114" y="1" relative="1" as="geometry">
            <mxPoint x="21" y="-9" as="offset" />
          </mxGeometry>
        </mxCell>
        <mxCell id="zlMc-aM2gezHNLIqFYON-106" value="" style="endArrow=classic;html=1;rounded=0;" edge="1" parent="zlMc-aM2gezHNLIqFYON-125">
          <mxGeometry width="50" height="50" relative="1" as="geometry">
            <mxPoint x="250" y="350.1400000000001" as="sourcePoint" />
            <mxPoint x="20" y="350" as="targetPoint" />
          </mxGeometry>
        </mxCell>
        <mxCell id="zlMc-aM2gezHNLIqFYON-107" value="Listado de Pólizas" style="edgeLabel;html=1;align=center;verticalAlign=middle;resizable=0;points=[];" connectable="0" vertex="1" parent="zlMc-aM2gezHNLIqFYON-106">
          <mxGeometry x="-0.072" relative="1" as="geometry">
            <mxPoint y="-10" as="offset" />
          </mxGeometry>
        </mxCell>
        <mxCell id="zlMc-aM2gezHNLIqFYON-138" value="" style="group" connectable="0" vertex="1" parent="1">
          <mxGeometry x="65" y="1420" width="635.3" height="470.1400000000003" as="geometry" />
        </mxCell>
        <mxCell id="zlMc-aM2gezHNLIqFYON-108" value="Actualizar información empleado" style="text;html=1;align=center;verticalAlign=middle;resizable=0;points=[];autosize=1;strokeColor=none;fillColor=none;" vertex="1" parent="zlMc-aM2gezHNLIqFYON-138">
          <mxGeometry x="30" width="200" height="30" as="geometry" />
        </mxCell>
        <mxCell id="zlMc-aM2gezHNLIqFYON-109" value="" style="endArrow=classic;html=1;rounded=0;" edge="1" parent="zlMc-aM2gezHNLIqFYON-138">
          <mxGeometry width="50" height="50" relative="1" as="geometry">
            <mxPoint x="15" y="160" as="sourcePoint" />
            <mxPoint x="255" y="160" as="targetPoint" />
          </mxGeometry>
        </mxCell>
        <mxCell id="zlMc-aM2gezHNLIqFYON-110" value="abrirModalEmpleado(poliza)" style="edgeLabel;html=1;align=center;verticalAlign=middle;resizable=0;points=[];" connectable="0" vertex="1" parent="zlMc-aM2gezHNLIqFYON-109">
          <mxGeometry x="-0.2114" y="1" relative="1" as="geometry">
            <mxPoint x="21" y="-9" as="offset" />
          </mxGeometry>
        </mxCell>
        <mxCell id="zlMc-aM2gezHNLIqFYON-111" value="" style="endArrow=classic;html=1;rounded=0;" edge="1" parent="zlMc-aM2gezHNLIqFYON-138">
          <mxGeometry width="50" height="50" relative="1" as="geometry">
            <mxPoint x="255" y="210.1400000000001" as="sourcePoint" />
            <mxPoint x="15" y="210" as="targetPoint" />
          </mxGeometry>
        </mxCell>
        <mxCell id="zlMc-aM2gezHNLIqFYON-112" value="modal ActualizarEmpleado" style="edgeLabel;html=1;align=center;verticalAlign=middle;resizable=0;points=[];" connectable="0" vertex="1" parent="zlMc-aM2gezHNLIqFYON-111">
          <mxGeometry x="-0.072" relative="1" as="geometry">
            <mxPoint y="-10" as="offset" />
          </mxGeometry>
        </mxCell>
        <mxCell id="zlMc-aM2gezHNLIqFYON-113" value="Listado de pólizas" style="shape=umlBoundary;whiteSpace=wrap;html=1;" vertex="1" parent="zlMc-aM2gezHNLIqFYON-138">
          <mxGeometry x="255" y="20" width="100" height="80" as="geometry" />
        </mxCell>
        <mxCell id="zlMc-aM2gezHNLIqFYON-114" value="" style="endArrow=none;dashed=1;html=1;rounded=0;entryX=-0.003;entryY=0.716;entryDx=0;entryDy=0;entryPerimeter=0;" edge="1" parent="zlMc-aM2gezHNLIqFYON-138" target="zlMc-aM2gezHNLIqFYON-113">
          <mxGeometry width="50" height="50" relative="1" as="geometry">
            <mxPoint x="255" y="470" as="sourcePoint" />
            <mxPoint x="255" y="86.67000000000007" as="targetPoint" />
          </mxGeometry>
        </mxCell>
        <mxCell id="zlMc-aM2gezHNLIqFYON-115" value="Usuario" style="shape=umlActor;verticalLabelPosition=bottom;verticalAlign=top;html=1;" vertex="1" parent="zlMc-aM2gezHNLIqFYON-138">
          <mxGeometry y="30" width="30" height="60" as="geometry" />
        </mxCell>
        <mxCell id="zlMc-aM2gezHNLIqFYON-116" value="" style="endArrow=none;dashed=1;html=1;rounded=0;" edge="1" parent="zlMc-aM2gezHNLIqFYON-138">
          <mxGeometry width="50" height="50" relative="1" as="geometry">
            <mxPoint x="15" y="470" as="sourcePoint" />
            <mxPoint x="15" y="110" as="targetPoint" />
            <Array as="points" />
          </mxGeometry>
        </mxCell>
        <mxCell id="zlMc-aM2gezHNLIqFYON-121" value="" style="endArrow=classic;html=1;rounded=0;" edge="1" parent="zlMc-aM2gezHNLIqFYON-138">
          <mxGeometry width="50" height="50" relative="1" as="geometry">
            <mxPoint x="15" y="430" as="sourcePoint" />
            <mxPoint x="255" y="430" as="targetPoint" />
          </mxGeometry>
        </mxCell>
        <mxCell id="zlMc-aM2gezHNLIqFYON-122" value="obtenerPaginado(poliza)" style="edgeLabel;html=1;align=center;verticalAlign=middle;resizable=0;points=[];" connectable="0" vertex="1" parent="zlMc-aM2gezHNLIqFYON-121">
          <mxGeometry x="-0.2114" y="1" relative="1" as="geometry">
            <mxPoint x="21" y="-9" as="offset" />
          </mxGeometry>
        </mxCell>
        <mxCell id="zlMc-aM2gezHNLIqFYON-123" value="" style="endArrow=classic;html=1;rounded=0;" edge="1" parent="zlMc-aM2gezHNLIqFYON-138">
          <mxGeometry width="50" height="50" relative="1" as="geometry">
            <mxPoint x="255" y="470.1400000000003" as="sourcePoint" />
            <mxPoint x="15" y="470" as="targetPoint" />
          </mxGeometry>
        </mxCell>
        <mxCell id="zlMc-aM2gezHNLIqFYON-124" value="Listado de Pólizas" style="edgeLabel;html=1;align=center;verticalAlign=middle;resizable=0;points=[];" connectable="0" vertex="1" parent="zlMc-aM2gezHNLIqFYON-123">
          <mxGeometry x="-0.072" relative="1" as="geometry">
            <mxPoint y="-10" as="offset" />
          </mxGeometry>
        </mxCell>
        <mxCell id="zlMc-aM2gezHNLIqFYON-126" value="Empleado&lt;div&gt;Service&lt;/div&gt;" style="shape=umlBoundary;whiteSpace=wrap;html=1;" vertex="1" parent="zlMc-aM2gezHNLIqFYON-138">
          <mxGeometry x="535.3" y="20" width="100" height="80" as="geometry" />
        </mxCell>
        <mxCell id="zlMc-aM2gezHNLIqFYON-127" value="" style="endArrow=none;dashed=1;html=1;rounded=0;entryX=-0.003;entryY=0.716;entryDx=0;entryDy=0;entryPerimeter=0;" edge="1" parent="zlMc-aM2gezHNLIqFYON-138" target="zlMc-aM2gezHNLIqFYON-126">
          <mxGeometry width="50" height="50" relative="1" as="geometry">
            <mxPoint x="535" y="290" as="sourcePoint" />
            <mxPoint x="535.3" y="86.67000000000007" as="targetPoint" />
          </mxGeometry>
        </mxCell>
        <mxCell id="zlMc-aM2gezHNLIqFYON-128" value="" style="endArrow=classic;html=1;rounded=0;" edge="1" parent="zlMc-aM2gezHNLIqFYON-138">
          <mxGeometry width="50" height="50" relative="1" as="geometry">
            <mxPoint x="255" y="240" as="sourcePoint" />
            <mxPoint x="535" y="240" as="targetPoint" />
          </mxGeometry>
        </mxCell>
        <mxCell id="zlMc-aM2gezHNLIqFYON-129" value="obtenerPorId(idEmpleado)" style="edgeLabel;html=1;align=center;verticalAlign=middle;resizable=0;points=[];" connectable="0" vertex="1" parent="zlMc-aM2gezHNLIqFYON-128">
          <mxGeometry x="-0.2114" y="1" relative="1" as="geometry">
            <mxPoint x="21" y="-9" as="offset" />
          </mxGeometry>
        </mxCell>
        <mxCell id="zlMc-aM2gezHNLIqFYON-130" value="" style="endArrow=classic;html=1;rounded=0;" edge="1" parent="zlMc-aM2gezHNLIqFYON-138">
          <mxGeometry width="50" height="50" relative="1" as="geometry">
            <mxPoint x="535" y="290" as="sourcePoint" />
            <mxPoint x="255" y="290" as="targetPoint" />
          </mxGeometry>
        </mxCell>
        <mxCell id="zlMc-aM2gezHNLIqFYON-131" value="Datos del empleado" style="edgeLabel;html=1;align=center;verticalAlign=middle;resizable=0;points=[];" connectable="0" vertex="1" parent="zlMc-aM2gezHNLIqFYON-130">
          <mxGeometry x="-0.072" relative="1" as="geometry">
            <mxPoint y="-10" as="offset" />
          </mxGeometry>
        </mxCell>
        <mxCell id="zlMc-aM2gezHNLIqFYON-132" value="" style="endArrow=classic;html=1;rounded=0;" edge="1" parent="zlMc-aM2gezHNLIqFYON-138">
          <mxGeometry width="50" height="50" relative="1" as="geometry">
            <mxPoint x="15" y="333" as="sourcePoint" />
            <mxPoint x="255" y="333" as="targetPoint" />
          </mxGeometry>
        </mxCell>
        <mxCell id="zlMc-aM2gezHNLIqFYON-133" value="actualizarEmpleado(empleado)" style="edgeLabel;html=1;align=center;verticalAlign=middle;resizable=0;points=[];" connectable="0" vertex="1" parent="zlMc-aM2gezHNLIqFYON-132">
          <mxGeometry x="-0.2114" y="1" relative="1" as="geometry">
            <mxPoint x="21" y="-9" as="offset" />
          </mxGeometry>
        </mxCell>
        <mxCell id="zlMc-aM2gezHNLIqFYON-136" value="" style="endArrow=classic;html=1;rounded=0;" edge="1" parent="zlMc-aM2gezHNLIqFYON-138">
          <mxGeometry width="50" height="50" relative="1" as="geometry">
            <mxPoint x="255" y="380.1400000000003" as="sourcePoint" />
            <mxPoint x="15" y="380" as="targetPoint" />
          </mxGeometry>
        </mxCell>
        <mxCell id="zlMc-aM2gezHNLIqFYON-137" value="&lt;i&gt;Empleado actualizado correctamente&lt;/i&gt;" style="edgeLabel;html=1;align=center;verticalAlign=middle;resizable=0;points=[];" connectable="0" vertex="1" parent="zlMc-aM2gezHNLIqFYON-136">
          <mxGeometry x="-0.072" relative="1" as="geometry">
            <mxPoint y="-10" as="offset" />
          </mxGeometry>
        </mxCell>
      </root>
    </mxGraphModel>
  </diagram>
</mxfile>
